<svg width="24" height="24" viewBox="0 0 24 24" fill="none" xmlns="http://www.w3.org/2000/svg">
<path fill-rule="evenodd" clip-rule="evenodd" d="M9.31212 4.24152C7.24786 3.63439 5.66243 3.88763 4.7759 4.77415C3.88938 5.66068 3.63614 7.24611 4.24327 9.31037C4.84129 11.3436 6.2348 13.6577 8.31144 15.7343C9.50333 16.9262 10.7734 17.8931 12.0237 18.6136C13.2741 17.8931 14.5442 16.9262 15.7361 15.7343C16.0223 15.4481 16.2959 15.157 16.5564 14.8624C16.8308 14.5522 17.3048 14.5231 17.6151 14.7975C17.9253 15.0719 17.9544 15.5459 17.68 15.8562C17.3991 16.1737 17.1046 16.4871 16.7967 16.795C15.7811 17.8105 14.7015 18.6851 13.6071 19.4004C13.9903 19.56 14.3674 19.6943 14.7354 19.8025C16.7996 20.4096 18.3851 20.1564 19.2716 19.2698C20.1581 18.3833 20.4114 16.7979 19.8042 14.7336C19.5877 13.9973 19.2668 13.2242 18.8469 12.4388C18.8226 12.402 18.8017 12.3632 18.7843 12.323C18.0488 10.9763 17.0237 9.59737 15.7361 8.30969C14.5442 7.1178 13.2741 6.15094 12.0238 5.43037C10.7734 6.15094 9.50333 7.1178 8.31144 8.30969C8.01221 8.60892 7.72683 8.91343 7.45572 9.22168C7.18217 9.53272 6.70826 9.5631 6.39723 9.28955C6.0862 9.016 6.05581 8.5421 6.32936 8.23107C6.62167 7.8987 6.92897 7.57084 7.25078 7.24903C8.26636 6.23345 9.34596 5.35888 10.4404 4.64364C10.0572 4.484 9.68005 4.34974 9.31212 4.24152ZM12.0237 3.72455C11.2509 3.33166 10.4823 3.02217 9.73537 2.80247C7.44896 2.13 5.17187 2.25687 3.71524 3.71349C2.25862 5.17012 2.13175 7.44721 2.80422 9.73362C3.02392 10.4806 3.33342 11.2491 3.72631 12.022C2.9541 13.5412 2.49439 15.0625 2.4221 16.4464C2.34409 17.9398 2.71845 19.3337 3.71524 20.3305C5.17187 21.7871 7.44896 21.914 9.73537 21.2415C10.4823 21.0218 11.2509 20.7123 12.0237 20.3194C12.7966 20.7123 13.5652 21.0218 14.3121 21.2415C16.5985 21.914 18.8756 21.7871 20.3323 20.3305C21.7889 18.8739 21.9157 16.5968 21.2433 14.3104C21.0236 13.5634 20.7141 12.7949 20.3212 12.022C21.0928 10.5039 21.5524 8.98372 21.6252 7.6007C21.7039 6.10616 21.3297 4.71099 20.3323 3.71349C18.8756 2.25687 16.5985 2.13 14.3121 2.80247C13.5652 3.02217 12.7966 3.33166 12.0237 3.72455ZM13.6071 4.64364C14.7015 5.35888 15.7811 6.23345 16.7967 7.24903C17.8123 8.26462 18.6869 9.34423 19.4021 10.4387C19.8389 9.39001 20.0812 8.39786 20.1273 7.52184C20.191 6.31162 19.8816 5.38417 19.2716 4.77415C18.3851 3.88763 16.7996 3.63439 14.7354 4.24152C14.3674 4.34974 13.9903 4.484 13.6071 4.64364ZM10.4404 19.4004C9.34596 18.6851 8.26636 17.8105 7.25078 16.795C6.23519 15.7794 5.36062 14.6998 4.64537 13.6053C4.20813 14.655 3.96585 15.648 3.92006 16.5246C3.8569 17.7337 4.1663 18.6602 4.7759 19.2698C5.66243 20.1564 7.24786 20.4096 9.31212 19.8025C9.68005 19.6943 10.0572 19.56 10.4404 19.4004ZM12.0029 11.7511C11.8649 11.7511 11.7529 11.863 11.7529 12.0011C11.7529 12.1392 11.8649 12.2511 12.0029 12.2511C12.141 12.2511 12.2529 12.1392 12.2529 12.0011C12.2529 11.863 12.141 11.7511 12.0029 11.7511ZM10.2529 12.0011C10.2529 11.0346 11.0364 10.2511 12.0029 10.2511C12.9694 10.2511 13.7529 11.0346 13.7529 12.0011C13.7529 12.9676 12.9694 13.7511 12.0029 13.7511C11.0364 13.7511 10.2529 12.9676 10.2529 12.0011Z" fill="#FD853A"/>
</svg>
