<svg width="60" height="60" viewBox="0 0 60 60" fill="none" xmlns="http://www.w3.org/2000/svg">
<path d="M0 30C0 13.4315 13.4315 0 30 0C46.5685 0 60 13.4315 60 30C60 46.5685 46.5685 60 30 60C13.4315 60 0 46.5685 0 30Z" fill="#CDD1D9"/>
<path fill-rule="evenodd" clip-rule="evenodd" d="M30.0018 24.0021C27.7626 24.0021 25.9475 25.8173 25.9475 28.0564C25.9475 29.5847 26.7931 30.9155 28.0419 31.6064C27.4838 31.7996 26.9538 32.0755 26.4706 32.4279C25.4453 33.1759 24.6839 34.2301 24.2964 35.4387C24.2545 35.5691 24.2775 35.7115 24.3582 35.8221C24.4389 35.9328 24.5676 35.9982 24.7045 35.9982H35.2987C35.4356 35.9982 35.5643 35.9328 35.645 35.8221C35.7257 35.7115 35.7486 35.5691 35.7068 35.4387C35.3193 34.2301 34.5579 33.1759 33.5326 32.4279C33.0495 32.0755 32.5196 31.7997 31.9615 31.6065C33.2104 30.9156 34.056 29.5848 34.056 28.0564C34.056 25.8173 32.2409 24.0021 30.0018 24.0021Z" fill="#7F8A9D"/>
</svg>
