<svg width="180" height="180" viewBox="0 0 180 180" fill="none" xmlns="http://www.w3.org/2000/svg">
<path d="M0 90C0 40.2944 40.2944 0 90 0C139.706 0 180 40.2944 180 90C180 139.706 139.706 180 90 180C40.2944 180 0 139.706 0 90Z" fill="#CDD1D9"/>
<g clip-path="url(#clip0_185_39114)">
<path fill-rule="evenodd" clip-rule="evenodd" d="M90 68.002C84.4772 68.002 80 72.4791 80 78.002C80 83.5248 84.4772 88.002 90 88.002C95.5229 88.002 100 83.5248 100 78.002C100 72.4791 95.5229 68.002 90 68.002ZM76 78.002C76 70.27 82.268 64.002 90 64.002C97.732 64.002 104 70.27 104 78.002C104 85.7339 97.732 92.002 90 92.002C82.268 92.002 76 85.7339 76 78.002ZM90 102.669C81.289 102.669 73.3438 106.462 67.4552 112.707C66.6975 113.511 65.4317 113.548 64.628 112.79C63.8243 112.033 63.7871 110.767 64.5448 109.963C71.1137 102.996 80.0818 98.6686 90 98.6686C99.9182 98.6686 108.886 102.996 115.455 109.963C116.213 110.767 116.176 112.033 115.372 112.79C114.568 113.548 113.303 113.511 112.545 112.707C106.656 106.462 98.7111 102.669 90 102.669Z" fill="#7F8A9D"/>
</g>
<defs>
<clipPath id="clip0_185_39114">
<rect width="60" height="60" fill="white" transform="translate(60 60)"/>
</clipPath>
</defs>
</svg>
