<svg width="485" height="410" viewBox="0 0 485 410" fill="none" xmlns="http://www.w3.org/2000/svg">
<path fill-rule="evenodd" clip-rule="evenodd" d="M181.317 90.984C181.317 100.689 189.185 108.555 198.889 108.555H235.462C234.36 98.3449 240.19 87.3786 252.953 85.1582C258.798 84.1413 263.453 79.7042 264.752 73.921L264.988 72.8473C268.114 58.5659 282.236 53.353 293.353 57.2698V18.2159C293.353 8.51127 285.485 0.644043 275.781 0.644043H198.889C189.185 0.644043 181.317 8.51128 181.317 18.2159V90.984Z" fill="#002462"/>
<path fill-rule="evenodd" clip-rule="evenodd" d="M276.234 33.0128C276.234 40.8015 269.92 47.1155 262.131 47.1155C254.342 47.1155 248.028 40.8015 248.028 33.0128C248.028 25.2241 254.342 18.9102 262.131 18.9102C269.92 18.9102 276.234 25.2241 276.234 33.0128ZM235.462 108.555C234.382 98.5513 239.957 87.8223 252.186 85.3037L249.827 81.5021C232.369 58.3299 206.309 57.3096 181.317 62.7506V90.9833C181.317 100.688 189.185 108.555 198.889 108.555H235.462ZM277.547 75.5966C279.503 66.6625 292.224 66.6069 294.258 75.5235L294.359 75.9683C294.428 76.2732 294.493 76.5604 294.563 76.8549C297.098 87.6539 305.837 95.9054 316.777 97.8087C326.087 99.4283 326.087 112.793 316.777 114.413C305.779 116.326 297.004 124.656 294.523 135.54L294.258 136.698C292.224 145.615 279.503 145.559 277.547 136.625L277.33 135.63C274.938 124.706 266.175 116.313 255.156 114.397C245.865 112.78 245.865 99.4415 255.156 97.825C266.136 95.9149 274.877 87.574 277.305 76.7046L277.466 75.9687L277.547 75.5966Z" fill="#FFA502"/>
<g clip-path="url(#clip0_809_17926)">
<path fill-rule="evenodd" clip-rule="evenodd" d="M46.5279 122.807C47.4104 119.513 49.5654 116.705 52.5184 115L97.0569 89.2856C98.0412 88.7173 99.2111 88.5633 100.309 88.8575L147.144 101.407C148.242 101.701 149.178 102.419 149.746 103.404L184.032 162.788C185.737 165.741 186.2 169.251 185.317 172.545C184.434 175.838 182.279 178.647 179.326 180.352L124.43 212.046C124.133 209.925 123.431 207.824 122.294 205.856L120.152 202.144L123.863 200.001C132.062 195.267 134.872 184.783 130.138 176.584C125.404 168.384 114.92 165.575 106.72 170.309L103.009 172.452L100.866 168.74C96.1321 160.541 85.6477 157.732 77.4483 162.466C73.9375 164.493 71.4148 167.574 70.0495 171.079L47.8124 132.563C46.1074 129.61 45.6454 126.101 46.5279 122.807Z" fill="#002462"/>
<path fill-rule="evenodd" clip-rule="evenodd" d="M82.8057 171.745C85.8804 169.969 89.8121 171.023 91.5872 174.098L99.0872 187.088L112.078 179.588C115.152 177.813 119.084 178.866 120.859 181.941C122.634 185.016 121.581 188.947 118.506 190.723L105.516 198.223L113.016 211.213C114.791 214.288 113.738 218.219 110.663 219.995C107.588 221.77 103.656 220.716 101.881 217.641L94.3812 204.651L81.3908 212.151C78.3161 213.926 74.3844 212.873 72.6092 209.798C70.8341 206.723 71.8875 202.792 74.9623 201.016L87.9526 193.516L80.4526 180.526C78.6774 177.451 79.7309 173.52 82.8057 171.745Z" fill="#FFA502"/>
</g>
<g clip-path="url(#clip1_809_17926)">
<path d="M377.802 98.2774C381.352 92.128 389.216 90.021 395.365 93.5714L436.192 117.143C442.341 120.693 444.448 128.557 440.898 134.706L404.469 197.802C400.919 203.951 393.056 206.058 386.906 202.508L346.079 178.937C339.93 175.386 337.823 167.523 341.373 161.374L377.802 98.2774Z" fill="#FFA502"/>
<path d="M348.529 106.12C352.08 99.971 359.943 97.864 366.093 101.414L406.92 124.986C413.069 128.536 415.176 136.4 411.626 142.549L375.197 205.645C371.647 211.794 363.783 213.902 357.634 210.351L316.807 186.78C310.657 183.229 308.551 175.366 312.101 169.217L348.529 106.12Z" fill="#002462"/>
<path fill-rule="evenodd" clip-rule="evenodd" d="M356.304 120.507C357.783 117.944 361.06 117.066 363.622 118.546L393.314 135.689C395.876 137.168 396.754 140.444 395.275 143.007C393.796 145.569 390.519 146.447 387.957 144.967L358.265 127.825C355.703 126.345 354.825 123.069 356.304 120.507ZM345.593 139.066C347.073 136.504 350.349 135.626 352.911 137.105L382.604 154.248C385.166 155.728 386.044 159.004 384.564 161.566C383.085 164.129 379.809 165.007 377.246 163.527L347.554 146.384C344.992 144.905 344.114 141.629 345.593 139.066ZM342.191 155.66C339.629 154.181 336.353 155.058 334.873 157.621C333.394 160.183 334.272 163.459 336.834 164.939L351.68 173.51C354.243 174.99 357.519 174.112 358.998 171.549C360.478 168.987 359.6 165.711 357.037 164.231L342.191 155.66Z" fill="#FFA502"/>
</g>
<g filter="url(#filter0_dddd_809_17926)">
<path d="M105.823 317.923C105.529 317.923 105.339 317.776 105.251 317.483L103.931 313.171C103.872 313.054 103.799 312.995 103.711 312.995H92.8866C92.7986 312.995 92.7253 313.054 92.6666 313.171L91.3906 317.483C91.3026 317.776 91.1119 317.923 90.8186 317.923H85.2306C85.0546 317.923 84.9226 317.879 84.8346 317.791C84.7466 317.674 84.7319 317.512 84.7906 317.307L94.2946 287.563C94.3826 287.27 94.5733 287.123 94.8666 287.123H101.775C102.068 287.123 102.259 287.27 102.347 287.563L111.851 317.307C111.88 317.366 111.895 317.439 111.895 317.527C111.895 317.791 111.733 317.923 111.411 317.923H105.823ZM94.2506 307.935C94.2213 308.111 94.2799 308.199 94.4266 308.199H102.171C102.347 308.199 102.405 308.111 102.347 307.935L98.3866 294.867C98.3573 294.75 98.3133 294.706 98.2546 294.735C98.1959 294.735 98.1519 294.779 98.1226 294.867L94.2506 307.935ZM128.672 287.651C128.672 287.504 128.716 287.387 128.804 287.299C128.921 287.182 129.053 287.123 129.2 287.123H134.348C134.494 287.123 134.612 287.182 134.7 287.299C134.817 287.387 134.876 287.504 134.876 287.651V317.395C134.876 317.542 134.817 317.674 134.7 317.791C134.612 317.879 134.494 317.923 134.348 317.923H129.2C129.053 317.923 128.921 317.879 128.804 317.791C128.716 317.674 128.672 317.542 128.672 317.395V315.943C128.672 315.855 128.642 315.811 128.584 315.811C128.525 315.782 128.466 315.796 128.408 315.855C127.176 317.468 125.489 318.275 123.348 318.275C121.294 318.275 119.52 317.703 118.024 316.559C116.557 315.415 115.501 313.846 114.856 311.851C114.357 310.326 114.108 308.551 114.108 306.527C114.108 304.444 114.372 302.626 114.9 301.071C115.574 299.194 116.63 297.712 118.068 296.627C119.534 295.512 121.338 294.955 123.48 294.955C125.592 294.955 127.234 295.688 128.408 297.155C128.466 297.243 128.525 297.272 128.584 297.243C128.642 297.214 128.672 297.155 128.672 297.067V287.651ZM127.748 311.059C128.334 309.974 128.628 308.492 128.628 306.615C128.628 304.65 128.305 303.11 127.66 301.995C126.985 300.851 126.002 300.279 124.712 300.279C123.333 300.279 122.292 300.851 121.588 301.995C120.854 303.139 120.488 304.694 120.488 306.659C120.488 308.419 120.796 309.886 121.412 311.059C122.145 312.32 123.23 312.951 124.668 312.951C125.988 312.951 127.014 312.32 127.748 311.059ZM153.594 287.651C153.594 287.504 153.638 287.387 153.726 287.299C153.843 287.182 153.975 287.123 154.122 287.123H159.27C159.416 287.123 159.534 287.182 159.622 287.299C159.739 287.387 159.798 287.504 159.798 287.651V317.395C159.798 317.542 159.739 317.674 159.622 317.791C159.534 317.879 159.416 317.923 159.27 317.923H154.122C153.975 317.923 153.843 317.879 153.726 317.791C153.638 317.674 153.594 317.542 153.594 317.395V315.943C153.594 315.855 153.564 315.811 153.506 315.811C153.447 315.782 153.388 315.796 153.33 315.855C152.098 317.468 150.411 318.275 148.27 318.275C146.216 318.275 144.442 317.703 142.946 316.559C141.479 315.415 140.423 313.846 139.778 311.851C139.279 310.326 139.03 308.551 139.03 306.527C139.03 304.444 139.294 302.626 139.822 301.071C140.496 299.194 141.552 297.712 142.99 296.627C144.456 295.512 146.26 294.955 148.402 294.955C150.514 294.955 152.156 295.688 153.33 297.155C153.388 297.243 153.447 297.272 153.506 297.243C153.564 297.214 153.594 297.155 153.594 297.067V287.651ZM152.67 311.059C153.256 309.974 153.55 308.492 153.55 306.615C153.55 304.65 153.227 303.11 152.582 301.995C151.907 300.851 150.924 300.279 149.634 300.279C148.255 300.279 147.214 300.851 146.51 301.995C145.776 303.139 145.41 304.694 145.41 306.659C145.41 308.419 145.718 309.886 146.334 311.059C147.067 312.32 148.152 312.951 149.59 312.951C150.91 312.951 151.936 312.32 152.67 311.059ZM182.308 294.955C184.215 294.955 185.916 295.292 187.412 295.967C188.908 296.612 190.067 297.507 190.888 298.651C191.739 299.795 192.164 301.071 192.164 302.479V317.395C192.164 317.542 192.105 317.674 191.988 317.791C191.9 317.879 191.783 317.923 191.636 317.923H186.488C186.341 317.923 186.209 317.879 186.092 317.791C186.004 317.674 185.96 317.542 185.96 317.395V315.943C185.96 315.855 185.931 315.796 185.872 315.767C185.813 315.738 185.755 315.767 185.696 315.855C184.464 317.468 182.484 318.275 179.756 318.275C177.468 318.275 175.62 317.718 174.212 316.603C172.804 315.488 172.1 313.846 172.1 311.675C172.1 309.416 172.892 307.671 174.476 306.439C176.06 305.178 178.319 304.547 181.252 304.547H185.74C185.887 304.547 185.96 304.474 185.96 304.327V303.359C185.96 302.391 185.667 301.643 185.08 301.115C184.493 300.558 183.613 300.279 182.44 300.279C181.531 300.279 180.768 300.44 180.152 300.763C179.565 301.086 179.184 301.54 179.008 302.127C178.92 302.45 178.729 302.596 178.436 302.567L173.112 301.863C172.76 301.804 172.599 301.672 172.628 301.467C172.745 300.235 173.229 299.12 174.08 298.123C174.96 297.126 176.104 296.348 177.512 295.791C178.949 295.234 180.548 294.955 182.308 294.955ZM181.428 313.655C182.689 313.655 183.76 313.318 184.64 312.643C185.52 311.968 185.96 311.103 185.96 310.047V308.463C185.96 308.316 185.887 308.243 185.74 308.243H182.572C181.252 308.243 180.211 308.492 179.448 308.991C178.715 309.49 178.348 310.194 178.348 311.103C178.348 311.895 178.627 312.526 179.184 312.995C179.741 313.435 180.489 313.655 181.428 313.655ZM208.326 294.955C210.673 294.955 212.565 295.674 214.002 297.111C215.439 298.548 216.158 300.499 216.158 302.963V317.395C216.158 317.542 216.099 317.674 215.982 317.791C215.894 317.879 215.777 317.923 215.63 317.923H210.482C210.335 317.923 210.203 317.879 210.086 317.791C209.998 317.674 209.954 317.542 209.954 317.395V304.239C209.954 303.066 209.617 302.112 208.942 301.379C208.297 300.646 207.431 300.279 206.346 300.279C205.261 300.279 204.381 300.646 203.706 301.379C203.061 302.112 202.738 303.066 202.738 304.239V317.395C202.738 317.542 202.679 317.674 202.562 317.791C202.474 317.879 202.357 317.923 202.21 317.923H197.062C196.915 317.923 196.783 317.879 196.666 317.791C196.578 317.674 196.534 317.542 196.534 317.395V295.835C196.534 295.688 196.578 295.571 196.666 295.483C196.783 295.366 196.915 295.307 197.062 295.307H202.21C202.357 295.307 202.474 295.366 202.562 295.483C202.679 295.571 202.738 295.688 202.738 295.835V297.375C202.738 297.463 202.767 297.522 202.826 297.551C202.885 297.58 202.929 297.566 202.958 297.507C204.161 295.806 205.95 294.955 208.326 294.955ZM219.476 326.679C219.388 326.679 219.315 326.62 219.256 326.503C219.198 326.415 219.168 326.298 219.168 326.151V322.103C219.168 321.956 219.212 321.824 219.3 321.707C219.418 321.619 219.55 321.575 219.696 321.575C220.928 321.546 221.896 321.443 222.6 321.267C223.334 321.091 223.906 320.754 224.316 320.255C224.756 319.756 225.094 319.023 225.328 318.055C225.358 317.996 225.358 317.908 225.328 317.791L218.112 295.879C218.083 295.82 218.068 295.747 218.068 295.659C218.068 295.395 218.23 295.263 218.552 295.263H224.052C224.375 295.263 224.58 295.41 224.668 295.703L228.364 309.959C228.394 310.047 228.438 310.091 228.496 310.091C228.555 310.091 228.599 310.047 228.628 309.959L232.324 295.703C232.412 295.41 232.618 295.263 232.94 295.263H238.308C238.484 295.263 238.602 295.322 238.66 295.439C238.748 295.527 238.763 295.674 238.704 295.879L231.092 318.759C230.359 320.9 229.611 322.499 228.848 323.555C228.086 324.64 227.015 325.432 225.636 325.931C224.258 326.43 222.307 326.679 219.784 326.679H219.476ZM260.533 318.275C258.186 318.275 256.147 317.688 254.417 316.515C252.715 315.342 251.498 313.728 250.765 311.675C250.266 310.208 250.017 308.478 250.017 306.483C250.017 304.518 250.266 302.816 250.765 301.379C251.469 299.384 252.686 297.815 254.417 296.671C256.147 295.527 258.186 294.955 260.533 294.955C262.879 294.955 264.933 295.542 266.693 296.715C268.482 297.888 269.67 299.37 270.257 301.159C270.491 301.863 270.609 302.391 270.609 302.743V302.831C270.609 303.095 270.462 303.256 270.169 303.315L265.109 304.063H265.021C264.757 304.063 264.581 303.916 264.493 303.623L264.361 302.919C264.155 302.156 263.701 301.526 262.997 301.027C262.293 300.528 261.457 300.279 260.489 300.279C259.55 300.279 258.758 300.514 258.113 300.983C257.467 301.452 257.013 302.098 256.749 302.919C256.426 303.799 256.265 305.002 256.265 306.527C256.265 308.052 256.411 309.255 256.705 310.135C256.969 311.015 257.423 311.704 258.069 312.203C258.743 312.702 259.55 312.951 260.489 312.951C261.398 312.951 262.19 312.716 262.865 312.247C263.569 311.748 264.053 311.074 264.317 310.223C264.346 310.164 264.361 310.076 264.361 309.959C264.39 309.93 264.405 309.886 264.405 309.827C264.434 309.475 264.639 309.328 265.021 309.387L270.081 310.179C270.374 310.238 270.521 310.399 270.521 310.663C270.521 310.898 270.433 311.338 270.257 311.983C269.641 313.948 268.438 315.488 266.649 316.603C264.889 317.718 262.85 318.275 260.533 318.275ZM283.952 318.275C281.488 318.275 279.376 317.63 277.616 316.339C275.856 315.048 274.653 313.288 274.008 311.059C273.597 309.68 273.392 308.184 273.392 306.571C273.392 304.84 273.597 303.286 274.008 301.907C274.682 299.736 275.9 298.035 277.66 296.803C279.42 295.571 281.532 294.955 283.996 294.955C286.401 294.955 288.454 295.571 290.156 296.803C291.857 298.006 293.06 299.692 293.764 301.863C294.233 303.33 294.468 304.87 294.468 306.483C294.468 308.067 294.262 309.548 293.852 310.927C293.206 313.215 292.004 315.019 290.244 316.339C288.513 317.63 286.416 318.275 283.952 318.275ZM283.952 312.951C284.92 312.951 285.741 312.658 286.416 312.071C287.09 311.484 287.574 310.678 287.868 309.651C288.102 308.712 288.22 307.686 288.22 306.571C288.22 305.339 288.102 304.298 287.868 303.447C287.545 302.45 287.046 301.672 286.372 301.115C285.697 300.558 284.876 300.279 283.908 300.279C282.91 300.279 282.074 300.558 281.4 301.115C280.754 301.672 280.285 302.45 279.992 303.447C279.757 304.151 279.64 305.192 279.64 306.571C279.64 307.891 279.742 308.918 279.948 309.651C280.241 310.678 280.725 311.484 281.4 312.071C282.104 312.658 282.954 312.951 283.952 312.951ZM310.248 294.955C312.595 294.955 314.487 295.674 315.924 297.111C317.361 298.548 318.08 300.499 318.08 302.963V317.395C318.08 317.542 318.021 317.674 317.904 317.791C317.816 317.879 317.699 317.923 317.552 317.923H312.404C312.257 317.923 312.125 317.879 312.008 317.791C311.92 317.674 311.876 317.542 311.876 317.395V304.239C311.876 303.066 311.539 302.112 310.864 301.379C310.219 300.646 309.353 300.279 308.268 300.279C307.183 300.279 306.303 300.646 305.628 301.379C304.983 302.112 304.66 303.066 304.66 304.239V317.395C304.66 317.542 304.601 317.674 304.484 317.791C304.396 317.879 304.279 317.923 304.132 317.923H298.984C298.837 317.923 298.705 317.879 298.588 317.791C298.5 317.674 298.456 317.542 298.456 317.395V295.835C298.456 295.688 298.5 295.571 298.588 295.483C298.705 295.366 298.837 295.307 298.984 295.307H304.132C304.279 295.307 304.396 295.366 304.484 295.483C304.601 295.571 304.66 295.688 304.66 295.835V297.375C304.66 297.463 304.689 297.522 304.748 297.551C304.807 297.58 304.851 297.566 304.88 297.507C306.083 295.806 307.872 294.955 310.248 294.955ZM335.498 299.751C335.498 299.898 335.44 300.03 335.322 300.147C335.234 300.235 335.117 300.279 334.97 300.279H330.746C330.6 300.279 330.526 300.352 330.526 300.499V309.827C330.526 310.795 330.717 311.514 331.098 311.983C331.509 312.452 332.154 312.687 333.034 312.687H334.486C334.633 312.687 334.75 312.746 334.838 312.863C334.956 312.951 335.014 313.068 335.014 313.215V317.395C335.014 317.718 334.838 317.908 334.486 317.967C333.254 318.026 332.374 318.055 331.846 318.055C329.412 318.055 327.593 317.659 326.39 316.867C325.188 316.046 324.572 314.52 324.542 312.291V300.499C324.542 300.352 324.469 300.279 324.322 300.279H321.814C321.668 300.279 321.536 300.235 321.418 300.147C321.33 300.03 321.286 299.898 321.286 299.751V295.835C321.286 295.688 321.33 295.571 321.418 295.483C321.536 295.366 321.668 295.307 321.814 295.307H324.322C324.469 295.307 324.542 295.234 324.542 295.087V289.851C324.542 289.704 324.586 289.587 324.674 289.499C324.792 289.382 324.924 289.323 325.07 289.323H329.998C330.145 289.323 330.262 289.382 330.35 289.499C330.468 289.587 330.526 289.704 330.526 289.851V295.087C330.526 295.234 330.6 295.307 330.746 295.307H334.97C335.117 295.307 335.234 295.366 335.322 295.483C335.44 295.571 335.498 295.688 335.498 295.835V299.751ZM358.953 304.283C359.129 305.398 359.187 306.644 359.129 308.023C359.099 308.375 358.909 308.551 358.557 308.551H344.961C344.785 308.551 344.726 308.624 344.785 308.771C344.873 309.358 345.034 309.944 345.269 310.531C346.031 312.174 347.586 312.995 349.933 312.995C351.81 312.966 353.291 312.203 354.377 310.707C354.494 310.531 354.626 310.443 354.773 310.443C354.861 310.443 354.963 310.502 355.081 310.619L358.249 313.743C358.395 313.89 358.469 314.022 358.469 314.139C358.469 314.198 358.41 314.315 358.293 314.491C357.325 315.694 356.078 316.632 354.553 317.307C353.027 317.952 351.355 318.275 349.537 318.275C347.014 318.275 344.873 317.703 343.113 316.559C341.382 315.415 340.135 313.816 339.373 311.763C338.757 310.296 338.449 308.375 338.449 305.999C338.449 304.386 338.669 302.963 339.109 301.731C339.783 299.648 340.957 297.991 342.629 296.759C344.33 295.527 346.339 294.911 348.657 294.911C351.59 294.911 353.937 295.762 355.697 297.463C357.486 299.164 358.571 301.438 358.953 304.283ZM348.701 300.279C346.853 300.279 345.635 301.144 345.049 302.875C344.931 303.256 344.829 303.726 344.741 304.283C344.741 304.43 344.814 304.503 344.961 304.503H352.573C352.749 304.503 352.807 304.43 352.749 304.283C352.602 303.432 352.529 303.022 352.529 303.051C352.265 302.171 351.795 301.496 351.121 301.027C350.475 300.528 349.669 300.279 348.701 300.279ZM374.744 294.955C377.091 294.955 378.983 295.674 380.42 297.111C381.857 298.548 382.576 300.499 382.576 302.963V317.395C382.576 317.542 382.517 317.674 382.4 317.791C382.312 317.879 382.195 317.923 382.048 317.923H376.9C376.753 317.923 376.621 317.879 376.504 317.791C376.416 317.674 376.372 317.542 376.372 317.395V304.239C376.372 303.066 376.035 302.112 375.36 301.379C374.715 300.646 373.849 300.279 372.764 300.279C371.679 300.279 370.799 300.646 370.124 301.379C369.479 302.112 369.156 303.066 369.156 304.239V317.395C369.156 317.542 369.097 317.674 368.98 317.791C368.892 317.879 368.775 317.923 368.628 317.923H363.48C363.333 317.923 363.201 317.879 363.084 317.791C362.996 317.674 362.952 317.542 362.952 317.395V295.835C362.952 295.688 362.996 295.571 363.084 295.483C363.201 295.366 363.333 295.307 363.48 295.307H368.628C368.775 295.307 368.892 295.366 368.98 295.483C369.097 295.571 369.156 295.688 369.156 295.835V297.375C369.156 297.463 369.185 297.522 369.244 297.551C369.303 297.58 369.347 297.566 369.376 297.507C370.579 295.806 372.368 294.955 374.744 294.955ZM399.995 299.751C399.995 299.898 399.936 300.03 399.819 300.147C399.731 300.235 399.613 300.279 399.467 300.279H395.243C395.096 300.279 395.023 300.352 395.023 300.499V309.827C395.023 310.795 395.213 311.514 395.595 311.983C396.005 312.452 396.651 312.687 397.531 312.687H398.983C399.129 312.687 399.247 312.746 399.335 312.863C399.452 312.951 399.511 313.068 399.511 313.215V317.395C399.511 317.718 399.335 317.908 398.983 317.967C397.751 318.026 396.871 318.055 396.343 318.055C393.908 318.055 392.089 317.659 390.887 316.867C389.684 316.046 389.068 314.52 389.039 312.291V300.499C389.039 300.352 388.965 300.279 388.819 300.279H386.311C386.164 300.279 386.032 300.235 385.915 300.147C385.827 300.03 385.783 299.898 385.783 299.751V295.835C385.783 295.688 385.827 295.571 385.915 295.483C386.032 295.366 386.164 295.307 386.311 295.307H388.819C388.965 295.307 389.039 295.234 389.039 295.087V289.851C389.039 289.704 389.083 289.587 389.171 289.499C389.288 289.382 389.42 289.323 389.567 289.323H394.495C394.641 289.323 394.759 289.382 394.847 289.499C394.964 289.587 395.023 289.704 395.023 289.851V295.087C395.023 295.234 395.096 295.307 395.243 295.307H399.467C399.613 295.307 399.731 295.366 399.819 295.483C399.936 295.571 399.995 295.688 399.995 295.835V299.751Z" fill="#002462"/>
</g>
<g filter="url(#filter1_dddd_809_17926)">
<path d="M15.53 362.923C15.47 362.923 15.416 362.905 15.368 362.869C15.332 362.821 15.314 362.767 15.314 362.707V350.539C15.314 350.479 15.332 350.431 15.368 350.395C15.416 350.347 15.47 350.323 15.53 350.323H19.922C20.774 350.323 21.524 350.473 22.172 350.773C22.82 351.073 23.318 351.505 23.666 352.069C24.026 352.621 24.206 353.269 24.206 354.013V359.233C24.206 359.977 24.026 360.631 23.666 361.195C23.318 361.747 22.82 362.173 22.172 362.473C21.524 362.773 20.774 362.923 19.922 362.923H15.53ZM17.402 361.033C17.402 361.093 17.432 361.123 17.492 361.123H20.012C20.648 361.123 21.152 360.925 21.524 360.529C21.908 360.121 22.106 359.581 22.118 358.909V354.355C22.118 353.671 21.926 353.131 21.542 352.735C21.158 352.327 20.642 352.123 19.994 352.123H17.492C17.432 352.123 17.402 352.153 17.402 352.213V361.033ZM30.707 353.617C31.091 353.617 31.427 353.695 31.715 353.851C31.811 353.899 31.847 353.989 31.823 354.121L31.517 355.741C31.505 355.885 31.421 355.927 31.265 355.867C31.085 355.807 30.875 355.777 30.635 355.777C30.479 355.777 30.359 355.783 30.275 355.795C29.771 355.819 29.351 355.999 29.015 356.335C28.679 356.659 28.511 357.085 28.511 357.613V362.707C28.511 362.767 28.487 362.821 28.439 362.869C28.403 362.905 28.355 362.923 28.295 362.923H26.639C26.579 362.923 26.525 362.905 26.477 362.869C26.441 362.821 26.423 362.767 26.423 362.707V353.941C26.423 353.881 26.441 353.833 26.477 353.797C26.525 353.749 26.579 353.725 26.639 353.725H28.295C28.355 353.725 28.403 353.749 28.439 353.797C28.487 353.833 28.511 353.881 28.511 353.941V354.751C28.511 354.799 28.517 354.829 28.529 354.841C28.553 354.841 28.577 354.823 28.601 354.787C29.105 354.007 29.807 353.617 30.707 353.617ZM36.7926 353.581C37.5486 353.581 38.2146 353.713 38.7906 353.977C39.3666 354.241 39.8106 354.607 40.1226 355.075C40.4346 355.531 40.5906 356.053 40.5906 356.641V362.707C40.5906 362.767 40.5666 362.821 40.5186 362.869C40.4826 362.905 40.4346 362.923 40.3746 362.923H38.7186C38.6586 362.923 38.6046 362.905 38.5566 362.869C38.5206 362.821 38.5026 362.767 38.5026 362.707V362.131C38.5026 362.095 38.4906 362.077 38.4666 362.077C38.4426 362.065 38.4186 362.071 38.3946 362.095C37.8066 362.743 36.9546 363.067 35.8386 363.067C34.9386 363.067 34.1946 362.839 33.6066 362.383C33.0306 361.927 32.7426 361.249 32.7426 360.349C32.7426 359.413 33.0666 358.687 33.7146 358.171C34.3746 357.643 35.2986 357.379 36.4866 357.379H38.4126C38.4726 357.379 38.5026 357.349 38.5026 357.289V356.857C38.5026 356.389 38.3646 356.029 38.0886 355.777C37.8126 355.513 37.3986 355.381 36.8466 355.381C36.3906 355.381 36.0186 355.465 35.7306 355.633C35.4546 355.789 35.2806 356.011 35.2086 356.299C35.1726 356.443 35.0886 356.503 34.9566 356.479L33.2106 356.263C33.1506 356.251 33.0966 356.233 33.0486 356.209C33.0126 356.173 33.0006 356.131 33.0126 356.083C33.1086 355.351 33.4986 354.751 34.1826 354.283C34.8786 353.815 35.7486 353.581 36.7926 353.581ZM36.3606 361.411C36.9486 361.411 37.4526 361.255 37.8726 360.943C38.2926 360.631 38.5026 360.235 38.5026 359.755V358.909C38.5026 358.849 38.4726 358.819 38.4126 358.819H36.9006C36.2646 358.819 35.7606 358.939 35.3886 359.179C35.0286 359.419 34.8486 359.761 34.8486 360.205C34.8486 360.589 34.9866 360.889 35.2626 361.105C35.5506 361.309 35.9166 361.411 36.3606 361.411ZM48.5009 353.941C48.5009 353.881 48.5189 353.833 48.5549 353.797C48.6029 353.749 48.6569 353.725 48.7169 353.725H50.3729C50.4329 353.725 50.4809 353.749 50.5169 353.797C50.5649 353.833 50.5889 353.881 50.5889 353.941V362.311C50.5889 363.811 50.1569 364.879 49.2929 365.515C48.4409 366.163 47.3189 366.487 45.9269 366.487C45.5549 366.487 45.1889 366.469 44.8289 366.433C44.6969 366.421 44.6309 366.343 44.6309 366.199L44.6849 364.723C44.6849 364.591 44.7689 364.525 44.9369 364.525C45.2849 364.561 45.5969 364.579 45.8729 364.579C46.7729 364.579 47.4329 364.399 47.8529 364.039C48.2849 363.691 48.5009 363.097 48.5009 362.257V362.113C48.5009 362.077 48.4889 362.059 48.4649 362.059C48.4409 362.047 48.4169 362.053 48.3929 362.077C47.9009 362.605 47.2049 362.869 46.3049 362.869C45.5249 362.869 44.8109 362.671 44.1629 362.275C43.5149 361.879 43.0649 361.273 42.8129 360.457C42.6569 359.893 42.5789 359.167 42.5789 358.279C42.5789 357.283 42.6749 356.521 42.8669 355.993C43.1069 355.261 43.5209 354.679 44.1089 354.247C44.6969 353.803 45.3869 353.581 46.1789 353.581C47.1269 353.581 47.8649 353.857 48.3929 354.409C48.4169 354.445 48.4409 354.457 48.4649 354.445C48.4889 354.433 48.5009 354.409 48.5009 354.373V353.941ZM48.3749 359.863C48.4229 359.683 48.4529 359.491 48.4649 359.287C48.4889 359.071 48.5009 358.729 48.5009 358.261C48.5009 357.805 48.4889 357.481 48.4649 357.289C48.4529 357.085 48.4169 356.887 48.3569 356.695C48.2609 356.299 48.0629 355.981 47.7629 355.741C47.4749 355.501 47.1029 355.381 46.6469 355.381C46.2149 355.381 45.8489 355.501 45.5489 355.741C45.2489 355.981 45.0329 356.299 44.9009 356.695C44.7569 357.031 44.6849 357.559 44.6849 358.279C44.6849 359.023 44.7449 359.545 44.8649 359.845C44.9849 360.229 45.2009 360.547 45.5129 360.799C45.8369 361.039 46.2209 361.159 46.6649 361.159C47.1329 361.159 47.5109 361.039 47.7989 360.799C48.0869 360.559 48.2789 360.247 48.3749 359.863ZM60.2194 353.581C60.9754 353.581 61.6414 353.713 62.2174 353.977C62.7934 354.241 63.2374 354.607 63.5494 355.075C63.8614 355.531 64.0174 356.053 64.0174 356.641V362.707C64.0174 362.767 63.9934 362.821 63.9454 362.869C63.9094 362.905 63.8614 362.923 63.8014 362.923H62.1454C62.0854 362.923 62.0314 362.905 61.9834 362.869C61.9474 362.821 61.9294 362.767 61.9294 362.707V362.131C61.9294 362.095 61.9174 362.077 61.8934 362.077C61.8694 362.065 61.8454 362.071 61.8214 362.095C61.2334 362.743 60.3814 363.067 59.2654 363.067C58.3654 363.067 57.6214 362.839 57.0334 362.383C56.4574 361.927 56.1694 361.249 56.1694 360.349C56.1694 359.413 56.4934 358.687 57.1414 358.171C57.8014 357.643 58.7254 357.379 59.9134 357.379H61.8394C61.8994 357.379 61.9294 357.349 61.9294 357.289V356.857C61.9294 356.389 61.7914 356.029 61.5154 355.777C61.2394 355.513 60.8254 355.381 60.2734 355.381C59.8174 355.381 59.4454 355.465 59.1574 355.633C58.8814 355.789 58.7074 356.011 58.6354 356.299C58.5994 356.443 58.5154 356.503 58.3834 356.479L56.6374 356.263C56.5774 356.251 56.5234 356.233 56.4754 356.209C56.4394 356.173 56.4274 356.131 56.4394 356.083C56.5354 355.351 56.9254 354.751 57.6094 354.283C58.3054 353.815 59.1754 353.581 60.2194 353.581ZM59.7874 361.411C60.3754 361.411 60.8794 361.255 61.2994 360.943C61.7194 360.631 61.9294 360.235 61.9294 359.755V358.909C61.9294 358.849 61.8994 358.819 61.8394 358.819H60.3274C59.6914 358.819 59.1874 358.939 58.8154 359.179C58.4554 359.419 58.2754 359.761 58.2754 360.205C58.2754 360.589 58.4134 360.889 58.6894 361.105C58.9774 361.309 59.3434 361.411 59.7874 361.411ZM70.7037 353.581C71.6757 353.581 72.4497 353.869 73.0257 354.445C73.6137 355.021 73.9077 355.807 73.9077 356.803V362.707C73.9077 362.767 73.8837 362.821 73.8357 362.869C73.7997 362.905 73.7517 362.923 73.6917 362.923H72.0357C71.9757 362.923 71.9217 362.905 71.8737 362.869C71.8377 362.821 71.8197 362.767 71.8197 362.707V357.235C71.8197 356.683 71.6637 356.239 71.3517 355.903C71.0397 355.555 70.6257 355.381 70.1097 355.381C69.5937 355.381 69.1737 355.549 68.8497 355.885C68.5377 356.221 68.3817 356.665 68.3817 357.217V362.707C68.3817 362.767 68.3577 362.821 68.3097 362.869C68.2737 362.905 68.2257 362.923 68.1657 362.923H66.5097C66.4497 362.923 66.3957 362.905 66.3477 362.869C66.3117 362.821 66.2937 362.767 66.2937 362.707V353.941C66.2937 353.881 66.3117 353.833 66.3477 353.797C66.3957 353.749 66.4497 353.725 66.5097 353.725H68.1657C68.2257 353.725 68.2737 353.749 68.3097 353.797C68.3577 353.833 68.3817 353.881 68.3817 353.941V354.517C68.3817 354.553 68.3937 354.577 68.4177 354.589C68.4417 354.601 68.4597 354.589 68.4717 354.553C68.9637 353.905 69.7077 353.581 70.7037 353.581ZM81.9004 350.539C81.9004 350.479 81.9184 350.431 81.9544 350.395C82.0024 350.347 82.0564 350.323 82.1164 350.323H83.7724C83.8324 350.323 83.8804 350.347 83.9164 350.395C83.9644 350.431 83.9884 350.479 83.9884 350.539V362.707C83.9884 362.767 83.9644 362.821 83.9164 362.869C83.8804 362.905 83.8324 362.923 83.7724 362.923H82.1164C82.0564 362.923 82.0024 362.905 81.9544 362.869C81.9184 362.821 81.9004 362.767 81.9004 362.707V362.167C81.9004 362.131 81.8884 362.107 81.8644 362.095C81.8404 362.083 81.8164 362.095 81.7924 362.131C81.2644 362.755 80.5744 363.067 79.7224 363.067C78.8704 363.067 78.1504 362.845 77.5624 362.401C76.9744 361.957 76.5484 361.339 76.2844 360.547C76.0684 359.875 75.9604 359.125 75.9604 358.297C75.9604 357.445 76.0624 356.713 76.2664 356.101C76.5304 355.309 76.9564 354.691 77.5444 354.247C78.1324 353.803 78.8704 353.581 79.7584 353.581C80.5864 353.581 81.2644 353.881 81.7924 354.481C81.8164 354.505 81.8404 354.517 81.8644 354.517C81.8884 354.505 81.9004 354.481 81.9004 354.445V350.539ZM81.4684 360.403C81.7444 359.911 81.8824 359.215 81.8824 358.315C81.8824 357.379 81.7324 356.665 81.4324 356.173C81.1084 355.645 80.6524 355.381 80.0644 355.381C79.4524 355.381 78.9724 355.633 78.6244 356.137C78.2644 356.665 78.0844 357.397 78.0844 358.333C78.0844 359.173 78.2284 359.863 78.5164 360.403C78.8524 360.979 79.3624 361.267 80.0464 361.267C80.6584 361.267 81.1324 360.979 81.4684 360.403ZM95.9186 350.539C95.9186 350.479 95.9366 350.431 95.9726 350.395C96.0206 350.347 96.0746 350.323 96.1346 350.323H97.7906C97.8506 350.323 97.8986 350.347 97.9346 350.395C97.9826 350.431 98.0066 350.479 98.0066 350.539V362.707C98.0066 362.767 97.9826 362.821 97.9346 362.869C97.8986 362.905 97.8506 362.923 97.7906 362.923H96.1346C96.0746 362.923 96.0206 362.905 95.9726 362.869C95.9366 362.821 95.9186 362.767 95.9186 362.707V362.167C95.9186 362.131 95.9066 362.107 95.8826 362.095C95.8586 362.083 95.8346 362.095 95.8106 362.131C95.2826 362.755 94.5926 363.067 93.7406 363.067C92.8886 363.067 92.1686 362.845 91.5806 362.401C90.9926 361.957 90.5666 361.339 90.3026 360.547C90.0866 359.875 89.9786 359.125 89.9786 358.297C89.9786 357.445 90.0806 356.713 90.2846 356.101C90.5486 355.309 90.9746 354.691 91.5626 354.247C92.1506 353.803 92.8886 353.581 93.7766 353.581C94.6046 353.581 95.2826 353.881 95.8106 354.481C95.8346 354.505 95.8586 354.517 95.8826 354.517C95.9066 354.505 95.9186 354.481 95.9186 354.445V350.539ZM95.4866 360.403C95.7626 359.911 95.9006 359.215 95.9006 358.315C95.9006 357.379 95.7506 356.665 95.4506 356.173C95.1266 355.645 94.6706 355.381 94.0826 355.381C93.4706 355.381 92.9906 355.633 92.6426 356.137C92.2826 356.665 92.1026 357.397 92.1026 358.333C92.1026 359.173 92.2466 359.863 92.5346 360.403C92.8706 360.979 93.3806 361.267 94.0646 361.267C94.6766 361.267 95.1506 360.979 95.4866 360.403ZM104.731 353.617C105.115 353.617 105.451 353.695 105.739 353.851C105.835 353.899 105.871 353.989 105.847 354.121L105.541 355.741C105.529 355.885 105.445 355.927 105.289 355.867C105.109 355.807 104.899 355.777 104.659 355.777C104.503 355.777 104.383 355.783 104.299 355.795C103.795 355.819 103.375 355.999 103.039 356.335C102.703 356.659 102.535 357.085 102.535 357.613V362.707C102.535 362.767 102.511 362.821 102.463 362.869C102.427 362.905 102.379 362.923 102.319 362.923H100.663C100.603 362.923 100.549 362.905 100.501 362.869C100.465 362.821 100.447 362.767 100.447 362.707V353.941C100.447 353.881 100.465 353.833 100.501 353.797C100.549 353.749 100.603 353.725 100.663 353.725H102.319C102.379 353.725 102.427 353.749 102.463 353.797C102.511 353.833 102.535 353.881 102.535 353.941V354.751C102.535 354.799 102.541 354.829 102.553 354.841C102.577 354.841 102.601 354.823 102.625 354.787C103.129 354.007 103.831 353.617 104.731 353.617ZM111.125 363.067C110.177 363.067 109.361 362.827 108.677 362.347C108.005 361.867 107.531 361.201 107.255 360.349C107.051 359.701 106.949 359.017 106.949 358.297C106.949 357.529 107.045 356.845 107.237 356.245C107.513 355.405 107.993 354.751 108.677 354.283C109.361 353.815 110.183 353.581 111.143 353.581C112.055 353.581 112.841 353.815 113.501 354.283C114.173 354.751 114.647 355.399 114.923 356.227C115.139 356.803 115.247 357.487 115.247 358.279C115.247 359.035 115.145 359.719 114.941 360.331C114.665 361.183 114.191 361.855 113.519 362.347C112.847 362.827 112.049 363.067 111.125 363.067ZM111.125 361.267C111.569 361.267 111.947 361.141 112.259 360.889C112.583 360.637 112.817 360.283 112.961 359.827C113.081 359.431 113.141 358.927 113.141 358.315C113.141 357.667 113.081 357.163 112.961 356.803C112.829 356.347 112.601 355.999 112.277 355.759C111.953 355.507 111.557 355.381 111.089 355.381C110.645 355.381 110.261 355.507 109.937 355.759C109.613 355.999 109.379 356.347 109.235 356.803C109.115 357.223 109.055 357.727 109.055 358.315C109.055 358.903 109.115 359.407 109.235 359.827C109.367 360.283 109.595 360.637 109.919 360.889C110.255 361.141 110.657 361.267 111.125 361.267ZM125.195 356.101C125.411 356.713 125.519 357.463 125.519 358.351C125.519 359.203 125.417 359.935 125.213 360.547C124.949 361.339 124.523 361.957 123.935 362.401C123.359 362.845 122.627 363.067 121.739 363.067C120.887 363.067 120.203 362.761 119.687 362.149C119.663 362.125 119.639 362.119 119.615 362.131C119.591 362.143 119.579 362.167 119.579 362.203V366.109C119.579 366.169 119.555 366.217 119.507 366.253C119.471 366.301 119.423 366.325 119.363 366.325H117.707C117.647 366.325 117.593 366.301 117.545 366.253C117.509 366.217 117.491 366.169 117.491 366.109V353.941C117.491 353.881 117.509 353.833 117.545 353.797C117.593 353.749 117.647 353.725 117.707 353.725H119.363C119.423 353.725 119.471 353.749 119.507 353.797C119.555 353.833 119.579 353.881 119.579 353.941V354.481C119.579 354.517 119.591 354.541 119.615 354.553C119.639 354.565 119.663 354.553 119.687 354.517C120.215 353.893 120.905 353.581 121.757 353.581C122.609 353.581 123.329 353.803 123.917 354.247C124.505 354.691 124.931 355.309 125.195 356.101ZM122.855 360.511C123.215 359.959 123.395 359.227 123.395 358.315C123.395 357.439 123.251 356.749 122.963 356.245C122.627 355.657 122.117 355.363 121.433 355.363C120.809 355.363 120.341 355.651 120.029 356.227C119.753 356.695 119.615 357.391 119.615 358.315C119.615 359.263 119.765 359.983 120.065 360.475C120.377 361.003 120.827 361.267 121.415 361.267C122.051 361.267 122.531 361.015 122.855 360.511ZM136.295 353.707C136.355 353.707 136.403 353.731 136.439 353.779C136.487 353.815 136.511 353.863 136.511 353.923V355.345C136.511 355.405 136.487 355.459 136.439 355.507C136.403 355.543 136.355 355.561 136.295 355.561H134.513C134.453 355.561 134.423 355.591 134.423 355.651V362.707C134.423 362.767 134.399 362.821 134.351 362.869C134.315 362.905 134.267 362.923 134.207 362.923H132.551C132.491 362.923 132.437 362.905 132.389 362.869C132.353 362.821 132.335 362.767 132.335 362.707V355.651C132.335 355.591 132.305 355.561 132.245 355.561H131.129C131.069 355.561 131.015 355.543 130.967 355.507C130.931 355.459 130.913 355.405 130.913 355.345V353.923C130.913 353.863 130.931 353.815 130.967 353.779C131.015 353.731 131.069 353.707 131.129 353.707H132.245C132.305 353.707 132.335 353.677 132.335 353.617V353.293C132.335 352.513 132.437 351.913 132.641 351.493C132.845 351.061 133.181 350.755 133.649 350.575C134.117 350.395 134.777 350.311 135.629 350.323H136.259C136.319 350.323 136.367 350.347 136.403 350.395C136.451 350.431 136.475 350.479 136.475 350.539V351.799C136.475 351.859 136.451 351.913 136.403 351.961C136.367 351.997 136.319 352.015 136.259 352.015H135.791C135.275 352.015 134.915 352.117 134.711 352.321C134.519 352.525 134.423 352.897 134.423 353.437V353.617C134.423 353.677 134.453 353.707 134.513 353.707H136.295ZM139.463 352.465C139.091 352.465 138.785 352.345 138.545 352.105C138.305 351.865 138.185 351.559 138.185 351.187C138.185 350.815 138.305 350.509 138.545 350.269C138.785 350.029 139.091 349.909 139.463 349.909C139.835 349.909 140.141 350.029 140.381 350.269C140.621 350.509 140.741 350.815 140.741 351.187C140.741 351.559 140.621 351.865 140.381 352.105C140.141 352.345 139.835 352.465 139.463 352.465ZM138.599 362.923C138.539 362.923 138.485 362.905 138.437 362.869C138.401 362.821 138.383 362.767 138.383 362.707V353.923C138.383 353.863 138.401 353.815 138.437 353.779C138.485 353.731 138.539 353.707 138.599 353.707H140.255C140.315 353.707 140.363 353.731 140.399 353.779C140.447 353.815 140.471 353.863 140.471 353.923V362.707C140.471 362.767 140.447 362.821 140.399 362.869C140.363 362.905 140.315 362.923 140.255 362.923H138.599ZM143.259 362.923C143.199 362.923 143.145 362.905 143.097 362.869C143.061 362.821 143.043 362.767 143.043 362.707V350.539C143.043 350.479 143.061 350.431 143.097 350.395C143.145 350.347 143.199 350.323 143.259 350.323H144.915C144.975 350.323 145.023 350.347 145.059 350.395C145.107 350.431 145.131 350.479 145.131 350.539V362.707C145.131 362.767 145.107 362.821 145.059 362.869C145.023 362.905 144.975 362.923 144.915 362.923H143.259ZM155.287 357.289C155.335 357.589 155.359 357.925 155.359 358.297L155.341 358.855C155.341 358.999 155.269 359.071 155.125 359.071H149.491C149.431 359.071 149.401 359.101 149.401 359.161C149.437 359.557 149.491 359.827 149.563 359.971C149.851 360.835 150.553 361.273 151.669 361.285C152.485 361.285 153.133 360.949 153.613 360.277C153.661 360.205 153.721 360.169 153.793 360.169C153.841 360.169 153.883 360.187 153.919 360.223L155.035 361.141C155.143 361.225 155.161 361.321 155.089 361.429C154.717 361.957 154.219 362.365 153.595 362.653C152.983 362.941 152.299 363.085 151.543 363.085C150.607 363.085 149.809 362.875 149.149 362.455C148.501 362.035 148.027 361.447 147.727 360.691C147.451 360.043 147.313 359.143 147.313 357.991C147.313 357.295 147.385 356.731 147.529 356.299C147.769 355.459 148.219 354.799 148.879 354.319C149.551 353.827 150.355 353.581 151.291 353.581C153.655 353.581 154.987 354.817 155.287 357.289ZM151.291 355.381C150.847 355.381 150.475 355.495 150.175 355.723C149.887 355.939 149.683 356.245 149.563 356.641C149.491 356.845 149.443 357.109 149.419 357.433C149.395 357.493 149.419 357.523 149.491 357.523H153.145C153.205 357.523 153.235 357.493 153.235 357.433C153.211 357.133 153.175 356.905 153.127 356.749C153.019 356.317 152.803 355.981 152.479 355.741C152.167 355.501 151.771 355.381 151.291 355.381ZM160.727 363.031C159.971 363.031 159.305 362.923 158.729 362.707C158.165 362.479 157.727 362.173 157.415 361.789C157.103 361.393 156.947 360.955 156.947 360.475V360.313C156.947 360.253 156.965 360.205 157.001 360.169C157.049 360.121 157.103 360.097 157.163 360.097H158.747C158.807 360.097 158.855 360.121 158.891 360.169C158.939 360.205 158.963 360.253 158.963 360.313V360.349C158.963 360.649 159.125 360.913 159.449 361.141C159.785 361.357 160.205 361.465 160.709 361.465C161.189 361.465 161.579 361.369 161.879 361.177C162.179 360.973 162.329 360.721 162.329 360.421C162.329 360.145 162.203 359.941 161.951 359.809C161.711 359.665 161.315 359.515 160.763 359.359L160.079 359.143C159.467 358.963 158.951 358.771 158.531 358.567C158.111 358.363 157.757 358.087 157.469 357.739C157.181 357.379 157.037 356.923 157.037 356.371C157.037 355.531 157.367 354.865 158.027 354.373C158.687 353.869 159.557 353.617 160.637 353.617C161.369 353.617 162.011 353.737 162.563 353.977C163.115 354.205 163.541 354.529 163.841 354.949C164.141 355.357 164.291 355.825 164.291 356.353C164.291 356.413 164.267 356.467 164.219 356.515C164.183 356.551 164.135 356.569 164.075 356.569H162.545C162.485 356.569 162.431 356.551 162.383 356.515C162.347 356.467 162.329 356.413 162.329 356.353C162.329 356.041 162.173 355.783 161.861 355.579C161.561 355.363 161.147 355.255 160.619 355.255C160.151 355.255 159.767 355.345 159.467 355.525C159.179 355.693 159.035 355.933 159.035 356.245C159.035 356.533 159.173 356.755 159.449 356.911C159.737 357.055 160.211 357.217 160.871 357.397L161.267 357.505C161.903 357.697 162.437 357.895 162.869 358.099C163.301 358.291 163.667 358.567 163.967 358.927C164.267 359.275 164.417 359.731 164.417 360.295C164.417 361.147 164.081 361.819 163.409 362.311C162.737 362.791 161.843 363.031 160.727 363.031ZM174.557 353.581C175.529 353.581 176.303 353.869 176.879 354.445C177.467 355.021 177.761 355.807 177.761 356.803V362.707C177.761 362.767 177.737 362.821 177.689 362.869C177.653 362.905 177.605 362.923 177.545 362.923H175.889C175.829 362.923 175.775 362.905 175.727 362.869C175.691 362.821 175.673 362.767 175.673 362.707V357.235C175.673 356.683 175.517 356.239 175.205 355.903C174.893 355.555 174.479 355.381 173.963 355.381C173.447 355.381 173.027 355.549 172.703 355.885C172.391 356.221 172.235 356.665 172.235 357.217V362.707C172.235 362.767 172.211 362.821 172.163 362.869C172.127 362.905 172.079 362.923 172.019 362.923H170.363C170.303 362.923 170.249 362.905 170.201 362.869C170.165 362.821 170.147 362.767 170.147 362.707V350.539C170.147 350.479 170.165 350.431 170.201 350.395C170.249 350.347 170.303 350.323 170.363 350.323H172.019C172.079 350.323 172.127 350.347 172.163 350.395C172.211 350.431 172.235 350.479 172.235 350.539V354.517C172.235 354.553 172.247 354.577 172.271 354.589C172.295 354.601 172.313 354.589 172.325 354.553C172.817 353.905 173.561 353.581 174.557 353.581ZM187.806 357.289C187.854 357.589 187.878 357.925 187.878 358.297L187.86 358.855C187.86 358.999 187.788 359.071 187.644 359.071H182.01C181.95 359.071 181.92 359.101 181.92 359.161C181.956 359.557 182.01 359.827 182.082 359.971C182.37 360.835 183.072 361.273 184.188 361.285C185.004 361.285 185.652 360.949 186.132 360.277C186.18 360.205 186.24 360.169 186.312 360.169C186.36 360.169 186.402 360.187 186.438 360.223L187.554 361.141C187.662 361.225 187.68 361.321 187.608 361.429C187.236 361.957 186.738 362.365 186.114 362.653C185.502 362.941 184.818 363.085 184.062 363.085C183.126 363.085 182.328 362.875 181.668 362.455C181.02 362.035 180.546 361.447 180.246 360.691C179.97 360.043 179.832 359.143 179.832 357.991C179.832 357.295 179.904 356.731 180.048 356.299C180.288 355.459 180.738 354.799 181.398 354.319C182.07 353.827 182.874 353.581 183.81 353.581C186.174 353.581 187.506 354.817 187.806 357.289ZM183.81 355.381C183.366 355.381 182.994 355.495 182.694 355.723C182.406 355.939 182.202 356.245 182.082 356.641C182.01 356.845 181.962 357.109 181.938 357.433C181.914 357.493 181.938 357.523 182.01 357.523H185.664C185.724 357.523 185.754 357.493 185.754 357.433C185.73 357.133 185.694 356.905 185.646 356.749C185.538 356.317 185.322 355.981 184.998 355.741C184.686 355.501 184.29 355.381 183.81 355.381ZM194.25 353.617C194.634 353.617 194.97 353.695 195.258 353.851C195.354 353.899 195.39 353.989 195.366 354.121L195.06 355.741C195.048 355.885 194.964 355.927 194.808 355.867C194.628 355.807 194.418 355.777 194.178 355.777C194.022 355.777 193.902 355.783 193.818 355.795C193.314 355.819 192.894 355.999 192.558 356.335C192.222 356.659 192.054 357.085 192.054 357.613V362.707C192.054 362.767 192.03 362.821 191.982 362.869C191.946 362.905 191.898 362.923 191.838 362.923H190.182C190.122 362.923 190.068 362.905 190.02 362.869C189.984 362.821 189.966 362.767 189.966 362.707V353.941C189.966 353.881 189.984 353.833 190.02 353.797C190.068 353.749 190.122 353.725 190.182 353.725H191.838C191.898 353.725 191.946 353.749 191.982 353.797C192.03 353.833 192.054 353.881 192.054 353.941V354.751C192.054 354.799 192.06 354.829 192.072 354.841C192.096 354.841 192.12 354.823 192.144 354.787C192.648 354.007 193.35 353.617 194.25 353.617ZM204.496 357.289C204.544 357.589 204.568 357.925 204.568 358.297L204.55 358.855C204.55 358.999 204.478 359.071 204.334 359.071H198.7C198.64 359.071 198.61 359.101 198.61 359.161C198.646 359.557 198.7 359.827 198.772 359.971C199.06 360.835 199.762 361.273 200.878 361.285C201.694 361.285 202.342 360.949 202.822 360.277C202.87 360.205 202.93 360.169 203.002 360.169C203.05 360.169 203.092 360.187 203.128 360.223L204.244 361.141C204.352 361.225 204.37 361.321 204.298 361.429C203.926 361.957 203.428 362.365 202.804 362.653C202.192 362.941 201.508 363.085 200.752 363.085C199.816 363.085 199.018 362.875 198.358 362.455C197.71 362.035 197.236 361.447 196.936 360.691C196.66 360.043 196.522 359.143 196.522 357.991C196.522 357.295 196.594 356.731 196.738 356.299C196.978 355.459 197.428 354.799 198.088 354.319C198.76 353.827 199.564 353.581 200.5 353.581C202.864 353.581 204.196 354.817 204.496 357.289ZM200.5 355.381C200.056 355.381 199.684 355.495 199.384 355.723C199.096 355.939 198.892 356.245 198.772 356.641C198.7 356.845 198.652 357.109 198.628 357.433C198.604 357.493 198.628 357.523 198.7 357.523H202.354C202.414 357.523 202.444 357.493 202.444 357.433C202.42 357.133 202.384 356.905 202.336 356.749C202.228 356.317 202.012 355.981 201.688 355.741C201.376 355.501 200.98 355.381 200.5 355.381ZM215.318 355.201C215.318 355.261 215.294 355.315 215.246 355.363C215.21 355.399 215.162 355.417 215.102 355.417H213.266C213.206 355.417 213.176 355.447 213.176 355.507V359.845C213.176 360.301 213.272 360.631 213.464 360.835C213.668 361.039 213.986 361.141 214.418 361.141H214.958C215.018 361.141 215.066 361.165 215.102 361.213C215.15 361.249 215.174 361.297 215.174 361.357V362.707C215.174 362.839 215.102 362.917 214.958 362.941L214.022 362.959C213.074 362.959 212.366 362.797 211.898 362.473C211.43 362.149 211.19 361.537 211.178 360.637V355.507C211.178 355.447 211.148 355.417 211.088 355.417H210.062C210.002 355.417 209.948 355.399 209.9 355.363C209.864 355.315 209.846 355.261 209.846 355.201V353.941C209.846 353.881 209.864 353.833 209.9 353.797C209.948 353.749 210.002 353.725 210.062 353.725H211.088C211.148 353.725 211.178 353.695 211.178 353.635V351.529C211.178 351.469 211.196 351.421 211.232 351.385C211.28 351.337 211.334 351.313 211.394 351.313H212.96C213.02 351.313 213.068 351.337 213.104 351.385C213.152 351.421 213.176 351.469 213.176 351.529V353.635C213.176 353.695 213.206 353.725 213.266 353.725H215.102C215.162 353.725 215.21 353.749 215.246 353.797C215.294 353.833 215.318 353.881 215.318 353.941V355.201ZM221.083 363.067C220.135 363.067 219.319 362.827 218.635 362.347C217.963 361.867 217.489 361.201 217.213 360.349C217.009 359.701 216.907 359.017 216.907 358.297C216.907 357.529 217.003 356.845 217.195 356.245C217.471 355.405 217.951 354.751 218.635 354.283C219.319 353.815 220.141 353.581 221.101 353.581C222.013 353.581 222.799 353.815 223.459 354.283C224.131 354.751 224.605 355.399 224.881 356.227C225.097 356.803 225.205 357.487 225.205 358.279C225.205 359.035 225.103 359.719 224.899 360.331C224.623 361.183 224.149 361.855 223.477 362.347C222.805 362.827 222.007 363.067 221.083 363.067ZM221.083 361.267C221.527 361.267 221.905 361.141 222.217 360.889C222.541 360.637 222.775 360.283 222.919 359.827C223.039 359.431 223.099 358.927 223.099 358.315C223.099 357.667 223.039 357.163 222.919 356.803C222.787 356.347 222.559 355.999 222.235 355.759C221.911 355.507 221.515 355.381 221.047 355.381C220.603 355.381 220.219 355.507 219.895 355.759C219.571 355.999 219.337 356.347 219.193 356.803C219.073 357.223 219.013 357.727 219.013 358.315C219.013 358.903 219.073 359.407 219.193 359.827C219.325 360.283 219.553 360.637 219.877 360.889C220.213 361.141 220.615 361.267 221.083 361.267ZM234.652 353.581C235.408 353.581 236.074 353.713 236.65 353.977C237.226 354.241 237.67 354.607 237.982 355.075C238.294 355.531 238.45 356.053 238.45 356.641V362.707C238.45 362.767 238.426 362.821 238.378 362.869C238.342 362.905 238.294 362.923 238.234 362.923H236.578C236.518 362.923 236.464 362.905 236.416 362.869C236.38 362.821 236.362 362.767 236.362 362.707V362.131C236.362 362.095 236.35 362.077 236.326 362.077C236.302 362.065 236.278 362.071 236.254 362.095C235.666 362.743 234.814 363.067 233.698 363.067C232.798 363.067 232.054 362.839 231.466 362.383C230.89 361.927 230.602 361.249 230.602 360.349C230.602 359.413 230.926 358.687 231.574 358.171C232.234 357.643 233.158 357.379 234.346 357.379H236.272C236.332 357.379 236.362 357.349 236.362 357.289V356.857C236.362 356.389 236.224 356.029 235.948 355.777C235.672 355.513 235.258 355.381 234.706 355.381C234.25 355.381 233.878 355.465 233.59 355.633C233.314 355.789 233.14 356.011 233.068 356.299C233.032 356.443 232.948 356.503 232.816 356.479L231.07 356.263C231.01 356.251 230.956 356.233 230.908 356.209C230.872 356.173 230.86 356.131 230.872 356.083C230.968 355.351 231.358 354.751 232.042 354.283C232.738 353.815 233.608 353.581 234.652 353.581ZM234.22 361.411C234.808 361.411 235.312 361.255 235.732 360.943C236.152 360.631 236.362 360.235 236.362 359.755V358.909C236.362 358.849 236.332 358.819 236.272 358.819H234.76C234.124 358.819 233.62 358.939 233.248 359.179C232.888 359.419 232.708 359.761 232.708 360.205C232.708 360.589 232.846 360.889 233.122 361.105C233.41 361.309 233.776 361.411 234.22 361.411ZM246.432 350.539C246.432 350.479 246.45 350.431 246.486 350.395C246.534 350.347 246.588 350.323 246.648 350.323H248.304C248.364 350.323 248.412 350.347 248.448 350.395C248.496 350.431 248.52 350.479 248.52 350.539V362.707C248.52 362.767 248.496 362.821 248.448 362.869C248.412 362.905 248.364 362.923 248.304 362.923H246.648C246.588 362.923 246.534 362.905 246.486 362.869C246.45 362.821 246.432 362.767 246.432 362.707V362.167C246.432 362.131 246.42 362.107 246.396 362.095C246.372 362.083 246.348 362.095 246.324 362.131C245.796 362.755 245.106 363.067 244.254 363.067C243.402 363.067 242.682 362.845 242.094 362.401C241.506 361.957 241.08 361.339 240.816 360.547C240.6 359.875 240.492 359.125 240.492 358.297C240.492 357.445 240.594 356.713 240.798 356.101C241.062 355.309 241.488 354.691 242.076 354.247C242.664 353.803 243.402 353.581 244.29 353.581C245.118 353.581 245.796 353.881 246.324 354.481C246.348 354.505 246.372 354.517 246.396 354.517C246.42 354.505 246.432 354.481 246.432 354.445V350.539ZM246 360.403C246.276 359.911 246.414 359.215 246.414 358.315C246.414 357.379 246.264 356.665 245.964 356.173C245.64 355.645 245.184 355.381 244.596 355.381C243.984 355.381 243.504 355.633 243.156 356.137C242.796 356.665 242.616 357.397 242.616 358.333C242.616 359.173 242.76 359.863 243.048 360.403C243.384 360.979 243.894 361.267 244.578 361.267C245.19 361.267 245.664 360.979 246 360.403ZM256.667 350.539C256.667 350.479 256.685 350.431 256.721 350.395C256.769 350.347 256.823 350.323 256.883 350.323H258.539C258.599 350.323 258.647 350.347 258.683 350.395C258.731 350.431 258.755 350.479 258.755 350.539V362.707C258.755 362.767 258.731 362.821 258.683 362.869C258.647 362.905 258.599 362.923 258.539 362.923H256.883C256.823 362.923 256.769 362.905 256.721 362.869C256.685 362.821 256.667 362.767 256.667 362.707V362.167C256.667 362.131 256.655 362.107 256.631 362.095C256.607 362.083 256.583 362.095 256.559 362.131C256.031 362.755 255.341 363.067 254.489 363.067C253.637 363.067 252.917 362.845 252.329 362.401C251.741 361.957 251.315 361.339 251.051 360.547C250.835 359.875 250.727 359.125 250.727 358.297C250.727 357.445 250.829 356.713 251.033 356.101C251.297 355.309 251.723 354.691 252.311 354.247C252.899 353.803 253.637 353.581 254.525 353.581C255.353 353.581 256.031 353.881 256.559 354.481C256.583 354.505 256.607 354.517 256.631 354.517C256.655 354.505 256.667 354.481 256.667 354.445V350.539ZM256.235 360.403C256.511 359.911 256.649 359.215 256.649 358.315C256.649 357.379 256.499 356.665 256.199 356.173C255.875 355.645 255.419 355.381 254.831 355.381C254.219 355.381 253.739 355.633 253.391 356.137C253.031 356.665 252.851 357.397 252.851 358.333C252.851 359.173 252.995 359.863 253.283 360.403C253.619 360.979 254.129 361.267 254.813 361.267C255.425 361.267 255.899 360.979 256.235 360.403ZM269.857 355.201C269.857 355.261 269.833 355.315 269.785 355.363C269.749 355.399 269.701 355.417 269.641 355.417H267.805C267.745 355.417 267.715 355.447 267.715 355.507V359.845C267.715 360.301 267.811 360.631 268.003 360.835C268.207 361.039 268.525 361.141 268.957 361.141H269.497C269.557 361.141 269.605 361.165 269.641 361.213C269.689 361.249 269.713 361.297 269.713 361.357V362.707C269.713 362.839 269.641 362.917 269.497 362.941L268.561 362.959C267.613 362.959 266.905 362.797 266.437 362.473C265.969 362.149 265.729 361.537 265.717 360.637V355.507C265.717 355.447 265.687 355.417 265.627 355.417H264.601C264.541 355.417 264.487 355.399 264.439 355.363C264.403 355.315 264.385 355.261 264.385 355.201V353.941C264.385 353.881 264.403 353.833 264.439 353.797C264.487 353.749 264.541 353.725 264.601 353.725H265.627C265.687 353.725 265.717 353.695 265.717 353.635V351.529C265.717 351.469 265.735 351.421 265.771 351.385C265.819 351.337 265.873 351.313 265.933 351.313H267.499C267.559 351.313 267.607 351.337 267.643 351.385C267.691 351.421 267.715 351.469 267.715 351.529V353.635C267.715 353.695 267.745 353.725 267.805 353.725H269.641C269.701 353.725 269.749 353.749 269.785 353.797C269.833 353.833 269.857 353.881 269.857 353.941V355.201ZM276.302 353.581C277.274 353.581 278.048 353.869 278.624 354.445C279.212 355.021 279.506 355.807 279.506 356.803V362.707C279.506 362.767 279.482 362.821 279.434 362.869C279.398 362.905 279.35 362.923 279.29 362.923H277.634C277.574 362.923 277.52 362.905 277.472 362.869C277.436 362.821 277.418 362.767 277.418 362.707V357.235C277.418 356.683 277.262 356.239 276.95 355.903C276.638 355.555 276.224 355.381 275.708 355.381C275.192 355.381 274.772 355.549 274.448 355.885C274.136 356.221 273.98 356.665 273.98 357.217V362.707C273.98 362.767 273.956 362.821 273.908 362.869C273.872 362.905 273.824 362.923 273.764 362.923H272.108C272.048 362.923 271.994 362.905 271.946 362.869C271.91 362.821 271.892 362.767 271.892 362.707V350.539C271.892 350.479 271.91 350.431 271.946 350.395C271.994 350.347 272.048 350.323 272.108 350.323H273.764C273.824 350.323 273.872 350.347 273.908 350.395C273.956 350.431 273.98 350.479 273.98 350.539V354.517C273.98 354.553 273.992 354.577 274.016 354.589C274.04 354.601 274.058 354.589 274.07 354.553C274.562 353.905 275.306 353.581 276.302 353.581ZM289.55 357.289C289.598 357.589 289.622 357.925 289.622 358.297L289.604 358.855C289.604 358.999 289.532 359.071 289.388 359.071H283.754C283.694 359.071 283.664 359.101 283.664 359.161C283.7 359.557 283.754 359.827 283.826 359.971C284.114 360.835 284.816 361.273 285.932 361.285C286.748 361.285 287.396 360.949 287.876 360.277C287.924 360.205 287.984 360.169 288.056 360.169C288.104 360.169 288.146 360.187 288.182 360.223L289.298 361.141C289.406 361.225 289.424 361.321 289.352 361.429C288.98 361.957 288.482 362.365 287.858 362.653C287.246 362.941 286.562 363.085 285.806 363.085C284.87 363.085 284.072 362.875 283.412 362.455C282.764 362.035 282.29 361.447 281.99 360.691C281.714 360.043 281.576 359.143 281.576 357.991C281.576 357.295 281.648 356.731 281.792 356.299C282.032 355.459 282.482 354.799 283.142 354.319C283.814 353.827 284.618 353.581 285.554 353.581C287.918 353.581 289.25 354.817 289.55 357.289ZM285.554 355.381C285.11 355.381 284.738 355.495 284.438 355.723C284.15 355.939 283.946 356.245 283.826 356.641C283.754 356.845 283.706 357.109 283.682 357.433C283.658 357.493 283.682 357.523 283.754 357.523H287.408C287.468 357.523 287.498 357.493 287.498 357.433C287.474 357.133 287.438 356.905 287.39 356.749C287.282 356.317 287.066 355.981 286.742 355.741C286.43 355.501 286.034 355.381 285.554 355.381ZM301.557 353.581C302.481 353.581 303.201 353.863 303.717 354.427C304.245 354.979 304.509 355.753 304.509 356.749V362.707C304.509 362.767 304.485 362.821 304.437 362.869C304.401 362.905 304.353 362.923 304.293 362.923H302.655C302.595 362.923 302.541 362.905 302.493 362.869C302.457 362.821 302.439 362.767 302.439 362.707V357.181C302.439 356.629 302.289 356.191 301.989 355.867C301.701 355.543 301.311 355.381 300.819 355.381C300.327 355.381 299.925 355.543 299.613 355.867C299.301 356.191 299.145 356.623 299.145 357.163V362.707C299.145 362.767 299.121 362.821 299.073 362.869C299.037 362.905 298.989 362.923 298.929 362.923H297.291C297.231 362.923 297.177 362.905 297.129 362.869C297.093 362.821 297.075 362.767 297.075 362.707V357.181C297.075 356.629 296.925 356.191 296.625 355.867C296.325 355.543 295.929 355.381 295.437 355.381C294.981 355.381 294.603 355.513 294.303 355.777C294.015 356.041 293.847 356.401 293.799 356.857V362.707C293.799 362.767 293.775 362.821 293.727 362.869C293.691 362.905 293.643 362.923 293.583 362.923H291.927C291.867 362.923 291.813 362.905 291.765 362.869C291.729 362.821 291.711 362.767 291.711 362.707V353.941C291.711 353.881 291.729 353.833 291.765 353.797C291.813 353.749 291.867 353.725 291.927 353.725H293.583C293.643 353.725 293.691 353.749 293.727 353.797C293.775 353.833 293.799 353.881 293.799 353.941V354.535C293.799 354.571 293.811 354.595 293.835 354.607C293.859 354.619 293.883 354.607 293.907 354.571C294.171 354.235 294.495 353.989 294.879 353.833C295.275 353.665 295.713 353.581 296.193 353.581C296.781 353.581 297.297 353.701 297.741 353.941C298.185 354.181 298.527 354.529 298.767 354.985C298.803 355.033 298.845 355.033 298.893 354.985C299.157 354.505 299.523 354.151 299.991 353.923C300.459 353.695 300.981 353.581 301.557 353.581ZM315.476 355.201C315.476 355.261 315.452 355.315 315.404 355.363C315.368 355.399 315.32 355.417 315.26 355.417H313.424C313.364 355.417 313.334 355.447 313.334 355.507V359.845C313.334 360.301 313.43 360.631 313.622 360.835C313.826 361.039 314.144 361.141 314.576 361.141H315.116C315.176 361.141 315.224 361.165 315.26 361.213C315.308 361.249 315.332 361.297 315.332 361.357V362.707C315.332 362.839 315.26 362.917 315.116 362.941L314.18 362.959C313.232 362.959 312.524 362.797 312.056 362.473C311.588 362.149 311.348 361.537 311.336 360.637V355.507C311.336 355.447 311.306 355.417 311.246 355.417H310.22C310.16 355.417 310.106 355.399 310.058 355.363C310.022 355.315 310.004 355.261 310.004 355.201V353.941C310.004 353.881 310.022 353.833 310.058 353.797C310.106 353.749 310.16 353.725 310.22 353.725H311.246C311.306 353.725 311.336 353.695 311.336 353.635V351.529C311.336 351.469 311.354 351.421 311.39 351.385C311.438 351.337 311.492 351.313 311.552 351.313H313.118C313.178 351.313 313.226 351.337 313.262 351.385C313.31 351.421 313.334 351.469 313.334 351.529V353.635C313.334 353.695 313.364 353.725 313.424 353.725H315.26C315.32 353.725 315.368 353.749 315.404 353.797C315.452 353.833 315.476 353.881 315.476 353.941V355.201ZM321.241 363.067C320.293 363.067 319.477 362.827 318.793 362.347C318.121 361.867 317.647 361.201 317.371 360.349C317.167 359.701 317.065 359.017 317.065 358.297C317.065 357.529 317.161 356.845 317.353 356.245C317.629 355.405 318.109 354.751 318.793 354.283C319.477 353.815 320.299 353.581 321.259 353.581C322.171 353.581 322.957 353.815 323.617 354.283C324.289 354.751 324.763 355.399 325.039 356.227C325.255 356.803 325.363 357.487 325.363 358.279C325.363 359.035 325.261 359.719 325.057 360.331C324.781 361.183 324.307 361.855 323.635 362.347C322.963 362.827 322.165 363.067 321.241 363.067ZM321.241 361.267C321.685 361.267 322.063 361.141 322.375 360.889C322.699 360.637 322.933 360.283 323.077 359.827C323.197 359.431 323.257 358.927 323.257 358.315C323.257 357.667 323.197 357.163 323.077 356.803C322.945 356.347 322.717 355.999 322.393 355.759C322.069 355.507 321.673 355.381 321.205 355.381C320.761 355.381 320.377 355.507 320.053 355.759C319.729 355.999 319.495 356.347 319.351 356.803C319.231 357.223 319.171 357.727 319.171 358.315C319.171 358.903 319.231 359.407 319.351 359.827C319.483 360.283 319.711 360.637 320.035 360.889C320.371 361.141 320.773 361.267 321.241 361.267ZM336.178 355.201C336.178 355.261 336.154 355.315 336.106 355.363C336.07 355.399 336.022 355.417 335.962 355.417H334.126C334.066 355.417 334.036 355.447 334.036 355.507V359.845C334.036 360.301 334.132 360.631 334.324 360.835C334.528 361.039 334.846 361.141 335.278 361.141H335.818C335.878 361.141 335.926 361.165 335.962 361.213C336.01 361.249 336.034 361.297 336.034 361.357V362.707C336.034 362.839 335.962 362.917 335.818 362.941L334.882 362.959C333.934 362.959 333.226 362.797 332.758 362.473C332.29 362.149 332.05 361.537 332.038 360.637V355.507C332.038 355.447 332.008 355.417 331.948 355.417H330.922C330.862 355.417 330.808 355.399 330.76 355.363C330.724 355.315 330.706 355.261 330.706 355.201V353.941C330.706 353.881 330.724 353.833 330.76 353.797C330.808 353.749 330.862 353.725 330.922 353.725H331.948C332.008 353.725 332.038 353.695 332.038 353.635V351.529C332.038 351.469 332.056 351.421 332.092 351.385C332.14 351.337 332.194 351.313 332.254 351.313H333.82C333.88 351.313 333.928 351.337 333.964 351.385C334.012 351.421 334.036 351.469 334.036 351.529V353.635C334.036 353.695 334.066 353.725 334.126 353.725H335.962C336.022 353.725 336.07 353.749 336.106 353.797C336.154 353.833 336.178 353.881 336.178 353.941V355.201ZM342.622 353.581C343.594 353.581 344.368 353.869 344.944 354.445C345.532 355.021 345.826 355.807 345.826 356.803V362.707C345.826 362.767 345.802 362.821 345.754 362.869C345.718 362.905 345.67 362.923 345.61 362.923H343.954C343.894 362.923 343.84 362.905 343.792 362.869C343.756 362.821 343.738 362.767 343.738 362.707V357.235C343.738 356.683 343.582 356.239 343.27 355.903C342.958 355.555 342.544 355.381 342.028 355.381C341.512 355.381 341.092 355.549 340.768 355.885C340.456 356.221 340.3 356.665 340.3 357.217V362.707C340.3 362.767 340.276 362.821 340.228 362.869C340.192 362.905 340.144 362.923 340.084 362.923H338.428C338.368 362.923 338.314 362.905 338.266 362.869C338.23 362.821 338.212 362.767 338.212 362.707V350.539C338.212 350.479 338.23 350.431 338.266 350.395C338.314 350.347 338.368 350.323 338.428 350.323H340.084C340.144 350.323 340.192 350.347 340.228 350.395C340.276 350.431 340.3 350.479 340.3 350.539V354.517C340.3 354.553 340.312 354.577 340.336 354.589C340.36 354.601 340.378 354.589 340.39 354.553C340.882 353.905 341.626 353.581 342.622 353.581ZM355.871 357.289C355.919 357.589 355.943 357.925 355.943 358.297L355.925 358.855C355.925 358.999 355.853 359.071 355.709 359.071H350.075C350.015 359.071 349.985 359.101 349.985 359.161C350.021 359.557 350.075 359.827 350.147 359.971C350.435 360.835 351.137 361.273 352.253 361.285C353.069 361.285 353.717 360.949 354.197 360.277C354.245 360.205 354.305 360.169 354.377 360.169C354.425 360.169 354.467 360.187 354.503 360.223L355.619 361.141C355.727 361.225 355.745 361.321 355.673 361.429C355.301 361.957 354.803 362.365 354.179 362.653C353.567 362.941 352.883 363.085 352.127 363.085C351.191 363.085 350.393 362.875 349.733 362.455C349.085 362.035 348.611 361.447 348.311 360.691C348.035 360.043 347.897 359.143 347.897 357.991C347.897 357.295 347.969 356.731 348.113 356.299C348.353 355.459 348.803 354.799 349.463 354.319C350.135 353.827 350.939 353.581 351.875 353.581C354.239 353.581 355.571 354.817 355.871 357.289ZM351.875 355.381C351.431 355.381 351.059 355.495 350.759 355.723C350.471 355.939 350.267 356.245 350.147 356.641C350.075 356.845 350.027 357.109 350.003 357.433C349.979 357.493 350.003 357.523 350.075 357.523H353.729C353.789 357.523 353.819 357.493 353.819 357.433C353.795 357.133 353.759 356.905 353.711 356.749C353.603 356.317 353.387 355.981 353.063 355.741C352.751 355.501 352.355 355.381 351.875 355.381ZM365.649 363.067C364.725 363.067 363.927 362.833 363.255 362.365C362.583 361.885 362.115 361.243 361.851 360.439C361.659 359.899 361.563 359.179 361.563 358.279C361.563 357.415 361.659 356.707 361.851 356.155C362.103 355.363 362.565 354.739 363.237 354.283C363.921 353.815 364.725 353.581 365.649 353.581C366.585 353.581 367.401 353.815 368.097 354.283C368.793 354.751 369.255 355.339 369.483 356.047C369.543 356.239 369.585 356.431 369.609 356.623V356.659C369.609 356.779 369.543 356.851 369.411 356.875L367.791 357.109H367.755C367.647 357.109 367.575 357.049 367.539 356.929C367.539 356.869 367.533 356.821 367.521 356.785C367.497 356.689 367.473 356.605 367.449 356.533C367.341 356.197 367.125 355.921 366.801 355.705C366.477 355.489 366.093 355.381 365.649 355.381C365.193 355.381 364.803 355.501 364.479 355.741C364.167 355.969 363.957 356.287 363.849 356.695C363.729 357.079 363.669 357.613 363.669 358.297C363.669 358.957 363.723 359.491 363.831 359.899C363.951 360.319 364.167 360.655 364.479 360.907C364.791 361.147 365.181 361.267 365.649 361.267C366.105 361.267 366.495 361.153 366.819 360.925C367.155 360.685 367.371 360.367 367.467 359.971C367.479 359.947 367.485 359.917 367.485 359.881C367.497 359.869 367.503 359.851 367.503 359.827C367.539 359.683 367.623 359.623 367.755 359.647L369.375 359.899C369.435 359.911 369.483 359.941 369.519 359.989C369.567 360.025 369.585 360.079 369.573 360.151C369.537 360.343 369.507 360.481 369.483 360.565C369.255 361.333 368.793 361.945 368.097 362.401C367.401 362.845 366.585 363.067 365.649 363.067ZM375.376 363.067C374.428 363.067 373.612 362.827 372.928 362.347C372.256 361.867 371.782 361.201 371.506 360.349C371.302 359.701 371.2 359.017 371.2 358.297C371.2 357.529 371.296 356.845 371.488 356.245C371.764 355.405 372.244 354.751 372.928 354.283C373.612 353.815 374.434 353.581 375.394 353.581C376.306 353.581 377.092 353.815 377.752 354.283C378.424 354.751 378.898 355.399 379.174 356.227C379.39 356.803 379.498 357.487 379.498 358.279C379.498 359.035 379.396 359.719 379.192 360.331C378.916 361.183 378.442 361.855 377.77 362.347C377.098 362.827 376.3 363.067 375.376 363.067ZM375.376 361.267C375.82 361.267 376.198 361.141 376.51 360.889C376.834 360.637 377.068 360.283 377.212 359.827C377.332 359.431 377.392 358.927 377.392 358.315C377.392 357.667 377.332 357.163 377.212 356.803C377.08 356.347 376.852 355.999 376.528 355.759C376.204 355.507 375.808 355.381 375.34 355.381C374.896 355.381 374.512 355.507 374.188 355.759C373.864 355.999 373.63 356.347 373.486 356.803C373.366 357.223 373.306 357.727 373.306 358.315C373.306 358.903 373.366 359.407 373.486 359.827C373.618 360.283 373.846 360.637 374.17 360.889C374.506 361.141 374.908 361.267 375.376 361.267ZM386.062 353.581C387.034 353.581 387.808 353.869 388.384 354.445C388.972 355.021 389.266 355.807 389.266 356.803V362.707C389.266 362.767 389.242 362.821 389.194 362.869C389.158 362.905 389.11 362.923 389.05 362.923H387.394C387.334 362.923 387.28 362.905 387.232 362.869C387.196 362.821 387.178 362.767 387.178 362.707V357.235C387.178 356.683 387.022 356.239 386.71 355.903C386.398 355.555 385.984 355.381 385.468 355.381C384.952 355.381 384.532 355.549 384.208 355.885C383.896 356.221 383.74 356.665 383.74 357.217V362.707C383.74 362.767 383.716 362.821 383.668 362.869C383.632 362.905 383.584 362.923 383.524 362.923H381.868C381.808 362.923 381.754 362.905 381.706 362.869C381.67 362.821 381.652 362.767 381.652 362.707V353.941C381.652 353.881 381.67 353.833 381.706 353.797C381.754 353.749 381.808 353.725 381.868 353.725H383.524C383.584 353.725 383.632 353.749 383.668 353.797C383.716 353.833 383.74 353.881 383.74 353.941V354.517C383.74 354.553 383.752 354.577 383.776 354.589C383.8 354.601 383.818 354.589 383.83 354.553C384.322 353.905 385.066 353.581 386.062 353.581ZM393.79 362.923C393.67 362.923 393.592 362.863 393.556 362.743L390.658 353.959C390.646 353.935 390.64 353.905 390.64 353.869C390.64 353.761 390.706 353.707 390.838 353.707H392.674C392.806 353.707 392.89 353.767 392.926 353.887L394.672 359.899C394.684 359.935 394.702 359.953 394.726 359.953C394.75 359.953 394.768 359.935 394.78 359.899L396.526 353.887C396.562 353.767 396.646 353.707 396.778 353.707L398.614 353.743C398.686 353.743 398.74 353.767 398.776 353.815C398.812 353.851 398.818 353.911 398.794 353.995L395.914 362.743C395.878 362.863 395.8 362.923 395.68 362.923H393.79ZM407.822 357.289C407.87 357.589 407.894 357.925 407.894 358.297L407.876 358.855C407.876 358.999 407.804 359.071 407.66 359.071H402.026C401.966 359.071 401.936 359.101 401.936 359.161C401.972 359.557 402.026 359.827 402.098 359.971C402.386 360.835 403.088 361.273 404.204 361.285C405.02 361.285 405.668 360.949 406.148 360.277C406.196 360.205 406.256 360.169 406.328 360.169C406.376 360.169 406.418 360.187 406.454 360.223L407.57 361.141C407.678 361.225 407.696 361.321 407.624 361.429C407.252 361.957 406.754 362.365 406.13 362.653C405.518 362.941 404.834 363.085 404.078 363.085C403.142 363.085 402.344 362.875 401.684 362.455C401.036 362.035 400.562 361.447 400.262 360.691C399.986 360.043 399.848 359.143 399.848 357.991C399.848 357.295 399.92 356.731 400.064 356.299C400.304 355.459 400.754 354.799 401.414 354.319C402.086 353.827 402.89 353.581 403.826 353.581C406.19 353.581 407.522 354.817 407.822 357.289ZM403.826 355.381C403.382 355.381 403.01 355.495 402.71 355.723C402.422 355.939 402.218 356.245 402.098 356.641C402.026 356.845 401.978 357.109 401.954 357.433C401.93 357.493 401.954 357.523 402.026 357.523H405.68C405.74 357.523 405.77 357.493 405.77 357.433C405.746 357.133 405.71 356.905 405.662 356.749C405.554 356.317 405.338 355.981 405.014 355.741C404.702 355.501 404.306 355.381 403.826 355.381ZM414.267 353.617C414.651 353.617 414.987 353.695 415.275 353.851C415.371 353.899 415.407 353.989 415.383 354.121L415.077 355.741C415.065 355.885 414.981 355.927 414.825 355.867C414.645 355.807 414.435 355.777 414.195 355.777C414.039 355.777 413.919 355.783 413.835 355.795C413.331 355.819 412.911 355.999 412.575 356.335C412.239 356.659 412.071 357.085 412.071 357.613V362.707C412.071 362.767 412.047 362.821 411.999 362.869C411.963 362.905 411.915 362.923 411.855 362.923H410.199C410.139 362.923 410.085 362.905 410.037 362.869C410.001 362.821 409.983 362.767 409.983 362.707V353.941C409.983 353.881 410.001 353.833 410.037 353.797C410.085 353.749 410.139 353.725 410.199 353.725H411.855C411.915 353.725 411.963 353.749 411.999 353.797C412.047 353.833 412.071 353.881 412.071 353.941V354.751C412.071 354.799 412.077 354.829 412.089 354.841C412.113 354.841 412.137 354.823 412.161 354.787C412.665 354.007 413.367 353.617 414.267 353.617ZM420.245 363.031C419.489 363.031 418.823 362.923 418.247 362.707C417.683 362.479 417.245 362.173 416.933 361.789C416.621 361.393 416.465 360.955 416.465 360.475V360.313C416.465 360.253 416.483 360.205 416.519 360.169C416.567 360.121 416.621 360.097 416.681 360.097H418.265C418.325 360.097 418.373 360.121 418.409 360.169C418.457 360.205 418.481 360.253 418.481 360.313V360.349C418.481 360.649 418.643 360.913 418.967 361.141C419.303 361.357 419.723 361.465 420.227 361.465C420.707 361.465 421.097 361.369 421.397 361.177C421.697 360.973 421.847 360.721 421.847 360.421C421.847 360.145 421.721 359.941 421.469 359.809C421.229 359.665 420.833 359.515 420.281 359.359L419.597 359.143C418.985 358.963 418.469 358.771 418.049 358.567C417.629 358.363 417.275 358.087 416.987 357.739C416.699 357.379 416.555 356.923 416.555 356.371C416.555 355.531 416.885 354.865 417.545 354.373C418.205 353.869 419.075 353.617 420.155 353.617C420.887 353.617 421.529 353.737 422.081 353.977C422.633 354.205 423.059 354.529 423.359 354.949C423.659 355.357 423.809 355.825 423.809 356.353C423.809 356.413 423.785 356.467 423.737 356.515C423.701 356.551 423.653 356.569 423.593 356.569H422.063C422.003 356.569 421.949 356.551 421.901 356.515C421.865 356.467 421.847 356.413 421.847 356.353C421.847 356.041 421.691 355.783 421.379 355.579C421.079 355.363 420.665 355.255 420.137 355.255C419.669 355.255 419.285 355.345 418.985 355.525C418.697 355.693 418.553 355.933 418.553 356.245C418.553 356.533 418.691 356.755 418.967 356.911C419.255 357.055 419.729 357.217 420.389 357.397L420.785 357.505C421.421 357.697 421.955 357.895 422.387 358.099C422.819 358.291 423.185 358.567 423.485 358.927C423.785 359.275 423.935 359.731 423.935 360.295C423.935 361.147 423.599 361.819 422.927 362.311C422.255 362.791 421.361 363.031 420.245 363.031ZM429.392 353.581C430.148 353.581 430.814 353.713 431.39 353.977C431.966 354.241 432.41 354.607 432.722 355.075C433.034 355.531 433.19 356.053 433.19 356.641V362.707C433.19 362.767 433.166 362.821 433.118 362.869C433.082 362.905 433.034 362.923 432.974 362.923H431.318C431.258 362.923 431.204 362.905 431.156 362.869C431.12 362.821 431.102 362.767 431.102 362.707V362.131C431.102 362.095 431.09 362.077 431.066 362.077C431.042 362.065 431.018 362.071 430.994 362.095C430.406 362.743 429.554 363.067 428.438 363.067C427.538 363.067 426.794 362.839 426.206 362.383C425.63 361.927 425.342 361.249 425.342 360.349C425.342 359.413 425.666 358.687 426.314 358.171C426.974 357.643 427.898 357.379 429.086 357.379H431.012C431.072 357.379 431.102 357.349 431.102 357.289V356.857C431.102 356.389 430.964 356.029 430.688 355.777C430.412 355.513 429.998 355.381 429.446 355.381C428.99 355.381 428.618 355.465 428.33 355.633C428.054 355.789 427.88 356.011 427.808 356.299C427.772 356.443 427.688 356.503 427.556 356.479L425.81 356.263C425.75 356.251 425.696 356.233 425.648 356.209C425.612 356.173 425.6 356.131 425.612 356.083C425.708 355.351 426.098 354.751 426.782 354.283C427.478 353.815 428.348 353.581 429.392 353.581ZM428.96 361.411C429.548 361.411 430.052 361.255 430.472 360.943C430.892 360.631 431.102 360.235 431.102 359.755V358.909C431.102 358.849 431.072 358.819 431.012 358.819H429.5C428.864 358.819 428.36 358.939 427.988 359.179C427.628 359.419 427.448 359.761 427.448 360.205C427.448 360.589 427.586 360.889 427.862 361.105C428.15 361.309 428.516 361.411 428.96 361.411ZM440.203 355.201C440.203 355.261 440.179 355.315 440.131 355.363C440.095 355.399 440.047 355.417 439.987 355.417H438.151C438.091 355.417 438.061 355.447 438.061 355.507V359.845C438.061 360.301 438.157 360.631 438.349 360.835C438.553 361.039 438.871 361.141 439.303 361.141H439.843C439.903 361.141 439.951 361.165 439.987 361.213C440.035 361.249 440.059 361.297 440.059 361.357V362.707C440.059 362.839 439.987 362.917 439.843 362.941L438.907 362.959C437.959 362.959 437.251 362.797 436.783 362.473C436.315 362.149 436.075 361.537 436.063 360.637V355.507C436.063 355.447 436.033 355.417 435.973 355.417H434.947C434.887 355.417 434.833 355.399 434.785 355.363C434.749 355.315 434.731 355.261 434.731 355.201V353.941C434.731 353.881 434.749 353.833 434.785 353.797C434.833 353.749 434.887 353.725 434.947 353.725H435.973C436.033 353.725 436.063 353.695 436.063 353.635V351.529C436.063 351.469 436.081 351.421 436.117 351.385C436.165 351.337 436.219 351.313 436.279 351.313H437.845C437.905 351.313 437.953 351.337 437.989 351.385C438.037 351.421 438.061 351.469 438.061 351.529V353.635C438.061 353.695 438.091 353.725 438.151 353.725H439.987C440.047 353.725 440.095 353.749 440.131 353.797C440.179 353.833 440.203 353.881 440.203 353.941V355.201ZM443.426 352.465C443.054 352.465 442.748 352.345 442.508 352.105C442.268 351.865 442.148 351.559 442.148 351.187C442.148 350.815 442.268 350.509 442.508 350.269C442.748 350.029 443.054 349.909 443.426 349.909C443.798 349.909 444.104 350.029 444.344 350.269C444.584 350.509 444.704 350.815 444.704 351.187C444.704 351.559 444.584 351.865 444.344 352.105C444.104 352.345 443.798 352.465 443.426 352.465ZM442.562 362.923C442.502 362.923 442.448 362.905 442.4 362.869C442.364 362.821 442.346 362.767 442.346 362.707V353.923C442.346 353.863 442.364 353.815 442.4 353.779C442.448 353.731 442.502 353.707 442.562 353.707H444.218C444.278 353.707 444.326 353.731 444.362 353.779C444.41 353.815 444.434 353.863 444.434 353.923V362.707C444.434 362.767 444.41 362.821 444.362 362.869C444.326 362.905 444.278 362.923 444.218 362.923H442.562ZM450.912 363.067C449.964 363.067 449.148 362.827 448.464 362.347C447.792 361.867 447.318 361.201 447.042 360.349C446.838 359.701 446.736 359.017 446.736 358.297C446.736 357.529 446.832 356.845 447.024 356.245C447.3 355.405 447.78 354.751 448.464 354.283C449.148 353.815 449.97 353.581 450.93 353.581C451.842 353.581 452.628 353.815 453.288 354.283C453.96 354.751 454.434 355.399 454.71 356.227C454.926 356.803 455.034 357.487 455.034 358.279C455.034 359.035 454.932 359.719 454.728 360.331C454.452 361.183 453.978 361.855 453.306 362.347C452.634 362.827 451.836 363.067 450.912 363.067ZM450.912 361.267C451.356 361.267 451.734 361.141 452.046 360.889C452.37 360.637 452.604 360.283 452.748 359.827C452.868 359.431 452.928 358.927 452.928 358.315C452.928 357.667 452.868 357.163 452.748 356.803C452.616 356.347 452.388 355.999 452.064 355.759C451.74 355.507 451.344 355.381 450.876 355.381C450.432 355.381 450.048 355.507 449.724 355.759C449.4 355.999 449.166 356.347 449.022 356.803C448.902 357.223 448.842 357.727 448.842 358.315C448.842 358.903 448.902 359.407 449.022 359.827C449.154 360.283 449.382 360.637 449.706 360.889C450.042 361.141 450.444 361.267 450.912 361.267ZM461.598 353.581C462.57 353.581 463.344 353.869 463.92 354.445C464.508 355.021 464.802 355.807 464.802 356.803V362.707C464.802 362.767 464.778 362.821 464.73 362.869C464.694 362.905 464.646 362.923 464.586 362.923H462.93C462.87 362.923 462.816 362.905 462.768 362.869C462.732 362.821 462.714 362.767 462.714 362.707V357.235C462.714 356.683 462.558 356.239 462.246 355.903C461.934 355.555 461.52 355.381 461.004 355.381C460.488 355.381 460.068 355.549 459.744 355.885C459.432 356.221 459.276 356.665 459.276 357.217V362.707C459.276 362.767 459.252 362.821 459.204 362.869C459.168 362.905 459.12 362.923 459.06 362.923H457.404C457.344 362.923 457.29 362.905 457.242 362.869C457.206 362.821 457.188 362.767 457.188 362.707V353.941C457.188 353.881 457.206 353.833 457.242 353.797C457.29 353.749 457.344 353.725 457.404 353.725H459.06C459.12 353.725 459.168 353.749 459.204 353.797C459.252 353.833 459.276 353.881 459.276 353.941V354.517C459.276 354.553 459.288 354.577 459.312 354.589C459.336 354.601 459.354 354.589 459.366 354.553C459.858 353.905 460.602 353.581 461.598 353.581ZM468.208 362.959C467.836 362.959 467.53 362.839 467.29 362.599C467.05 362.359 466.93 362.053 466.93 361.681C466.93 361.309 467.05 361.003 467.29 360.763C467.53 360.523 467.836 360.403 468.208 360.403C468.58 360.403 468.88 360.523 469.108 360.763C469.348 361.003 469.468 361.309 469.468 361.681C469.468 362.053 469.348 362.359 469.108 362.599C468.868 362.839 468.568 362.959 468.208 362.959Z" fill="#002462"/>
</g>
<defs>
<filter id="filter0_dddd_809_17926" x="69.7021" y="283.123" width="345.292" height="86.5562" filterUnits="userSpaceOnUse" color-interpolation-filters="sRGB">
<feFlood flood-opacity="0" result="BackgroundImageFix"/>
<feColorMatrix in="SourceAlpha" type="matrix" values="0 0 0 0 0 0 0 0 0 0 0 0 0 0 0 0 0 0 127 0" result="hardAlpha"/>
<feOffset dy="2"/>
<feGaussianBlur stdDeviation="2.5"/>
<feColorMatrix type="matrix" values="0 0 0 0 0.192157 0 0 0 0 0.262745 0 0 0 0 0.384314 0 0 0 0.1 0"/>
<feBlend mode="normal" in2="BackgroundImageFix" result="effect1_dropShadow_809_17926"/>
<feColorMatrix in="SourceAlpha" type="matrix" values="0 0 0 0 0 0 0 0 0 0 0 0 0 0 0 0 0 0 127 0" result="hardAlpha"/>
<feOffset dy="6"/>
<feGaussianBlur stdDeviation="5"/>
<feColorMatrix type="matrix" values="0 0 0 0 0.192157 0 0 0 0 0.262745 0 0 0 0 0.384314 0 0 0 0.09 0"/>
<feBlend mode="normal" in2="effect1_dropShadow_809_17926" result="effect2_dropShadow_809_17926"/>
<feColorMatrix in="SourceAlpha" type="matrix" values="0 0 0 0 0 0 0 0 0 0 0 0 0 0 0 0 0 0 127 0" result="hardAlpha"/>
<feOffset dy="11"/>
<feGaussianBlur stdDeviation="6.5"/>
<feColorMatrix type="matrix" values="0 0 0 0 0.192157 0 0 0 0 0.262745 0 0 0 0 0.384314 0 0 0 0.05 0"/>
<feBlend mode="normal" in2="effect2_dropShadow_809_17926" result="effect3_dropShadow_809_17926"/>
<feColorMatrix in="SourceAlpha" type="matrix" values="0 0 0 0 0 0 0 0 0 0 0 0 0 0 0 0 0 0 127 0" result="hardAlpha"/>
<feOffset dy="28"/>
<feGaussianBlur stdDeviation="7.5"/>
<feColorMatrix type="matrix" values="0 0 0 0 0.192157 0 0 0 0 0.262745 0 0 0 0 0.384314 0 0 0 0.01 0"/>
<feBlend mode="normal" in2="effect3_dropShadow_809_17926" result="effect4_dropShadow_809_17926"/>
<feBlend mode="normal" in="SourceGraphic" in2="effect4_dropShadow_809_17926" result="shape"/>
</filter>
<filter id="filter1_dddd_809_17926" x="0.314453" y="345.909" width="484.153" height="63.5779" filterUnits="userSpaceOnUse" color-interpolation-filters="sRGB">
<feFlood flood-opacity="0" result="BackgroundImageFix"/>
<feColorMatrix in="SourceAlpha" type="matrix" values="0 0 0 0 0 0 0 0 0 0 0 0 0 0 0 0 0 0 127 0" result="hardAlpha"/>
<feOffset dy="2"/>
<feGaussianBlur stdDeviation="2.5"/>
<feColorMatrix type="matrix" values="0 0 0 0 0.192157 0 0 0 0 0.262745 0 0 0 0 0.384314 0 0 0 0.1 0"/>
<feBlend mode="normal" in2="BackgroundImageFix" result="effect1_dropShadow_809_17926"/>
<feColorMatrix in="SourceAlpha" type="matrix" values="0 0 0 0 0 0 0 0 0 0 0 0 0 0 0 0 0 0 127 0" result="hardAlpha"/>
<feOffset dy="6"/>
<feGaussianBlur stdDeviation="5"/>
<feColorMatrix type="matrix" values="0 0 0 0 0.192157 0 0 0 0 0.262745 0 0 0 0 0.384314 0 0 0 0.09 0"/>
<feBlend mode="normal" in2="effect1_dropShadow_809_17926" result="effect2_dropShadow_809_17926"/>
<feColorMatrix in="SourceAlpha" type="matrix" values="0 0 0 0 0 0 0 0 0 0 0 0 0 0 0 0 0 0 127 0" result="hardAlpha"/>
<feOffset dy="11"/>
<feGaussianBlur stdDeviation="6.5"/>
<feColorMatrix type="matrix" values="0 0 0 0 0.192157 0 0 0 0 0.262745 0 0 0 0 0.384314 0 0 0 0.05 0"/>
<feBlend mode="normal" in2="effect2_dropShadow_809_17926" result="effect3_dropShadow_809_17926"/>
<feColorMatrix in="SourceAlpha" type="matrix" values="0 0 0 0 0 0 0 0 0 0 0 0 0 0 0 0 0 0 127 0" result="hardAlpha"/>
<feOffset dy="28"/>
<feGaussianBlur stdDeviation="7.5"/>
<feColorMatrix type="matrix" values="0 0 0 0 0.192157 0 0 0 0 0.262745 0 0 0 0 0.384314 0 0 0 0.01 0"/>
<feBlend mode="normal" in2="effect3_dropShadow_809_17926" result="effect4_dropShadow_809_17926"/>
<feBlend mode="normal" in="SourceGraphic" in2="effect4_dropShadow_809_17926" result="shape"/>
</filter>
<clipPath id="clip0_809_17926">
<rect width="120" height="120" fill="white" transform="translate(26.5381 130) rotate(-30)"/>
</clipPath>
<clipPath id="clip1_809_17926">
<rect width="120" height="120" fill="white" transform="translate(354.538 70) rotate(30)"/>
</clipPath>
</defs>
</svg>
