<svg width="80" height="80" viewBox="0 0 80 80" fill="none" xmlns="http://www.w3.org/2000/svg">
<path d="M77.1751 65L69.3501 51.475C65.1213 58.017 58.8309 62.9613 51.4751 65.525L57.6751 76.25C57.8954 76.6315 58.2125 76.9481 58.5945 77.1676C58.9764 77.3871 59.4096 77.5018 59.8501 77.5C60.2864 77.4974 60.7144 77.3806 61.0916 77.1613C61.4687 76.942 61.782 76.6278 62.0001 76.25L66.3501 68.75H75.0001C75.4406 68.7518 75.8738 68.6371 76.2557 68.4176C76.6377 68.1981 76.9548 67.8815 77.1751 67.5C77.3945 67.12 77.51 66.6888 77.51 66.25C77.51 65.8112 77.3945 65.3801 77.1751 65Z" fill="#002462"/>
<path d="M10.6502 51.475L2.82517 65C2.60575 65.3801 2.49023 65.8112 2.49023 66.25C2.49023 66.6888 2.60575 67.12 2.82517 67.5C3.04543 67.8815 3.36259 68.1981 3.74454 68.4176C4.12648 68.6371 4.55965 68.7518 5.00017 68.75H13.6502L18.0002 76.25C18.2183 76.6278 18.5315 76.942 18.9087 77.1613C19.2859 77.3806 19.7139 77.4974 20.1502 77.5C20.5907 77.5018 21.0239 77.3871 21.4058 77.1676C21.7878 76.9481 22.1049 76.6315 22.3252 76.25L28.5252 65.525C21.1693 62.9613 14.879 58.017 10.6502 51.475Z" fill="#002462"/>
<path d="M42.5 26.2L40 21.2L37.5 26.2C37.3191 26.5593 37.0542 26.8696 36.7278 27.1046C36.4014 27.3396 36.0231 27.4924 35.625 27.55L30.25 28.35L34.15 32.2C34.4394 32.481 34.6564 32.8279 34.7827 33.211C34.9089 33.5941 34.9406 34.002 34.875 34.4L33.95 39.8L38.725 37.3C39.0903 37.1193 39.4924 37.0253 39.9 37.0253C40.3076 37.0253 40.7097 37.1193 41.075 37.3L45.85 39.8L45 34.4C44.9344 34.002 44.9661 33.5941 45.0923 33.211C45.2186 32.8279 45.4356 32.481 45.725 32.2L49.625 28.35L44.275 27.5C43.8996 27.433 43.5445 27.2811 43.2368 27.0558C42.9291 26.8304 42.6771 26.5377 42.5 26.2Z" fill="#002462"/>
<path d="M70 32.5C70 26.5666 68.2405 20.7664 64.9441 15.8329C61.6477 10.8994 56.9623 7.05424 51.4805 4.78361C45.9987 2.51298 39.9667 1.91888 34.1473 3.07644C28.3279 4.234 22.9824 7.09122 18.7868 11.2868C14.5912 15.4824 11.734 20.8279 10.5765 26.6473C9.4189 32.4667 10.013 38.4987 12.2836 43.9805C14.5543 49.4623 18.3994 54.1476 23.3329 57.4441C28.2664 60.7405 34.0666 62.5 40 62.5C47.9565 62.5 55.5871 59.3393 61.2132 53.7132C66.8393 48.0871 70 40.4565 70 32.5ZM56.75 28.4L50.175 34.85L51.725 43.95C51.8143 44.4187 51.7675 44.9031 51.5903 45.3461C51.4131 45.7891 51.1129 46.1722 50.725 46.45C50.303 46.7556 49.796 46.9216 49.275 46.925C48.8647 46.923 48.4611 46.8199 48.1 46.625L40 42.3L31.9 46.575C31.5048 46.7684 31.0655 46.8541 30.6265 46.8234C30.1875 46.7927 29.7645 46.6466 29.4 46.4C29.0121 46.1222 28.7119 45.7391 28.5347 45.2961C28.3575 44.8531 28.3108 44.3687 28.4 43.9L29.95 34.8L23.25 28.4C22.913 28.0755 22.6738 27.663 22.5596 27.2093C22.4454 26.7556 22.4608 26.279 22.6041 25.8336C22.7473 25.3883 23.0127 24.992 23.3699 24.69C23.7272 24.3879 24.162 24.1922 24.625 24.125L33.7 22.8L37.75 14.525C37.9547 14.1023 38.2744 13.7459 38.6723 13.4964C39.0702 13.247 39.5304 13.1147 40 13.1147C40.4697 13.1147 40.9298 13.247 41.3277 13.4964C41.7257 13.7459 42.0453 14.1023 42.25 14.525L46.3 22.8L55.375 24.125C55.838 24.1922 56.2728 24.3879 56.6301 24.69C56.9874 24.992 57.2527 25.3883 57.396 25.8336C57.5392 26.279 57.5546 26.7556 57.4404 27.2093C57.3262 27.663 57.087 28.0755 56.75 28.4Z" fill="#002462"/>
</svg>
