<svg width="24" height="24" viewBox="0 0 24 24" fill="none" xmlns="http://www.w3.org/2000/svg">
<g id="wrapper">
<path id="Union" fill-rule="evenodd" clip-rule="evenodd" d="M7.77083 2.25098L7.80293 2.25098H16.2029L16.235 2.25098C17.0479 2.25097 17.7035 2.25096 18.2344 2.29434C18.781 2.339 19.2612 2.43336 19.7054 2.6597C20.411 3.01923 20.9847 3.5929 21.3442 4.29851C21.5705 4.74273 21.6649 5.22287 21.7096 5.76951C21.7529 6.30041 21.7529 6.95602 21.7529 7.76885V7.80098V13.501V13.5276C21.7529 14.2039 21.7529 14.7495 21.7226 15.1935C21.6915 15.6501 21.6258 16.0538 21.4675 16.436C21.0869 17.3549 20.3568 18.0849 19.438 18.4655C19.0557 18.6239 18.652 18.6895 18.1954 18.7207C17.7514 18.751 17.2059 18.751 16.5296 18.751H16.5029C15.9784 18.751 15.8374 18.7557 15.7157 18.7844C15.5269 18.829 15.351 18.9169 15.202 19.0413C15.106 19.1214 15.0177 19.2313 14.7029 19.651L13.2429 21.5976L13.2283 21.6171C13.1326 21.7448 13.0334 21.8771 12.9397 21.9813C12.8379 22.0944 12.6832 22.2443 12.456 22.3326C12.1646 22.446 11.8413 22.446 11.5498 22.3326C11.3227 22.2443 11.1679 22.0945 11.0662 21.9813C10.9724 21.8771 10.8732 21.7448 10.7775 21.6171L10.7629 21.5976L9.30293 19.651C8.98819 19.2313 8.89985 19.1214 8.80386 19.0413C8.65488 18.9169 8.47899 18.829 8.29012 18.7844C8.16845 18.7557 8.0275 18.751 7.50293 18.751H7.47629C6.79997 18.751 6.25441 18.751 5.81041 18.7207C5.35385 18.6895 4.95014 18.6239 4.56787 18.4655C3.64901 18.0849 2.91898 17.3549 2.53838 16.436C2.38004 16.0538 2.31437 15.6501 2.28321 15.1935C2.25292 14.7495 2.25292 14.2039 2.25293 13.5276L2.25293 13.501V7.80098L2.25293 7.76887C2.25292 6.95603 2.25292 6.30042 2.29629 5.76951C2.34096 5.22287 2.43532 4.74273 2.66166 4.29851C3.02118 3.5929 3.59486 3.01923 4.30047 2.6597C4.74468 2.43336 5.22483 2.339 5.77146 2.29434C6.30237 2.25096 6.95799 2.25097 7.77083 2.25098ZM5.89361 3.78936C5.43973 3.82644 5.17897 3.89557 4.98145 3.99621C4.55809 4.21193 4.21388 4.55613 3.99817 4.9795C3.89753 5.17702 3.8284 5.43778 3.79131 5.89166C3.75351 6.35429 3.75293 6.94852 3.75293 7.80098V13.501C3.75293 14.2102 3.75334 14.7045 3.77974 15.0914C3.80568 15.4716 3.85418 15.693 3.9242 15.862C4.15256 16.4133 4.59058 16.8513 5.14189 17.0797C5.31093 17.1497 5.53233 17.1982 5.91252 17.2242C6.29944 17.2506 6.79376 17.251 7.50293 17.251C7.52756 17.251 7.55187 17.251 7.57589 17.2509C7.9933 17.2507 8.32119 17.2505 8.63475 17.3245C9.05025 17.4226 9.43721 17.6161 9.76499 17.8897C10.0123 18.0961 10.2089 18.3585 10.4592 18.6926C10.4736 18.7118 10.4882 18.7313 10.5029 18.751L11.9629 20.6976C11.977 20.7164 11.9903 20.7341 12.0029 20.7509C12.0156 20.7341 12.0289 20.7164 12.0429 20.6976L13.5029 18.751C13.5177 18.7313 13.5323 18.7118 13.5467 18.6926C13.7969 18.3585 13.9935 18.0961 14.2409 17.8897C14.5686 17.6161 14.9556 17.4226 15.3711 17.3245C15.6847 17.2505 16.0126 17.2507 16.43 17.2509C16.454 17.251 16.4783 17.251 16.5029 17.251C17.2121 17.251 17.7064 17.2506 18.0933 17.2242C18.4735 17.1982 18.6949 17.1497 18.864 17.0797C19.4153 16.8513 19.8533 16.4133 20.0817 15.862C20.1517 15.693 20.2002 15.4716 20.2261 15.0914C20.2525 14.7045 20.2529 14.2102 20.2529 13.501V7.80098C20.2529 6.94852 20.2523 6.35429 20.2145 5.89166C20.1775 5.43778 20.1083 5.17702 20.0077 4.9795C19.792 4.55613 19.4478 4.21193 19.0244 3.99621C18.8269 3.89557 18.5661 3.82644 18.1122 3.78936C17.6496 3.75156 17.0554 3.75098 16.2029 3.75098H7.80293C6.95048 3.75098 6.35624 3.75156 5.89361 3.78936ZM11.8078 20.9955C11.8078 20.9955 11.8085 20.9948 11.8098 20.9936C11.8085 20.9949 11.8078 20.9955 11.8078 20.9955ZM12.196 20.9936C12.1973 20.9948 12.198 20.9955 12.198 20.9955C12.198 20.9955 12.1974 20.995 12.196 20.9936ZM6.25293 10.501C6.25293 9.81062 6.81257 9.25098 7.50293 9.25098C8.19329 9.25098 8.75293 9.81062 8.75293 10.501C8.75293 11.1913 8.19329 11.751 7.50293 11.751C6.81257 11.751 6.25293 11.1913 6.25293 10.501ZM10.7529 10.501C10.7529 9.81062 11.3126 9.25098 12.0029 9.25098C12.6933 9.25098 13.2529 9.81062 13.2529 10.501C13.2529 11.1913 12.6933 11.751 12.0029 11.751C11.3126 11.751 10.7529 11.1913 10.7529 10.501ZM15.2529 10.501C15.2529 9.81062 15.8126 9.25098 16.5029 9.25098C17.1933 9.25098 17.7529 9.81062 17.7529 10.501C17.7529 11.1913 17.1933 11.751 16.5029 11.751C15.8126 11.751 15.2529 11.1913 15.2529 10.501Z" fill="#8098F9"/>
</g>
</svg>
