<svg width="20" height="20" viewBox="0 0 20 20" fill="none" xmlns="http://www.w3.org/2000/svg">
<g clip-path="url(#clip0_543_8884)">
<path fill-rule="evenodd" clip-rule="evenodd" d="M10.0024 2.41797C5.81424 2.41797 2.41907 5.81314 2.41907 10.0013C2.41907 14.1895 5.81424 17.5846 10.0024 17.5846C14.1906 17.5846 17.5857 14.1895 17.5857 10.0013C17.5857 5.81314 14.1906 2.41797 10.0024 2.41797ZM0.919067 10.0013C0.919067 4.98472 4.98581 0.917969 10.0024 0.917969C15.019 0.917969 19.0857 4.98472 19.0857 10.0013C19.0857 15.0179 15.019 19.0846 10.0024 19.0846C4.98581 19.0846 0.919067 15.0179 0.919067 10.0013ZM10.0024 5.91797C10.4166 5.91797 10.7524 6.25376 10.7524 6.66797V10.0013C10.7524 10.4155 10.4166 10.7513 10.0024 10.7513C9.58819 10.7513 9.2524 10.4155 9.2524 10.0013V6.66797C9.2524 6.25376 9.58819 5.91797 10.0024 5.91797ZM9.2524 13.3346C9.2524 12.9204 9.58819 12.5846 10.0024 12.5846H10.0107C10.4249 12.5846 10.7607 12.9204 10.7607 13.3346C10.7607 13.7488 10.4249 14.0846 10.0107 14.0846H10.0024C9.58819 14.0846 9.2524 13.7488 9.2524 13.3346Z" fill="#FB5C5C"/>
</g>
<defs>
<clipPath id="clip0_543_8884">
<rect width="20" height="20" fill="white"/>
</clipPath>
</defs>
</svg>
