<svg width="24" height="24" viewBox="0 0 24 24" fill="none" xmlns="http://www.w3.org/2000/svg">
<path fill-rule="evenodd" clip-rule="evenodd" d="M7.53326 4.47089C7.82615 4.76378 7.82615 5.23866 7.53326 5.53155L4.81359 8.25122H16.5029C19.4024 8.25122 21.7529 10.6017 21.7529 13.5012C21.7529 16.4007 19.4024 18.7512 16.5029 18.7512H12.0029C11.5887 18.7512 11.2529 18.4154 11.2529 18.0012C11.2529 17.587 11.5887 17.2512 12.0029 17.2512H16.5029C18.574 17.2512 20.2529 15.5723 20.2529 13.5012C20.2529 11.4302 18.574 9.75122 16.5029 9.75122H4.81359L7.53326 12.4709C7.82615 12.7638 7.82615 13.2387 7.53326 13.5316C7.24037 13.8244 6.76549 13.8244 6.4726 13.5316L2.4726 9.53155C2.17971 9.23866 2.17971 8.76378 2.4726 8.47089L6.4726 4.47089C6.76549 4.178 7.24037 4.178 7.53326 4.47089Z" fill="#001840"/>
</svg>
