<svg width="32" height="32" viewBox="0 0 32 32" fill="none" xmlns="http://www.w3.org/2000/svg">
<g>
<path fill-rule="evenodd" clip-rule="evenodd" d="M10.3709 3.25098L10.4039 3.25098H21.6039L21.6369 3.25098C22.7291 3.25097 23.5946 3.25097 24.2922 3.30796C25.0056 3.36625 25.6092 3.48786 26.1604 3.7687C27.0541 4.22409 27.7808 4.95075 28.2362 5.84452C28.517 6.3957 28.6386 6.99932 28.6969 7.71271C28.7539 8.41033 28.7539 9.27582 28.7539 10.368V10.401V18.001V18.0284C28.7539 18.937 28.7539 19.6572 28.7141 20.2407C28.6734 20.8367 28.5887 21.3446 28.3923 21.8187C27.9102 22.9826 26.9855 23.9073 25.8217 24.3894C25.3475 24.5858 24.8396 24.6705 24.2436 24.7112C23.6602 24.751 22.94 24.751 22.0313 24.751H22.0039C21.3165 24.751 21.0941 24.7557 20.8969 24.8022C20.6073 24.8706 20.3376 25.0055 20.1091 25.1961C19.9536 25.326 19.8164 25.501 19.4039 26.051L17.4572 28.6465L17.4409 28.6683C17.3104 28.8424 17.1843 29.0105 17.067 29.141C16.9416 29.2803 16.7668 29.4465 16.5174 29.5435C16.1871 29.672 15.8207 29.672 15.4904 29.5435C15.241 29.4465 15.0662 29.2803 14.9408 29.141C14.8235 29.0105 14.6974 28.8424 14.5669 28.6683L14.5506 28.6465L12.6039 26.051C12.1915 25.501 12.0543 25.326 11.8987 25.1961C11.6702 25.0055 11.4005 24.8706 11.1109 24.8022C10.9137 24.7557 10.6913 24.751 10.0039 24.751H9.97652C9.06783 24.751 8.34766 24.751 7.76423 24.7112C7.16822 24.6705 6.66032 24.5858 6.18616 24.3894C5.02228 23.9073 4.09757 22.9826 3.61548 21.8187C3.41908 21.3446 3.33437 20.8367 3.29371 20.2407C3.2539 19.6572 3.2539 18.937 3.25391 18.0284L3.25391 18.001V10.401L3.25391 10.368C3.2539 9.27583 3.2539 8.41033 3.31089 7.71271C3.36918 6.99932 3.49079 6.3957 3.77163 5.84452C4.22702 4.95075 4.95368 4.22409 5.84745 3.7687C6.39863 3.48786 7.00225 3.36625 7.71564 3.30796C8.41326 3.25097 9.27876 3.25097 10.3709 3.25098ZM7.83779 4.80298C7.21716 4.85369 6.83291 4.95007 6.52844 5.10521C5.91691 5.41679 5.41972 5.91398 5.10814 6.52551C4.953 6.82998 4.85662 7.21423 4.80591 7.83486C4.75449 8.46424 4.75391 9.2685 4.75391 10.401V18.001C4.75391 18.9431 4.75431 19.6122 4.79023 20.1385C4.82568 20.6582 4.89322 20.9838 5.0013 21.2447C5.33115 22.041 5.96384 22.6737 6.76019 23.0036C7.02111 23.1117 7.3467 23.1792 7.86634 23.2147C8.39271 23.2506 9.06176 23.251 10.0039 23.251C10.0318 23.251 10.0592 23.251 10.0864 23.251C10.6582 23.2508 11.0668 23.2506 11.4556 23.3424C11.9718 23.4642 12.4526 23.7046 12.8598 24.0445C13.1664 24.3004 13.4115 24.6274 13.7544 25.085C13.7707 25.1067 13.7872 25.1287 13.8039 25.151L15.7506 27.7465C15.8669 27.9016 15.9441 28.004 16.0039 28.0768C16.0637 28.004 16.1409 27.9016 16.2572 27.7465L18.2039 25.151C18.2206 25.1287 18.2371 25.1067 18.2534 25.085C18.5963 24.6274 18.8414 24.3004 19.148 24.0445C19.5553 23.7046 20.036 23.4642 20.5522 23.3424C20.941 23.2506 21.3497 23.2508 21.9215 23.251C21.9486 23.251 21.976 23.251 22.0039 23.251C22.9461 23.251 23.6151 23.2506 24.1415 23.2147C24.6611 23.1792 24.9867 23.1117 25.2476 23.0036C26.044 22.6737 26.6767 22.041 27.0065 21.2447C27.1146 20.9838 27.1821 20.6582 27.2176 20.1385C27.2535 19.6122 27.2539 18.9431 27.2539 18.001V10.401C27.2539 9.2685 27.2533 8.46424 27.2019 7.83486C27.1512 7.21423 27.0548 6.82998 26.8997 6.52551C26.5881 5.91398 26.0909 5.41679 25.4794 5.10521C25.1749 4.95007 24.7907 4.85369 24.17 4.80298C23.5406 4.75156 22.7364 4.75098 21.6039 4.75098H10.4039C9.27143 4.75098 8.46717 4.75156 7.83779 4.80298ZM8.58724 14.001C8.58724 13.2186 9.2215 12.5843 10.0039 12.5843C10.7863 12.5843 11.4206 13.2186 11.4206 14.001C11.4206 14.7834 10.7863 15.4176 10.0039 15.4176C9.2215 15.4176 8.58724 14.7834 8.58724 14.001ZM14.5872 14.001C14.5872 13.2186 15.2215 12.5843 16.0039 12.5843C16.7863 12.5843 17.4206 13.2186 17.4206 14.001C17.4206 14.7834 16.7863 15.4176 16.0039 15.4176C15.2215 15.4176 14.5872 14.7834 14.5872 14.001ZM20.5872 14.001C20.5872 13.2186 21.2215 12.5843 22.0039 12.5843C22.7863 12.5843 23.4206 13.2186 23.4206 14.001C23.4206 14.7834 22.7863 15.4176 22.0039 15.4176C21.2215 15.4176 20.5872 14.7834 20.5872 14.001Z" fill="#53B1FD"/>
</g>
</svg>
