<svg width="32" height="32" viewBox="0 0 32 32" fill="none" xmlns="http://www.w3.org/2000/svg">
<path fill-rule="evenodd" clip-rule="evenodd" d="M8.80707 8.80414C9.09997 8.51125 9.57484 8.51125 9.86773 8.80414L16.0041 14.9405L22.1404 8.80414C22.4333 8.51125 22.9082 8.51125 23.2011 8.80414C23.494 9.09704 23.494 9.57191 23.2011 9.8648L17.0647 16.0011L23.2011 22.1375C23.494 22.4304 23.494 22.9052 23.2011 23.1981C22.9082 23.491 22.4333 23.491 22.1404 23.1981L16.0041 17.0618L9.86773 23.1981C9.57484 23.491 9.09997 23.491 8.80707 23.1981C8.51418 22.9052 8.51418 22.4304 8.80707 22.1375L14.9434 16.0011L8.80707 9.8648C8.51418 9.57191 8.51418 9.09704 8.80707 8.80414Z" fill="#314362"/>
</svg>
