<svg width="56" height="61" viewBox="0 0 56 61" fill="none" xmlns="http://www.w3.org/2000/svg">
<g clip-path="url(#clip0_543_9341)">
<path d="M17.7144 5.14286C17.7144 2.30254 20.0169 0 22.8572 0H41.7144C44.5546 0 46.8572 2.30254 46.8572 5.14286V34.2857C46.8572 37.1259 44.5546 39.4286 41.7144 39.4286H22.8572C20.0169 39.4286 17.7144 37.1259 17.7144 34.2857V5.14286Z" fill="#FFA502"/>
<path d="M9.14258 13.7141C9.14258 10.8738 11.4451 8.57129 14.2854 8.57129H33.1426C35.9829 8.57129 38.2854 10.8738 38.2854 13.7141V42.857C38.2854 45.6972 35.9829 47.9999 33.1426 47.9999H14.2854C11.4451 47.9999 9.14258 45.6972 9.14258 42.857V13.7141Z" fill="#002462"/>
<path fill-rule="evenodd" clip-rule="evenodd" d="M14.7128 17.1429C14.7128 15.9594 15.6723 15 16.8557 15H30.57C31.7535 15 32.7128 15.9594 32.7128 17.1429C32.7128 18.3263 31.7535 19.2857 30.57 19.2857H16.8557C15.6723 19.2857 14.7128 18.3263 14.7128 17.1429ZM14.7145 25.7143C14.7145 24.5308 15.6739 23.5714 16.8574 23.5714H30.5717C31.7551 23.5714 32.7145 24.5308 32.7145 25.7143C32.7145 26.8978 31.7551 27.8571 30.5717 27.8571H16.8574C15.6739 27.8571 14.7145 26.8978 14.7145 25.7143ZM16.8548 32.1429C15.6713 32.1429 14.7119 33.1022 14.7119 34.2857C14.7119 35.4693 15.6713 36.4286 16.8548 36.4286H23.7119C24.8954 36.4286 25.8548 35.4693 25.8548 34.2857C25.8548 33.1022 24.8954 32.1429 23.7119 32.1429H16.8548Z" fill="#FFA502"/>
</g>
<ellipse cx="28" cy="54.5" rx="27.5" ry="6.5" fill="url(#paint0_radial_543_9341)"/>
<defs>
<radialGradient id="paint0_radial_543_9341" cx="0" cy="0" r="1" gradientUnits="userSpaceOnUse" gradientTransform="translate(28 54.5) scale(22.234 6.5)">
<stop stop-color="#314362" stop-opacity="0.2"/>
<stop offset="1" stop-color="#314362" stop-opacity="0"/>
</radialGradient>
<clipPath id="clip0_543_9341">
<rect width="48" height="48" fill="white" transform="translate(4)"/>
</clipPath>
</defs>
</svg>
