<svg width="32" height="32" viewBox="0 0 32 32" fill="none" xmlns="http://www.w3.org/2000/svg">
<path fill-rule="evenodd" clip-rule="evenodd" d="M13.6478 4.85581C13.3724 4.76084 13.0455 4.75106 12.034 4.75106H6.93757C6.17845 4.75106 5.65423 4.75164 5.24718 4.7849C4.84889 4.81744 4.62928 4.87749 4.46742 4.95996C4.10677 5.14372 3.81356 5.43693 3.6298 5.79757C3.54733 5.95944 3.48728 6.17904 3.45474 6.57734C3.42148 6.98438 3.4209 7.50861 3.4209 8.26772V8.58439H16.124L15.1794 6.69502L15.8502 6.35961L15.1794 6.69502C14.727 5.79024 14.572 5.50222 14.3639 5.29842C14.161 5.09963 13.9164 4.94845 13.6478 4.85581ZM17.8011 8.58439L16.521 6.0242C16.5025 5.98715 16.4842 5.9506 16.4662 5.91455C16.0918 5.16485 15.8243 4.62916 15.4135 4.22679L14.8887 4.76261L15.4135 4.22679C15.0517 3.87243 14.6156 3.60293 14.1369 3.43779L13.8947 4.13997L14.1369 3.43779C13.5933 3.25029 12.9945 3.25059 12.1566 3.25102C12.1163 3.25104 12.0754 3.25106 12.034 3.25106H6.93757L6.90589 3.25106C6.18605 3.25105 5.60037 3.25104 5.12503 3.28988C4.63398 3.33 4.195 3.41528 3.78643 3.62345C3.14354 3.95102 2.62086 4.4737 2.29329 5.11659C2.08512 5.52516 1.99984 5.96414 1.95972 6.45519C1.92088 6.93053 1.92089 7.51621 1.9209 8.23605L1.9209 8.26772V9.33439V21.6011L1.9209 21.6341C1.92089 22.7262 1.92089 23.5917 1.97789 24.2893C2.03617 25.0027 2.15778 25.6063 2.43862 26.1575C2.89402 27.0513 3.62067 27.7779 4.51444 28.2333C5.06562 28.5142 5.66924 28.6358 6.38263 28.6941C7.08025 28.7511 7.94574 28.7511 9.03788 28.7511H9.0709H22.9376H22.9706C24.0627 28.7511 24.9282 28.7511 25.6258 28.6941C26.3392 28.6358 26.9428 28.5142 27.494 28.2333C28.3878 27.7779 29.1144 27.0513 29.5698 26.1575C29.8507 25.6063 29.9723 25.0027 30.0306 24.2893C30.0876 23.5917 30.0876 22.7262 30.0876 21.6341V21.6011V15.7344V15.7014C30.0876 14.6092 30.0876 13.7437 30.0306 13.0461C29.9723 12.3327 29.8507 11.7291 29.5698 11.1779C29.1144 10.2842 28.3878 9.55751 27.494 9.10211C26.9428 8.82127 26.3392 8.69966 25.6258 8.64138C24.9282 8.58438 24.0627 8.58438 22.9706 8.58439H22.9376H17.8011ZM17.3225 10.0844C17.3329 10.0846 17.3434 10.0846 17.3538 10.0844H22.9376C24.07 10.0844 24.8743 10.085 25.5037 10.1364C26.1243 10.1871 26.5086 10.2835 26.813 10.4386C27.4246 10.7502 27.9217 11.2474 28.2333 11.8589C28.3885 12.1634 28.4849 12.5476 28.5356 13.1683C28.587 13.7977 28.5876 14.6019 28.5876 15.7344V21.6011C28.5876 22.7335 28.587 23.5378 28.5356 24.1672C28.4849 24.7878 28.3885 25.1721 28.2333 25.4765C27.9217 26.0881 27.4246 26.5852 26.813 26.8968C26.5086 27.052 26.1243 27.1483 25.5037 27.1991C24.8743 27.2505 24.07 27.2511 22.9376 27.2511H9.0709C7.93842 27.2511 7.13416 27.2505 6.50478 27.1991C5.88415 27.1483 5.4999 27.052 5.19543 26.8968C4.5839 26.5852 4.08672 26.0881 3.77513 25.4765C3.61999 25.1721 3.52361 24.7878 3.4729 24.1672C3.42148 23.5378 3.4209 22.7335 3.4209 21.6011V10.0844H17.3225Z" fill="#53B1FD"/>
</svg>
