<svg width="16" height="16" viewBox="0 0 16 16" fill="none" xmlns="http://www.w3.org/2000/svg">
<path fill-rule="evenodd" clip-rule="evenodd" d="M2.37931 1.25098C2.38695 1.25098 2.39458 1.25098 2.40221 1.25098H13.6022L13.6251 1.25098C13.7919 1.25095 13.9589 1.25093 14.1012 1.26255C14.2587 1.27543 14.4507 1.30621 14.6454 1.40539C14.9119 1.54121 15.1287 1.75793 15.2645 2.02449C15.3637 2.21915 15.3944 2.41116 15.4073 2.56871C15.4189 2.71099 15.4189 2.87801 15.4189 3.04477L15.4189 3.06765V3.51391C15.4189 3.52607 15.4189 3.53873 15.419 3.55182C15.4194 3.6891 15.4201 3.87504 15.3723 4.05667C15.3311 4.21356 15.2632 4.3622 15.1717 4.49611C15.0657 4.65114 14.9248 4.77243 14.8207 4.86198C14.8108 4.87052 14.8012 4.87878 14.792 4.88675L10.5282 8.58208C10.4935 8.61211 10.4669 8.63518 10.4441 8.65537C10.4346 8.66376 10.4265 8.67095 10.4197 8.67715C10.4195 8.68639 10.4193 8.69717 10.4192 8.70984C10.4189 8.74031 10.4189 8.77553 10.4189 8.82138V12.3066C10.4189 12.3132 10.419 12.3212 10.4191 12.3304C10.4202 12.42 10.4228 12.627 10.3505 12.8206C10.2902 12.9825 10.1919 13.1276 10.0641 13.2437C9.91111 13.3828 9.71796 13.4572 9.6344 13.4894C9.62576 13.4928 9.61829 13.4957 9.61216 13.4981L7.3455 14.4048C7.33901 14.4074 7.33246 14.41 7.32584 14.4126C7.22104 14.4546 7.10056 14.5029 6.99346 14.5348C6.87765 14.5694 6.67919 14.6173 6.44847 14.5693C6.16895 14.5112 5.92366 14.3452 5.76592 14.1072C5.63572 13.9108 5.60648 13.7087 5.59555 13.5884C5.58545 13.4771 5.5855 13.3473 5.58554 13.2344C5.58554 13.2273 5.58555 13.2202 5.58555 13.2132V8.82138C5.58555 8.77553 5.58554 8.74031 5.58524 8.70984C5.58511 8.69717 5.58495 8.68639 5.58475 8.67715C5.57789 8.67095 5.56986 8.66376 5.56037 8.65537C5.53753 8.63518 5.51092 8.61211 5.47627 8.58208L1.21242 4.88675C1.20323 4.87878 1.19364 4.87053 1.18371 4.86198C1.07967 4.77243 0.938733 4.65114 0.832742 4.49611C0.741187 4.3622 0.673312 4.21356 0.632077 4.05667C0.584341 3.87504 0.584983 3.6891 0.585456 3.55182C0.585502 3.53873 0.585545 3.52607 0.585545 3.51391V3.06765C0.585545 3.06002 0.585544 3.05238 0.585543 3.04475C0.585519 2.878 0.585494 2.71099 0.597119 2.56871C0.609991 2.41116 0.640771 2.21915 0.739953 2.02449C0.875773 1.75793 1.0925 1.54121 1.35906 1.40539C1.55371 1.30621 1.74572 1.27543 1.90327 1.26255C2.04555 1.25093 2.21256 1.25095 2.37931 1.25098ZM2.08853 2.75396C2.08587 2.82352 2.08555 2.91921 2.08555 3.06765V3.51391C2.08555 3.55976 2.08555 3.59498 2.08585 3.62546C2.08598 3.63812 2.08614 3.6489 2.08634 3.65814C2.0932 3.66435 2.10123 3.67154 2.11072 3.67992C2.13356 3.70011 2.16017 3.72318 2.19482 3.75321L6.45867 7.44855C6.46786 7.45652 6.47745 7.46477 6.48738 7.47331C6.59143 7.56286 6.73236 7.68415 6.83835 7.83918C6.9299 7.9731 6.99778 8.12174 7.03901 8.27863C7.08675 8.46026 7.08611 8.6462 7.08563 8.78347C7.08559 8.79657 7.08555 8.80922 7.08555 8.82138V12.8932L8.91888 12.1599V8.82138C8.91888 8.80922 8.91883 8.79657 8.91879 8.78348C8.91832 8.6462 8.91767 8.46026 8.96541 8.27863C9.00665 8.12174 9.07452 7.9731 9.16608 7.83918C9.27206 7.68416 9.41299 7.56286 9.51704 7.47332C9.52697 7.46477 9.53656 7.45652 9.54576 7.44855L13.8096 3.75321C13.8443 3.72318 13.8709 3.70011 13.8937 3.67992C13.9032 3.67154 13.9112 3.66435 13.9181 3.65814C13.9183 3.6489 13.9184 3.63812 13.9186 3.62546C13.9189 3.59498 13.9189 3.55976 13.9189 3.51391V3.06765C13.9189 2.91921 13.9186 2.82352 13.9159 2.75396C13.8463 2.75131 13.7507 2.75098 13.6022 2.75098H2.40221C2.25377 2.75098 2.15809 2.75131 2.08853 2.75396Z" fill="#314362"/>
</svg>
