<svg width="40" height="48" viewBox="0 0 40 48" fill="none" xmlns="http://www.w3.org/2000/svg">
<path d="M27.934 9.848C26.8404 9.84747 25.7918 9.41281 25.0185 8.63953C24.2452 7.86624 23.8105 6.81759 23.81 5.724V0H5.38203C4.67509 -4.8812e-08 3.97508 0.139267 3.32197 0.409863C2.66887 0.680459 2.07543 1.07707 1.57564 1.57705C1.07584 2.07703 0.679484 2.67057 0.409131 3.32378C0.138778 3.97698 -0.000262335 4.67707 3.71577e-07 5.38401V37.826C-0.000262335 38.5329 0.138778 39.233 0.409131 39.8862C0.679484 40.5394 1.07584 41.133 1.57564 41.6329C2.07543 42.1329 2.66887 42.5295 3.32197 42.8001C3.97508 43.0707 4.67509 43.21 5.38203 43.21H27.502C28.2089 43.21 28.909 43.0707 29.5621 42.8001C30.2152 42.5295 30.8086 42.1329 31.3083 41.6329C31.8081 41.133 32.2045 40.5394 32.4749 39.8862C32.7453 39.233 32.8843 38.5329 32.884 37.826V9.85L27.934 9.848Z" fill="white"/>
<path d="M27.934 9.848C26.8404 9.84747 25.7918 9.41281 25.0185 8.63953C24.2452 7.86624 23.8105 6.81759 23.81 5.724V0H5.38203C4.67509 -4.8812e-08 3.97508 0.139267 3.32197 0.409863C2.66887 0.680459 2.07543 1.07707 1.57564 1.57705C1.07584 2.07703 0.679484 2.67057 0.409131 3.32378C0.138778 3.97698 -0.000262335 4.67707 3.71577e-07 5.38401V37.826C-0.000262335 38.5329 0.138778 39.233 0.409131 39.8862C0.679484 40.5394 1.07584 41.133 1.57564 41.6329C2.07543 42.1329 2.66887 42.5295 3.32197 42.8001C3.97508 43.0707 4.67509 43.21 5.38203 43.21H27.502C28.2089 43.21 28.909 43.0707 29.5621 42.8001C30.2152 42.5295 30.8086 42.1329 31.3083 41.6329C31.8081 41.133 32.2045 40.5394 32.4749 39.8862C32.7453 39.233 32.8843 38.5329 32.884 37.826V9.85L27.934 9.848Z" fill="#00C650" fill-opacity="0.1"/>
<path d="M32.8841 9.848H27.9341C26.8405 9.84747 25.7918 9.41281 25.0186 8.63953C24.2453 7.86624 23.8106 6.81759 23.8101 5.724V0L32.8841 9.848Z" fill="#00C650"/>
<path d="M36.788 34.1201H11.78C10.0061 34.1201 8.56799 35.5582 8.56799 37.3321V44.7881C8.56799 46.562 10.0061 48.0001 11.78 48.0001H36.788C38.562 48.0001 40 46.562 40 44.7881V37.3321C40 35.5582 38.562 34.1201 36.788 34.1201Z" fill="#00C650"/>
<path d="M16.844 42.6738V44.1298H15.338V42.6738H16.844Z" fill="white"/>
<path d="M21.314 38.1162V42.2242C21.314 42.8549 21.1426 43.3396 20.8 43.6782C20.6087 43.8546 20.3839 43.9907 20.1389 44.0783C19.8939 44.1659 19.6337 44.2033 19.374 44.1882C19.0895 44.2035 18.8048 44.1622 18.5363 44.0668C18.2679 43.9713 18.021 43.8236 17.81 43.6322C17.4246 43.2602 17.2313 42.7269 17.23 42.0322H18.668C18.668 42.5942 18.882 42.8742 19.306 42.8742C19.676 42.8742 19.86 42.6582 19.86 42.2282V38.1202L21.314 38.1162Z" fill="white"/>
<path d="M23.726 42.0202V44.1302H22.272V38.1162H24.628C25.3413 38.1162 25.8853 38.2929 26.26 38.6462C26.4496 38.832 26.5977 39.0559 26.6945 39.303C26.7914 39.5502 26.8349 39.8151 26.822 40.0802C26.8274 40.4297 26.7412 40.7745 26.572 41.0802C26.3978 41.3784 26.1388 41.6179 25.828 41.7682C25.4535 41.946 25.0423 42.0323 24.628 42.0202H23.726ZM25.3419 40.0802C25.3419 39.5469 25.05 39.2802 24.466 39.2802H23.726V40.8462H24.466C25.05 40.8515 25.3419 40.5962 25.3419 40.0802Z" fill="white"/>
<path d="M32.216 38.5998C32.7002 38.964 33.026 39.5003 33.126 40.0978H31.586C31.4818 39.8885 31.3174 39.7151 31.114 39.5998C30.8849 39.4638 30.6223 39.3945 30.356 39.3998C30.1492 39.3914 29.943 39.4286 29.7522 39.5088C29.5615 39.589 29.3906 39.7102 29.252 39.8638C28.9586 40.2137 28.8092 40.6619 28.834 41.1178C28.834 41.6898 28.98 42.1292 29.272 42.4358C29.4362 42.5951 29.6318 42.7182 29.8464 42.7974C30.061 42.8767 30.2897 42.9102 30.518 42.8958C30.8443 42.9018 31.1637 42.8014 31.428 42.6098C31.6978 42.4083 31.8928 42.1226 31.982 41.7978H30.1439V40.7518H33.198V42.1898C33.0813 42.5478 32.8966 42.8799 32.654 43.1678C32.3912 43.4781 32.0644 43.7279 31.696 43.8998C31.2794 44.0923 30.8247 44.188 30.366 44.1798C29.8079 44.1945 29.2559 44.0613 28.766 43.7938C28.3177 43.5417 27.9528 43.1643 27.716 42.7078C27.4615 42.2136 27.3343 41.6636 27.346 41.1078C27.336 40.5554 27.4631 40.0091 27.716 39.5178C27.9524 39.0624 28.3157 38.6852 28.762 38.4318C29.2448 38.1664 29.7891 38.0333 30.3399 38.0458C31.0095 38.0166 31.6697 38.2116 32.216 38.5998Z" fill="white"/>
<path d="M20.86 29.2818H12.026C11.1612 29.2808 10.3321 28.9368 9.72063 28.3252C9.10912 27.7137 8.7651 26.8846 8.76404 26.0198V17.1858C8.7651 16.321 9.10912 15.4919 9.72063 14.8804C10.3321 14.2689 11.1612 13.9249 12.026 13.9238H20.86C21.7247 13.9249 22.5535 14.269 23.1647 14.8805C23.7759 15.4921 24.1195 16.3212 24.12 17.1858V26.0198C24.1195 26.8845 23.7759 27.7136 23.1647 28.3251C22.5535 28.9367 21.7247 29.2808 20.86 29.2818ZM12.026 15.3658C11.5435 15.3663 11.0809 15.5583 10.7397 15.8995C10.3985 16.2407 10.2066 16.7033 10.206 17.1858V26.0198C10.2066 26.5024 10.3985 26.965 10.7397 27.3062C11.0809 27.6474 11.5435 27.8393 12.026 27.8398H20.86C21.3424 27.8393 21.8048 27.6473 22.1457 27.3061C22.4866 26.9648 22.6781 26.5022 22.6781 26.0198V17.1858C22.6781 16.7035 22.4866 16.2409 22.1457 15.8996C21.8048 15.5584 21.3424 15.3664 20.86 15.3658H12.026Z" fill="#00C650"/>
<path d="M23.4 24.3398V26.0198C23.3995 26.6933 23.1317 27.339 22.6555 27.8153C22.1793 28.2915 21.5335 28.5593 20.8601 28.5598H12.0261C11.3524 28.5598 10.7064 28.2922 10.23 27.8158C9.75369 27.3395 9.48608 26.6934 9.48608 26.0198V23.1998C10.9001 22.8958 13.0541 22.7998 15.6681 23.8438L17.2881 22.2998L18.392 25.0998C18.392 25.0998 18.688 24.0698 19.644 24.2158C20.6 24.3618 22.1481 24.8798 22.8101 24.4378C22.9884 24.3349 23.198 24.3001 23.4 24.3398Z" fill="#00C650"/>
<path d="M20.306 18.9899C20.8483 18.9899 21.288 18.5502 21.288 18.0079C21.288 17.4655 20.8483 17.0259 20.306 17.0259C19.7636 17.0259 19.324 17.4655 19.324 18.0079C19.324 18.5502 19.7636 18.9899 20.306 18.9899Z" fill="#00C650"/>
</svg>
