<svg width="40" height="48" viewBox="0 0 40 48" fill="none" xmlns="http://www.w3.org/2000/svg">
<path d="M27.942 9.848C26.8484 9.84694 25.7998 9.41218 25.0263 8.63906C24.2529 7.86595 23.8176 6.81761 23.816 5.724V0H5.38198C3.95459 0 2.58566 0.567028 1.57634 1.57635C0.567022 2.58567 0 3.95461 0 5.382V37.826C0.00211967 39.252 0.570084 40.6189 1.57917 41.6265C2.58827 42.6341 3.95597 43.2 5.38198 43.2H27.502C28.9294 43.2 30.2983 42.633 31.3076 41.6237C32.3169 40.6143 32.884 39.2454 32.884 37.818V9.848H27.942Z" fill="white"/>
<path d="M27.942 9.848C26.8484 9.84694 25.7998 9.41218 25.0263 8.63906C24.2529 7.86595 23.8176 6.81761 23.816 5.724V0H5.38198C3.95459 0 2.58566 0.567028 1.57634 1.57635C0.567022 2.58567 0 3.95461 0 5.382V37.826C0.00211967 39.252 0.570084 40.6189 1.57917 41.6265C2.58827 42.6341 3.95597 43.2 5.38198 43.2H27.502C28.9294 43.2 30.2983 42.633 31.3076 41.6237C32.3169 40.6143 32.884 39.2454 32.884 37.818V9.848H27.942Z" fill="#FF3E4C" fill-opacity="0.2"/>
<path d="M32.884 9.848H27.942C26.8484 9.84694 25.7999 9.41218 25.0264 8.63906C24.2529 7.86595 23.8176 6.81761 23.816 5.724V0L32.884 9.848Z" fill="#FF3E4C"/>
<path d="M36.788 34.1201H11.78C10.006 34.1201 8.56799 35.5581 8.56799 37.3321V44.7881C8.56799 46.562 10.006 48.0001 11.78 48.0001H36.788C38.5619 48.0001 40 46.562 40 44.7881V37.3321C40 35.5581 38.5619 34.1201 36.788 34.1201Z" fill="#FF3E4C"/>
<path d="M13.3419 42.6738V44.1278H11.8359V42.6738H13.3419Z" fill="white"/>
<path d="M17.804 38.1143V42.2223C17.804 42.8523 17.632 43.3363 17.288 43.6783C17.097 43.8546 16.8726 43.9906 16.6279 44.0782C16.3832 44.1659 16.1234 44.2033 15.864 44.1883C15.579 44.2032 15.294 44.1616 15.0252 44.0658C14.7564 43.97 14.5093 43.822 14.298 43.6303C13.912 43.2603 13.72 42.7243 13.72 42.0303H15.158C15.158 42.5929 15.3706 42.8743 15.796 42.8743C16.164 42.8743 16.348 42.6583 16.348 42.2263V38.1183L17.804 38.1143Z" fill="white"/>
<path d="M23.3421 43.2756C23.1687 43.5519 22.9204 43.7731 22.626 43.9136C22.2686 44.0813 21.8767 44.1628 21.4821 44.1516C20.8873 44.1763 20.3013 44.0025 19.8161 43.6576C19.6006 43.4968 19.4243 43.2892 19.3003 43.0506C19.1763 42.812 19.1078 42.5484 19.1001 42.2796H20.6481C20.6598 42.4824 20.7468 42.6736 20.8921 42.8156C21.0354 42.9496 21.2259 43.0215 21.422 43.0156C21.5845 43.0243 21.7439 42.969 21.8661 42.8616C21.9188 42.8095 21.9601 42.7471 21.9877 42.6783C22.0152 42.6095 22.0283 42.5357 22.026 42.4616C22.0283 42.3913 22.0164 42.3212 21.9909 42.2556C21.9655 42.1899 21.9271 42.1301 21.8781 42.0796C21.7718 41.9729 21.6463 41.8874 21.5081 41.8276C21.3601 41.7636 21.1561 41.6856 20.8961 41.5936C20.5773 41.4886 20.266 41.3623 19.9641 41.2156C19.7164 41.0872 19.5036 40.9005 19.3441 40.6716C19.1598 40.3938 19.0687 40.0646 19.0841 39.7316C19.0756 39.4015 19.1708 39.077 19.3561 38.8036C19.5457 38.5372 19.8062 38.3294 20.1081 38.2036C20.4579 38.0624 20.8329 37.9943 21.2101 38.0036C21.7824 37.9726 22.3478 38.1408 22.8101 38.4796C23.0061 38.6397 23.1668 38.8389 23.2818 39.0644C23.3968 39.2899 23.4636 39.5369 23.4781 39.7896H21.9041C21.8845 39.6128 21.808 39.4471 21.6861 39.3176C21.6233 39.2581 21.5491 39.2121 21.4679 39.1821C21.3868 39.1522 21.3004 39.1391 21.2141 39.1436C21.0646 39.136 20.9176 39.1845 20.8021 39.2796C20.7475 39.3303 20.705 39.3925 20.6777 39.4617C20.6503 39.5309 20.6388 39.6054 20.6441 39.6796C20.6418 39.8139 20.6921 39.9438 20.7841 40.0416C20.8848 40.145 21.0052 40.2272 21.1381 40.2836C21.2801 40.3456 21.4841 40.4256 21.7501 40.5216C22.0743 40.6264 22.3899 40.7561 22.6941 40.9096C22.945 41.0427 23.1609 41.2332 23.324 41.4656C23.5107 41.7477 23.6031 42.0817 23.5881 42.4196C23.5846 42.7219 23.4996 43.0176 23.3421 43.2756Z" fill="white"/>
<path d="M29.1146 38.4001C29.5722 38.66 29.9504 39.0396 30.2086 39.4981C30.4792 39.9824 30.6172 40.5295 30.6086 41.0841C30.619 41.6434 30.4809 42.1955 30.2086 42.6841C29.9495 43.1439 29.5699 43.5242 29.1106 43.7841C28.6431 44.0511 28.113 44.1892 27.5746 44.1841C27.0363 44.1886 26.5064 44.0506 26.0386 43.7841C25.5799 43.5242 25.2009 43.1438 24.9426 42.6841C24.6694 42.1959 24.5313 41.6435 24.5426 41.0841C24.5323 40.5293 24.6704 39.9817 24.9426 39.4981C25.2022 39.0399 25.5809 38.6605 26.0386 38.4001C26.5064 38.1337 27.0363 37.9957 27.5746 38.0001C28.1143 37.9951 28.6456 38.1331 29.1146 38.4001ZM26.4346 39.8221C26.1386 40.1738 25.9884 40.6253 26.0146 41.0841C25.9905 41.5421 26.1406 41.9922 26.4346 42.3441C26.5783 42.5003 26.7545 42.6232 26.9507 42.704C27.147 42.7849 27.3586 42.8218 27.5706 42.8121C27.782 42.8212 27.9928 42.784 28.1883 42.7032C28.3838 42.6223 28.5593 42.4998 28.7026 42.3441C29.0003 41.9939 29.1527 41.5431 29.1286 41.0841C29.1521 40.6265 29.0013 40.177 28.7066 39.8261C28.563 39.6698 28.3868 39.5469 28.1905 39.4661C27.9943 39.3852 27.7827 39.3484 27.5706 39.3581C27.3589 39.3483 27.1476 39.3847 26.9514 39.4648C26.7552 39.5449 26.5789 39.6669 26.4346 39.8221Z" fill="white"/>
<path d="M36.486 44.2142H35.032L32.596 40.5222V44.2142H31.142V38.2002H32.596L35.03 41.9262V38.2002H36.484L36.486 44.2142Z" fill="white"/>
<path d="M13.422 30.828H12.98C11.96 30.828 11.1473 30.5286 10.542 29.93C9.93666 29.3313 9.63465 28.5226 9.63599 27.504V24.24C9.63599 22.992 9.13933 22.368 8.146 22.368V20.836C9.13933 20.836 9.63599 20.212 9.63599 18.964V15.7C9.63599 14.68 9.93799 13.8706 10.542 13.272C11.146 12.6733 11.9586 12.3746 12.98 12.376H13.422V13.908H13.12C11.92 13.908 11.32 14.586 11.32 15.942V19.286C11.3053 20.486 10.8387 21.2446 9.92 21.562V21.642C10.82 21.938 11.2867 22.6766 11.32 23.858V27.258C11.32 28.614 11.92 29.292 13.12 29.292H13.422V30.828Z" fill="#FF3E4C"/>
<path d="M19.46 30.8279V29.2959H19.762C20.962 29.2959 21.562 28.6179 21.562 27.2619V23.8619C21.5886 22.6792 22.0553 21.9406 22.962 21.6459V21.5659C22.0473 21.2432 21.5806 20.4846 21.562 19.2899V15.9459C21.562 14.5899 20.962 13.9119 19.762 13.9119H19.46V12.3799H19.904C20.924 12.3799 21.736 12.6786 22.34 13.2759C22.944 13.8732 23.2466 14.6825 23.248 15.7039V18.9679C23.248 20.2159 23.7446 20.8399 24.738 20.8399V22.3719C23.7446 22.3719 23.248 22.9959 23.248 24.2439V27.5079C23.248 28.5279 22.9453 29.3366 22.34 29.9339C21.7346 30.5312 20.9226 30.8306 19.904 30.8319L19.46 30.8279Z" fill="#FF3E4C"/>
<path d="M16.276 17.234C17.0083 17.234 17.602 16.6404 17.602 15.9081C17.602 15.1757 17.0083 14.582 16.276 14.582C15.5436 14.582 14.95 15.1757 14.95 15.9081C14.95 16.6404 15.5436 17.234 16.276 17.234Z" fill="#FF3E4C"/>
<path d="M16.276 22.9279C17.0083 22.9279 17.602 22.3342 17.602 21.6019C17.602 20.8696 17.0083 20.2759 16.276 20.2759C15.5436 20.2759 14.95 20.8696 14.95 21.6019C14.95 22.3342 15.5436 22.9279 16.276 22.9279Z" fill="#FF3E4C"/>
<path d="M16.276 28.6222C17.0083 28.6222 17.602 28.0285 17.602 27.2962C17.602 26.5639 17.0083 25.9702 16.276 25.9702C15.5436 25.9702 14.95 26.5639 14.95 27.2962C14.95 28.0285 15.5436 28.6222 16.276 28.6222Z" fill="#FF3E4C"/>
</svg>
