<svg width="32" height="32" viewBox="0 0 32 32" fill="none" xmlns="http://www.w3.org/2000/svg">
<g>
<path fill-rule="evenodd" clip-rule="evenodd" d="M8.58724 10.6676C8.58724 6.57153 11.9078 3.25098 16.0039 3.25098C20.1 3.25098 23.4206 6.57153 23.4206 10.6676V13.9312C23.7375 13.9395 24.027 13.953 24.2922 13.9746C25.0056 14.0329 25.6092 14.1545 26.1604 14.4354C27.0541 14.8908 27.7808 15.6174 28.2362 16.5112C28.517 17.0624 28.6386 17.666 28.6969 18.3794C28.7539 19.077 28.7539 19.9425 28.7539 21.0346V21.0676V21.601V21.634C28.7539 22.7261 28.7539 23.5916 28.6969 24.2892C28.6386 25.0026 28.517 25.6063 28.2362 26.1574C27.7808 27.0512 27.0541 27.7779 26.1604 28.2333C25.6092 28.5141 25.0056 28.6357 24.2922 28.694C23.5946 28.751 22.7291 28.751 21.6369 28.751H21.6039H10.4039H10.3709C9.27875 28.751 8.41326 28.751 7.71564 28.694C7.00225 28.6357 6.39863 28.5141 5.84745 28.2333C4.95368 27.7779 4.22702 27.0512 3.77163 26.1574C3.49079 25.6063 3.36918 25.0026 3.31089 24.2892C3.2539 23.5916 3.2539 22.7261 3.25391 21.634L3.25391 21.601V21.0676L3.25391 21.0346C3.2539 19.9425 3.2539 19.077 3.31089 18.3794C3.36918 17.666 3.49079 17.0624 3.77163 16.5112C4.22702 15.6174 4.95368 14.8908 5.84745 14.4354C6.39863 14.1545 7.00225 14.0329 7.71564 13.9746C7.98084 13.953 8.27029 13.9395 8.58724 13.9312V10.6676ZM10.0872 13.9177C10.1801 13.9176 10.2746 13.9176 10.3709 13.9176H10.4039H21.6039H21.6369C21.7332 13.9176 21.8278 13.9176 21.9206 13.9177V10.6676C21.9206 7.39996 19.2716 4.75098 16.0039 4.75098C12.7362 4.75098 10.0872 7.39996 10.0872 10.6676V13.9177ZM7.83779 15.4696C7.21716 15.5204 6.83291 15.6167 6.52844 15.7719C5.91691 16.0835 5.41972 16.5806 5.10814 17.1922C4.953 17.4966 4.85662 17.8809 4.80591 18.5015C4.75449 19.1309 4.75391 19.9352 4.75391 21.0676V21.601C4.75391 22.7335 4.75449 23.5377 4.80591 24.1671C4.85662 24.7877 4.953 25.172 5.10814 25.4764C5.41972 26.088 5.91691 26.5852 6.52844 26.8967C6.83291 27.0519 7.21716 27.1483 7.83779 27.199C8.46717 27.2504 9.27143 27.251 10.4039 27.251H21.6039C22.7364 27.251 23.5406 27.2504 24.17 27.199C24.7907 27.1483 25.1749 27.0519 25.4794 26.8967C26.0909 26.5852 26.5881 26.088 26.8997 25.4764C27.0548 25.172 27.1512 24.7877 27.2019 24.1671C27.2533 23.5377 27.2539 22.7335 27.2539 21.601V21.0676C27.2539 19.9352 27.2533 19.1309 27.2019 18.5015C27.1512 17.8809 27.0548 17.4966 26.8997 17.1922C26.5881 16.5806 26.0909 16.0835 25.4794 15.7719C25.1749 15.6167 24.7907 15.5204 24.17 15.4696C23.5406 15.4182 22.7364 15.4176 21.6039 15.4176H10.4039C9.27143 15.4176 8.46717 15.4182 7.83779 15.4696Z" fill="#FD6F8E"/>
</g>
</svg>
