<svg width="40" height="48" viewBox="0 0 40 48" fill="none" xmlns="http://www.w3.org/2000/svg">
<path d="M27.934 9.848C26.8406 9.84694 25.7922 9.41211 25.0191 8.63894C24.2459 7.86577 23.8111 6.81743 23.81 5.724V0H5.38199C3.9546 0 2.58568 0.567034 1.57635 1.57635C0.567034 2.58568 0 3.9546 0 5.38199V37.826C0.00211967 39.252 0.570084 40.6189 1.57917 41.6265C2.58827 42.6341 3.95598 43.2 5.38199 43.2H27.504C28.9304 43.2 30.2984 42.6338 31.3075 41.6258C32.3167 40.6177 32.8844 39.2504 32.886 37.824V9.848H27.934Z" fill="white"/>
<path d="M27.934 9.848C26.8406 9.84694 25.7922 9.41211 25.0191 8.63894C24.2459 7.86577 23.8111 6.81743 23.81 5.724V0H5.38199C3.9546 0 2.58568 0.567034 1.57635 1.57635C0.567034 2.58568 0 3.9546 0 5.38199V37.826C0.00211967 39.252 0.570084 40.6189 1.57917 41.6265C2.58827 42.6341 3.95598 43.2 5.38199 43.2H27.504C28.9304 43.2 30.2984 42.6338 31.3075 41.6258C32.3167 40.6177 32.8844 39.2504 32.886 37.824V9.848H27.934Z" fill="#005FAD" fill-opacity="0.2"/>
<path d="M32.886 9.848H27.934C26.8406 9.84694 25.7922 9.41211 25.0191 8.63894C24.2459 7.86577 23.8111 6.81743 23.81 5.724V0L32.886 9.848Z" fill="#005FAD"/>
<path d="M36.788 34.1201H11.78C10.0061 34.1201 8.56799 35.5582 8.56799 37.3321V44.7881C8.56799 46.562 10.0061 48.0001 11.78 48.0001H36.788C38.5619 48.0001 40 46.562 40 44.7881V37.3321C40 35.5582 38.5619 34.1201 36.788 34.1201Z" fill="#005FAD"/>
<path d="M15.812 42.6738V44.1278H14.306V42.6738H15.812Z" fill="white"/>
<path d="M18.024 42.0203V44.1283H16.568V38.1143H18.924C19.64 38.1143 20.1847 38.2916 20.558 38.6463C20.7475 38.8321 20.8955 39.056 20.9924 39.3031C21.0893 39.5503 21.1327 39.8151 21.12 40.0803C21.1263 40.4301 21.0393 40.7752 20.868 41.0803C20.6943 41.3788 20.4352 41.6184 20.124 41.7683C19.7498 41.9467 19.3384 42.0331 18.924 42.0203H18.024ZM19.64 40.0803C19.64 39.5469 19.348 39.2803 18.764 39.2803H18.024V40.8463H18.764C19.348 40.8516 19.64 40.5963 19.64 40.0803Z" fill="white"/>
<path d="M27.176 44.1283H25.722L23.286 40.4363V44.1283H21.832V38.1143H23.286L25.72 41.8403V38.1143H27.174L27.176 44.1283Z" fill="white"/>
<path d="M32.858 38.5998C33.3433 38.963 33.6694 39.4997 33.768 40.0978H32.228C32.127 39.8836 31.9648 39.704 31.762 39.5818C31.5328 39.4459 31.2703 39.3767 31.004 39.3818C30.7971 39.3732 30.5908 39.4102 30.3997 39.49C30.2086 39.5698 30.0373 39.6906 29.898 39.8438C29.6058 40.195 29.4572 40.6436 29.482 41.0998C29.482 41.6718 29.628 42.1111 29.92 42.4178C30.0841 42.5771 30.2797 42.7004 30.4943 42.7796C30.7089 42.8588 30.9377 42.8923 31.166 42.8778C31.4923 42.8834 31.8116 42.7831 32.076 42.5918C32.3453 42.3902 32.5396 42.1044 32.628 41.7798H30.792V40.7338H33.846V42.1998C33.7277 42.5575 33.5424 42.8894 33.3 43.1778C33.0382 43.4882 32.712 43.738 32.344 43.9098C31.9268 44.1024 31.4714 44.1981 31.012 44.1898C30.4538 44.2039 29.9017 44.0701 29.412 43.8018C28.9638 43.5505 28.5989 43.1738 28.362 42.7178C28.1085 42.2268 27.9813 41.6803 27.992 41.1278C27.98 40.572 28.1072 40.0219 28.362 39.5278C28.5985 39.073 28.9619 38.6964 29.408 38.4438C29.8906 38.178 30.4351 38.0448 30.986 38.0578C31.6529 38.0251 32.3117 38.2158 32.858 38.5998Z" fill="white"/>
<path d="M10.94 13.3438H8.19V16.0938H10.94V13.3438Z" fill="#005FAD"/>
<path d="M13.692 16.0938H10.942V18.8438H13.692V16.0938Z" fill="#005FAD"/>
<path d="M16.442 13.3438H13.692V16.0938H16.442V13.3438Z" fill="#005FAD"/>
<path d="M19.192 16.0938H16.442V18.8438H19.192V16.0938Z" fill="#005FAD"/>
<path d="M21.946 13.3438H19.196V16.0938H21.946V13.3438Z" fill="#005FAD"/>
<path d="M24.696 16.0938H21.946V18.8438H24.696V16.0938Z" fill="#005FAD"/>
<path d="M10.94 18.8398H8.19V21.5898H10.94V18.8398Z" fill="#005FAD"/>
<path d="M13.692 21.5898H10.942V24.3398H13.692V21.5898Z" fill="#005FAD"/>
<path d="M16.442 18.8398H13.692V21.5898H16.442V18.8398Z" fill="#005FAD"/>
<path d="M19.192 21.5898H16.442V24.3398H19.192V21.5898Z" fill="#005FAD"/>
<path d="M21.946 18.8398H19.196V21.5898H21.946V18.8398Z" fill="#005FAD"/>
<path d="M24.696 21.5898H21.946V24.3398H24.696V21.5898Z" fill="#005FAD"/>
<path d="M10.94 24.3618H8.19V27.1118H10.94V24.3618Z" fill="#005FAD"/>
<path d="M13.692 27.1118H10.942V29.8618H13.692V27.1118Z" fill="#005FAD"/>
<path d="M16.442 24.3618H13.692V27.1118H16.442V24.3618Z" fill="#005FAD"/>
<path d="M19.192 27.1118H16.442V29.8618H19.192V27.1118Z" fill="#005FAD"/>
<path d="M21.946 24.3618H19.196V27.1118H21.946V24.3618Z" fill="#005FAD"/>
<path d="M24.696 27.1118H21.946V29.8618H24.696V27.1118Z" fill="#005FAD"/>
</svg>
