<svg width="16" height="16" viewBox="0 0 16 16" fill="none" xmlns="http://www.w3.org/2000/svg">
<path fill-rule="evenodd" clip-rule="evenodd" d="M4.15629 5.55631C4.15629 3.34429 5.94948 1.5511 8.16149 1.5511C10.3735 1.5511 12.1667 3.34429 12.1667 5.55631V6.78304C12.1914 6.78474 12.2158 6.78657 12.2397 6.78853C12.6118 6.81893 12.9627 6.88476 13.2949 7.05405C13.8036 7.31321 14.2171 7.72673 14.4762 8.23536C14.6455 8.56761 14.7114 8.91848 14.7418 9.29054C14.7709 9.64697 14.7709 10.083 14.7709 10.6041V10.6344V10.8948V10.9251C14.7709 11.4463 14.7709 11.8823 14.7418 12.2387C14.7114 12.6108 14.6455 12.9617 14.4762 13.2939C14.2171 13.8025 13.8036 14.2161 13.2949 14.4752C12.9627 14.6445 12.6118 14.7103 12.2397 14.7407C11.8833 14.7699 11.4473 14.7698 10.9262 14.7698H10.8959H5.42712H5.39683C4.8757 14.7698 4.43967 14.7699 4.08324 14.7407C3.71117 14.7103 3.3603 14.6445 3.02806 14.4752C2.51943 14.2161 2.1059 13.8025 1.84675 13.2939C1.67746 12.9617 1.61162 12.6108 1.58123 12.2387C1.5521 11.8823 1.55211 11.4463 1.55212 10.9252L1.55212 10.8948V10.6344L1.55212 10.6041C1.55211 10.083 1.5521 9.64697 1.58123 9.29054C1.61162 8.91848 1.67746 8.56761 1.84675 8.23536C2.10591 7.72673 2.51943 7.31321 3.02806 7.05405C3.3603 6.88476 3.71117 6.81893 4.08324 6.78853C4.10723 6.78657 4.13158 6.78474 4.15629 6.78304V5.55631ZM5.65629 6.75943H10.6667V5.55631C10.6667 4.17272 9.54508 3.0511 8.16149 3.0511C6.77791 3.0511 5.65629 4.17272 5.65629 5.55631V6.75943ZM4.20539 8.28355C3.92608 8.30637 3.79459 8.34697 3.70904 8.39056C3.48266 8.50591 3.2986 8.68996 3.18326 8.91634C3.13967 9.00189 3.09906 9.13338 3.07624 9.41269C3.05271 9.70075 3.05212 10.0751 3.05212 10.6344V10.8948C3.05212 11.4541 3.05271 11.8285 3.07624 12.1166C3.09906 12.3959 3.13967 12.5274 3.18326 12.6129C3.2986 12.8393 3.48266 13.0234 3.70904 13.1387C3.79459 13.1823 3.92608 13.2229 4.20539 13.2457C4.49345 13.2693 4.86782 13.2698 5.42712 13.2698H10.8959C11.4552 13.2698 11.8295 13.2693 12.1176 13.2457C12.3969 13.2229 12.5284 13.1823 12.6139 13.1387C12.8403 13.0234 13.0244 12.8393 13.1397 12.6129C13.1833 12.5274 13.2239 12.3959 13.2467 12.1166C13.2703 11.8285 13.2709 11.4541 13.2709 10.8948V10.6344C13.2709 10.0751 13.2703 9.70075 13.2467 9.41269C13.2239 9.13338 13.1833 9.00189 13.1397 8.91634C13.0244 8.68996 12.8403 8.50591 12.6139 8.39056C12.5284 8.34697 12.3969 8.30637 12.1176 8.28355C11.8295 8.26001 11.4552 8.25943 10.8959 8.25943H5.42712C4.86782 8.25943 4.49345 8.26001 4.20539 8.28355Z" fill="#314362"/>
</svg>
