<svg width="20" height="20" viewBox="0 0 20 20" fill="none" xmlns="http://www.w3.org/2000/svg">
<path fill-rule="evenodd" clip-rule="evenodd" d="M1.75244 10.001C1.75244 5.44463 5.44609 1.75098 10.0024 1.75098C12.2814 1.75098 14.3458 2.67604 15.8381 4.16937C16.4215 4.75322 17.0514 5.48953 17.5858 6.14656V3.33431C17.5858 2.9201 17.9216 2.58431 18.3358 2.58431C18.75 2.58431 19.0858 2.9201 19.0858 3.33431V8.33431C19.0858 8.74852 18.75 9.08431 18.3358 9.08431H13.3358C12.9216 9.08431 12.5858 8.74852 12.5858 8.33431C12.5858 7.9201 12.9216 7.58431 13.3358 7.58431H16.816C16.7922 7.55418 16.768 7.52373 16.7436 7.49298C16.1605 6.75941 15.4247 5.87779 14.7771 5.22966C13.5546 4.00636 11.8674 3.25098 10.0024 3.25098C6.27452 3.25098 3.25244 6.27305 3.25244 10.001C3.25244 13.7289 6.27452 16.751 10.0024 16.751C13.0787 16.751 15.6761 14.6925 16.4887 11.8764C16.6035 11.4784 17.0193 11.2489 17.4172 11.3637C17.8152 11.4786 18.0447 11.8943 17.9299 12.2922C16.937 15.7332 13.7647 18.251 10.0024 18.251C5.44609 18.251 1.75244 14.5573 1.75244 10.001Z" fill="#002462"/>
</svg>
