<svg width="21" height="20" viewBox="0 0 21 20" fill="none" xmlns="http://www.w3.org/2000/svg">
<path fill-rule="evenodd" clip-rule="evenodd" d="M9.66911 3.25098C6.40142 3.25098 3.75244 5.89996 3.75244 9.16764C3.75244 12.4353 6.40142 15.0843 9.66911 15.0843C11.2655 15.0843 12.7142 14.4521 13.7786 13.4243C13.7993 13.3969 13.8221 13.3706 13.8471 13.3456C13.8721 13.3207 13.8984 13.2978 13.9258 13.2771C14.9535 12.2128 15.5858 10.764 15.5858 9.16764C15.5858 5.89996 12.9368 3.25098 9.66911 3.25098ZM15.4171 13.855C16.4602 12.5774 17.0858 10.9456 17.0858 9.16764C17.0858 5.07153 13.7652 1.75098 9.66911 1.75098C5.573 1.75098 2.25244 5.07153 2.25244 9.16764C2.25244 13.2638 5.573 16.5843 9.66911 16.5843C11.447 16.5843 13.0789 15.9587 14.3564 14.9156L17.4721 18.0313C17.765 18.3242 18.2399 18.3242 18.5328 18.0313C18.8257 17.7384 18.8257 17.2635 18.5328 16.9706L15.4171 13.855Z" fill="#314362"/>
</svg>
