<svg width="32" height="32" viewBox="0 0 32 32" fill="none" xmlns="http://www.w3.org/2000/svg">
<g>
<path fill-rule="evenodd" clip-rule="evenodd" d="M24.0039 3.41797C22.209 3.41797 20.7539 4.87304 20.7539 6.66797C20.7539 7.2425 20.903 7.78221 21.1646 8.25053C21.1764 8.26749 21.1877 8.28508 21.1983 8.30328C21.2089 8.32133 21.2186 8.33964 21.2274 8.35817C21.7981 9.29353 22.8281 9.91797 24.0039 9.91797C25.7988 9.91797 27.2539 8.46289 27.2539 6.66797C27.2539 4.87304 25.7988 3.41797 24.0039 3.41797ZM20.3297 9.67859C21.2008 10.7405 22.5232 11.418 24.0039 11.418C26.6273 11.418 28.7539 9.29132 28.7539 6.66797C28.7539 4.04462 26.6273 1.91797 24.0039 1.91797C21.3806 1.91797 19.2539 4.04462 19.2539 6.66797C19.2539 7.27283 19.367 7.85129 19.5731 8.38337L11.6781 12.9907C10.807 11.9288 9.48458 11.2513 8.00391 11.2513C5.38055 11.2513 3.25391 13.3779 3.25391 16.0013C3.25391 18.6247 5.38055 20.7513 8.00391 20.7513C9.48474 20.7513 10.8073 20.0737 11.6784 19.0116L19.5754 23.6133C19.3678 24.147 19.2539 24.7275 19.2539 25.3346C19.2539 27.958 21.3806 30.0846 24.0039 30.0846C26.6273 30.0846 28.7539 27.958 28.7539 25.3346C28.7539 22.7113 26.6273 20.5846 24.0039 20.5846C22.5255 20.5846 21.2049 21.26 20.3337 22.3191L12.4349 17.7163C12.6409 17.1843 12.7539 16.606 12.7539 16.0013C12.7539 15.3964 12.6408 14.818 12.4347 14.2859L20.3297 9.67859ZM10.7804 14.3111C10.7892 14.3296 10.7989 14.3479 10.8095 14.366C10.8201 14.3842 10.8314 14.4018 10.8432 14.4187C11.1048 14.8871 11.2539 15.4268 11.2539 16.0013C11.2539 16.5758 11.1048 17.1155 10.8432 17.5839C10.8313 17.6009 10.8199 17.6187 10.8092 17.637C10.7988 17.6549 10.7892 17.6731 10.7804 17.6915C10.2098 18.6269 9.17975 19.2513 8.00391 19.2513C6.20898 19.2513 4.75391 17.7962 4.75391 16.0013C4.75391 14.2064 6.20898 12.7513 8.00391 12.7513C9.17975 12.7513 10.2098 13.3757 10.7804 14.3111ZM21.133 23.81C21.1621 23.776 21.1886 23.739 21.2119 23.6989C21.2346 23.6601 21.2533 23.62 21.2683 23.5792C21.8464 22.6802 22.8556 22.0846 24.0039 22.0846C25.7988 22.0846 27.2539 23.5397 27.2539 25.3346C27.2539 27.1296 25.7988 28.5846 24.0039 28.5846C22.209 28.5846 20.7539 27.1296 20.7539 25.3346C20.7539 24.7837 20.891 24.2647 21.133 23.81Z" fill="#8098F9"/>
</g>
</svg>
