<svg width="20" height="20" viewBox="0 0 20 20" fill="none" xmlns="http://www.w3.org/2000/svg">
<g clip-path="url(#clip0_543_8858)">
<path fill-rule="evenodd" clip-rule="evenodd" d="M10.0024 2.41797C5.81424 2.41797 2.41907 5.81314 2.41907 10.0013C2.41907 14.1895 5.81424 17.5846 10.0024 17.5846C14.1906 17.5846 17.5857 14.1895 17.5857 10.0013C17.5857 5.81314 14.1906 2.41797 10.0024 2.41797ZM0.919067 10.0013C0.919067 4.98472 4.98581 0.917969 10.0024 0.917969C15.019 0.917969 19.0857 4.98472 19.0857 10.0013C19.0857 15.0179 15.019 19.0846 10.0024 19.0846C4.98581 19.0846 0.919067 15.0179 0.919067 10.0013ZM14.2827 6.97097C14.5756 7.26387 14.5756 7.73874 14.2827 8.03163L9.28273 13.0316C8.98984 13.3245 8.51496 13.3245 8.22207 13.0316L5.72207 10.5316C5.42918 10.2387 5.42918 9.76387 5.72207 9.47097C6.01496 9.17808 6.48984 9.17808 6.78273 9.47097L8.7524 11.4406L13.2221 6.97097C13.515 6.67808 13.9898 6.67808 14.2827 6.97097Z" fill="#4BD394"/>
</g>
<defs>
<clipPath id="clip0_543_8858">
<rect width="20" height="20" fill="white"/>
</clipPath>
</defs>
</svg>
