<svg width="40" height="48" viewBox="0 0 40 48" fill="none" xmlns="http://www.w3.org/2000/svg">
<path d="M27.9326 9.848C26.8392 9.84694 25.7909 9.41211 25.0178 8.63894C24.2447 7.86577 23.8099 6.81743 23.8088 5.724V0H5.38374C3.95589 0 2.5865 0.567233 1.57685 1.57693C0.567205 2.58662 0 3.95608 0 5.38401V37.826C0 39.2539 0.567205 40.6234 1.57685 41.6331C2.5865 42.6428 3.95589 43.21 5.38374 43.21H27.5026C28.2095 43.21 28.9095 43.0707 29.5626 42.8001C30.2157 42.5295 30.809 42.1329 31.3088 41.6329C31.8086 41.133 32.2049 40.5394 32.4753 39.8862C32.7456 39.233 32.8846 38.5329 32.8843 37.826V9.85L27.9326 9.848Z" fill="white"/>
<path d="M27.9326 9.848C26.8392 9.84694 25.7909 9.41211 25.0178 8.63894C24.2447 7.86577 23.8099 6.81743 23.8088 5.724V0H5.38374C3.95589 0 2.5865 0.567233 1.57685 1.57693C0.567205 2.58662 0 3.95608 0 5.38401V37.826C0 39.2539 0.567205 40.6234 1.57685 41.6331C2.5865 42.6428 3.95589 43.21 5.38374 43.21H27.5026C28.2095 43.21 28.9095 43.0707 29.5626 42.8001C30.2157 42.5295 30.809 42.1329 31.3088 41.6329C31.8086 41.133 32.2049 40.5394 32.4753 39.8862C32.7456 39.233 32.8846 38.5329 32.8843 37.826V9.85L27.9326 9.848Z" fill="#FF9908" fill-opacity="0.2"/>
<path d="M32.8844 9.848H27.9327C26.8393 9.84694 25.791 9.41211 25.0179 8.63894C24.2447 7.86577 23.8099 6.81743 23.8088 5.724V0L32.8844 9.848Z" fill="#FF9908"/>
<path d="M36.7882 34.1201H11.7814C10.0076 34.1201 8.56958 35.5582 8.56958 37.3321V44.7881C8.56958 46.562 10.0076 48.0001 11.7814 48.0001H36.7882C38.562 48.0001 40 46.562 40 44.7881V37.3321C40 35.5582 38.562 34.1201 36.7882 34.1201Z" fill="#FF9908"/>
<path d="M15.9992 42.6738V44.1298H14.4933V42.6738H15.9992Z" fill="white"/>
<path d="M20.8349 43.3119C20.663 43.5886 20.4152 43.81 20.121 43.9499C19.763 44.1183 19.3704 44.1998 18.975 44.1879C18.3807 44.2122 17.7949 44.0392 17.3091 43.6959C17.0938 43.535 16.9177 43.3275 16.794 43.0888C16.6704 42.8502 16.6024 42.5866 16.5951 42.3179H18.1431C18.1541 42.5205 18.2404 42.7116 18.385 42.8539C18.529 42.9881 18.7203 43.06 18.917 43.0539C19.0786 43.063 19.2373 43.0085 19.359 42.9019C19.4123 42.8502 19.4543 42.7879 19.4822 42.719C19.5101 42.6501 19.5233 42.5762 19.521 42.5019C19.5231 42.4311 19.511 42.3606 19.4852 42.2946C19.4594 42.2286 19.4206 42.1685 19.371 42.1179C19.2656 42.0107 19.1398 41.9257 19.001 41.8679C18.853 41.8026 18.649 41.7246 18.3891 41.6339C18.0703 41.5288 17.759 41.4025 17.4571 41.2559C17.2089 41.1273 16.9961 40.9398 16.8371 40.7099C16.6526 40.4322 16.5616 40.1029 16.5772 39.7699C16.5688 39.4404 16.6639 39.1165 16.8491 38.8439C17.0385 38.5764 17.3 38.3683 17.6031 38.2439C17.9522 38.1027 18.3266 38.0346 18.7031 38.0439C19.2755 38.0119 19.8411 38.1802 20.303 38.5199C20.4956 38.6765 20.6543 38.8708 20.7691 39.0909C20.884 39.311 20.9527 39.5523 20.9709 39.7999H19.397C19.3789 39.6227 19.3022 39.4566 19.179 39.3279C19.1163 39.2683 19.0421 39.2222 18.961 39.1923C18.8798 39.1623 18.7934 39.1493 18.7071 39.1539C18.5576 39.1463 18.4106 39.1947 18.2951 39.2899C18.2407 39.3407 18.1984 39.4029 18.1711 39.4721C18.1437 39.5413 18.1321 39.6157 18.1371 39.6899C18.1357 39.7563 18.1476 39.8223 18.172 39.8841C18.1963 39.9459 18.2328 40.0023 18.2791 40.0499C18.3786 40.1543 18.4984 40.2373 18.6311 40.2939C18.7731 40.3559 18.977 40.4359 19.243 40.5319C19.5672 40.6358 19.8829 40.7648 20.187 40.9179C20.4378 41.0519 20.6536 41.2431 20.8169 41.4759C21.0031 41.7574 21.0956 42.0907 21.0809 42.4279C21.0841 42.7399 20.9987 43.0464 20.8349 43.3119Z" fill="white"/>
<path d="M23.0088 38.1162L24.4788 42.6402L25.9507 38.1162H27.5086L25.4147 44.1302H23.5348L21.4509 38.1162H23.0088Z" fill="white"/>
<path d="M32.7463 38.5998C33.2311 38.9637 33.5576 39.5 33.6583 40.0978H32.1183C32.0178 39.8831 31.8547 39.7039 31.6504 39.5838C31.4213 39.4477 31.1588 39.3784 30.8924 39.3838C30.6853 39.3753 30.4789 39.4125 30.2878 39.4927C30.0967 39.5729 29.9255 39.6941 29.7865 39.8478C29.4939 40.1979 29.3452 40.6462 29.3705 41.1018C29.3705 41.6738 29.5165 42.1131 29.8085 42.4198C29.9726 42.579 30.1683 42.7022 30.3828 42.7814C30.5974 42.8606 30.8261 42.8941 31.0544 42.8798C31.3807 42.8857 31.7001 42.7853 31.9644 42.5938C32.2342 42.3923 32.4291 42.1065 32.5183 41.7818H30.6804V40.7358H33.7343V42.1738C33.6168 42.5314 33.4322 42.8634 33.1903 43.1518C32.9272 43.4617 32.6005 43.7113 32.2324 43.8838C31.8158 44.0762 31.3612 44.1719 30.9024 44.1638C30.3444 44.1784 29.7924 44.0452 29.3025 43.7778C28.8543 43.5257 28.4894 43.1482 28.2525 42.6918C27.9981 42.1975 27.8709 41.6476 27.8826 41.0918C27.8726 40.5393 27.9997 39.993 28.2525 39.5018C28.489 39.0463 28.8523 38.6691 29.2985 38.4158C29.7811 38.1499 30.3256 38.0168 30.8764 38.0298C31.5459 38.0057 32.2041 38.2063 32.7463 38.5998Z" fill="white"/>
<path d="M24.6048 25.546H24.1068C24.1042 23.5277 23.3011 21.5928 21.8738 20.1657C20.4464 18.7387 18.5114 17.9361 16.4932 17.934C14.4751 17.9362 12.5403 18.7388 11.1133 20.1659C9.68629 21.5929 8.88368 23.5278 8.88157 25.546H8.38159C8.38424 23.3956 9.23975 21.334 10.7605 19.8136C12.2812 18.2932 14.3428 17.4382 16.4932 17.436C18.6435 17.4382 20.7052 18.2932 22.2259 19.8136C23.7466 21.334 24.6021 23.3956 24.6048 25.546Z" fill="#FF9908"/>
<path d="M28.0186 17.436H4.96777V17.934H28.0186V17.436Z" fill="#FF9908"/>
<path d="M9.42755 24.75H7.83362V26.344H9.42755V24.75Z" fill="#FF9908"/>
<path d="M25.1507 24.75H23.5568V26.344H25.1507V24.75Z" fill="#FF9908"/>
<path d="M17.2891 16.8618H15.6952V18.4558H17.2891V16.8618Z" fill="#FF9908"/>
<path d="M4.94176 18.4578C5.38246 18.4578 5.73973 18.1005 5.73973 17.6598C5.73973 17.2191 5.38246 16.8618 4.94176 16.8618C4.50106 16.8618 4.1438 17.2191 4.1438 17.6598C4.1438 18.1005 4.50106 18.4578 4.94176 18.4578Z" fill="#FF9908"/>
<path d="M27.9426 18.4578C28.3833 18.4578 28.7406 18.1005 28.7406 17.6598C28.7406 17.2191 28.3833 16.8618 27.9426 16.8618C27.5019 16.8618 27.1447 17.2191 27.1447 17.6598C27.1447 18.1005 27.5019 18.4578 27.9426 18.4578Z" fill="#FF9908"/>
</svg>
