<svg width="16" height="16" viewBox="0 0 16 16" fill="none" xmlns="http://www.w3.org/2000/svg">
<g>
<path fill-rule="evenodd" clip-rule="evenodd" d="M8.00218 3.41797C8.0482 3.41797 8.08551 3.38066 8.08551 3.33464C8.08551 3.28861 8.0482 3.2513 8.00218 3.2513C7.95615 3.2513 7.91884 3.28861 7.91884 3.33464C7.91884 3.38066 7.95615 3.41797 8.00218 3.41797ZM6.58551 3.33464C6.58551 2.55223 7.21977 1.91797 8.00218 1.91797C8.78458 1.91797 9.41884 2.55223 9.41884 3.33464C9.41884 4.11704 8.78458 4.7513 8.00218 4.7513C7.21977 4.7513 6.58551 4.11704 6.58551 3.33464ZM8.00218 8.08464C8.0482 8.08464 8.08551 8.04733 8.08551 8.0013C8.08551 7.95528 8.0482 7.91797 8.00218 7.91797C7.95615 7.91797 7.91884 7.95528 7.91884 8.0013C7.91884 8.04733 7.95615 8.08464 8.00218 8.08464ZM6.58551 8.0013C6.58551 7.2189 7.21977 6.58464 8.00218 6.58464C8.78458 6.58464 9.41884 7.2189 9.41884 8.0013C9.41884 8.78371 8.78458 9.41797 8.00218 9.41797C7.21977 9.41797 6.58551 8.78371 6.58551 8.0013ZM8.00218 12.7513C8.0482 12.7513 8.08551 12.714 8.08551 12.668C8.08551 12.6219 8.0482 12.5846 8.00218 12.5846C7.95615 12.5846 7.91884 12.6219 7.91884 12.668C7.91884 12.714 7.95615 12.7513 8.00218 12.7513ZM6.58551 12.668C6.58551 11.8856 7.21977 11.2513 8.00218 11.2513C8.78458 11.2513 9.41884 11.8856 9.41884 12.668C9.41884 13.4504 8.78458 14.0846 8.00218 14.0846C7.21977 14.0846 6.58551 13.4504 6.58551 12.668Z" fill="#314362"/>
</g>
</svg>
