<svg width="40" height="48" viewBox="0 0 40 48" fill="none" xmlns="http://www.w3.org/2000/svg">
<path d="M27.934 9.84959C26.8404 9.84853 25.7918 9.41379 25.0183 8.64071C24.2448 7.86762 23.8095 6.8193 23.808 5.72574V0H5.38198C3.95459 0 2.58564 0.567023 1.57632 1.5763C0.566997 2.58558 0 3.95442 0 5.38176V37.8244C0 39.2517 0.566997 40.6206 1.57632 41.6299C2.58564 42.6392 3.95459 43.2062 5.38198 43.2062H27.502C28.9294 43.2062 30.2983 42.6392 31.3076 41.6299C32.3169 40.6206 32.884 39.2517 32.884 37.8244V9.84959H27.934Z" fill="white"/>
<path d="M27.934 9.84959C26.8404 9.84853 25.7918 9.41379 25.0183 8.64071C24.2448 7.86762 23.8095 6.8193 23.808 5.72574V0H5.38198C3.95459 0 2.58564 0.567023 1.57632 1.5763C0.566997 2.58558 0 3.95442 0 5.38176V37.8244C0 39.2517 0.566997 40.6206 1.57632 41.6299C2.58564 42.6392 3.95459 43.2062 5.38198 43.2062H27.502C28.9294 43.2062 30.2983 42.6392 31.3076 41.6299C32.3169 40.6206 32.884 39.2517 32.884 37.8244V9.84959H27.934Z" fill="#0072FF" fill-opacity="0.1"/>
<path d="M32.884 9.84959H27.934C26.8404 9.84853 25.7918 9.41379 25.0183 8.64071C24.2448 7.86762 23.8096 6.8193 23.808 5.72574V0L32.884 9.84959Z" fill="#0072FF"/>
<path d="M26.1199 16.7455H5.46992C5.2717 16.745 5.08176 16.666 4.9416 16.5258C4.80144 16.3857 4.72245 16.1957 4.72192 15.9975C4.72192 15.799 4.80065 15.6085 4.94087 15.4679C5.08109 15.3273 5.27136 15.2481 5.46992 15.2476H26.1199C26.3185 15.2481 26.5088 15.3273 26.649 15.4679C26.7892 15.6085 26.8679 15.799 26.8679 15.9975C26.8674 16.1957 26.7884 16.3857 26.6482 16.5258C26.5081 16.666 26.3181 16.745 26.1199 16.7455Z" fill="#0072FF"/>
<path d="M26.1199 21.2191H5.46992C5.2717 21.2186 5.08176 21.1396 4.9416 20.9995C4.80144 20.8593 4.72245 20.6694 4.72192 20.4712C4.72192 20.2726 4.80065 20.0821 4.94087 19.9415C5.08109 19.801 5.27136 19.7217 5.46992 19.7212H26.1199C26.3185 19.7217 26.5088 19.801 26.649 19.9415C26.7892 20.0821 26.8679 20.2726 26.8679 20.4712C26.8674 20.6694 26.7884 20.8593 26.6482 20.9995C26.5081 21.1396 26.3181 21.2186 26.1199 21.2191Z" fill="#0072FF"/>
<path d="M26.1199 25.6928H5.46992C5.27136 25.6922 5.08109 25.613 4.94087 25.4724C4.80065 25.3318 4.72192 25.1413 4.72192 24.9428C4.72245 24.7446 4.80144 24.5547 4.9416 24.4145C5.08176 24.2743 5.2717 24.1954 5.46992 24.1948H26.1199C26.3181 24.1954 26.5081 24.2743 26.6482 24.4145C26.7884 24.5547 26.8674 24.7446 26.8679 24.9428C26.8679 25.1413 26.7892 25.3318 26.649 25.4724C26.5088 25.613 26.3185 25.6922 26.1199 25.6928Z" fill="#0072FF"/>
<path d="M26.1199 30.1649H5.46992C5.27154 30.1649 5.08129 30.0861 4.94102 29.9458C4.80074 29.8056 4.72192 29.6153 4.72192 29.417C4.72192 29.2184 4.80065 29.0279 4.94087 28.8873C5.08109 28.7468 5.27136 28.6675 5.46992 28.667H26.1199C26.3185 28.6675 26.5088 28.7468 26.649 28.8873C26.7892 29.0279 26.8679 29.2184 26.8679 29.417C26.8679 29.6153 26.7891 29.8056 26.6488 29.9458C26.5086 30.0861 26.3183 30.1649 26.1199 30.1649Z" fill="#0072FF"/>
<path d="M36.788 34.1206H11.78C10.0061 34.1206 8.56799 35.5586 8.56799 37.3325V44.7882C8.56799 46.562 10.0061 48 11.78 48H36.788C38.562 48 40 46.562 40 44.7882V37.3325C40 35.5586 38.562 34.1206 36.788 34.1206Z" fill="#0072FF"/>
<path d="M17.112 42.6743V44.1283H15.606V42.6743H17.112Z" fill="white"/>
<path d="M22.19 38.1143V39.2722H20.5559V44.128H19.094V39.2722H17.476V38.1143H22.19Z" fill="white"/>
<path d="M26.452 44.128L25.1839 42.2561L24.0939 44.128H22.4279L24.35 41.0321L22.3679 38.1143H24.0939L25.3279 39.9261L26.3919 38.1143H28.05L26.1539 41.1421L28.1779 44.128H26.452Z" fill="white"/>
<path d="M33.06 38.1143V39.2722H31.428V44.128H29.964V39.2722H28.348V38.1143H33.06Z" fill="white"/>
</svg>
