<svg width="32" height="32" viewBox="0 0 32 32" fill="none" xmlns="http://www.w3.org/2000/svg">
<path fill-rule="evenodd" clip-rule="evenodd" d="M4.58636 15.3346C4.58636 8.66111 9.99626 3.25122 16.6697 3.25122C23.3431 3.25122 28.753 8.66111 28.753 15.3346C28.753 22.008 23.3431 27.4179 16.6697 27.4179C15.1404 27.4179 13.6757 27.1334 12.3269 26.6138C12.0686 26.5143 12.0161 26.4961 11.9896 26.49C11.9451 26.4798 11.9265 26.4773 11.8809 26.4756C11.8525 26.4745 11.8123 26.4768 11.5822 26.5006L4.7542 27.2064L4.72281 27.2097C4.42436 27.2405 4.15102 27.2688 3.92949 27.2714C3.70848 27.274 3.40078 27.257 3.11803 27.0845C2.76265 26.8677 2.5206 26.5056 2.45617 26.0943C2.40491 25.7671 2.50682 25.4763 2.59371 25.2731C2.68081 25.0693 2.81146 24.8276 2.9541 24.5636L2.96909 24.5359L5.14996 20.4991C5.35032 20.1283 5.38095 20.0598 5.39307 20.0122C5.41296 19.934 5.41563 19.9027 5.40927 19.8223C5.4093 19.8226 5.40855 19.8128 5.40302 19.7873C5.39737 19.7614 5.38795 19.7246 5.3722 19.6713C5.33947 19.5606 5.29082 19.4158 5.21681 19.1963C4.80777 17.9827 4.58636 16.6837 4.58636 15.3346ZM16.6697 4.75122C10.8247 4.75122 6.08636 9.48954 6.08636 15.3346C6.08636 16.5187 6.28055 17.656 6.63824 18.7171C6.6479 18.7458 6.65751 18.7742 6.66701 18.8023C6.78255 19.1437 6.88399 19.4435 6.9046 19.704C6.92393 19.9483 6.90718 20.1446 6.84673 20.3821C6.78241 20.6349 6.64926 20.8806 6.50331 21.15C6.49216 21.1706 6.48095 21.1913 6.46968 21.2121L4.2888 25.2488C4.16188 25.4838 4.07521 25.6452 4.01633 25.7677C4.1521 25.7602 4.33436 25.7418 4.59997 25.7144L11.428 25.0085C11.4408 25.0072 11.4534 25.0059 11.466 25.0046C11.6346 24.9871 11.7892 24.971 11.9382 24.9767C12.0779 24.982 12.1902 24.9969 12.3264 25.0284C12.4719 25.0619 12.6357 25.1251 12.8208 25.1966C12.8358 25.2023 12.8509 25.2082 12.8662 25.2141C14.0456 25.6684 15.3276 25.9179 16.6697 25.9179C22.5147 25.9179 27.253 21.1796 27.253 15.3346C27.253 9.48954 22.5147 4.75122 16.6697 4.75122ZM17.2109 10.7836C16.6877 10.6938 16.1497 10.7922 15.692 11.0611C15.2344 11.3301 14.8867 11.7523 14.7105 12.2531C14.5731 12.6438 14.1449 12.8492 13.7541 12.7117C13.3634 12.5742 13.1581 12.1461 13.2955 11.7553C13.5892 10.9204 14.1689 10.2164 14.932 9.76792C15.695 9.31947 16.5922 9.15554 17.4645 9.30517C18.3368 9.4548 19.1281 9.90833 19.6981 10.5854C20.268 11.2625 20.58 12.1195 20.5787 13.0046L19.829 13.0035H20.5787C20.5787 13.0038 20.5787 13.0042 20.5787 13.0046C20.5781 14.4014 19.5404 15.3461 18.7458 15.8758C18.3256 16.1559 17.9108 16.3628 17.6039 16.4992C17.4494 16.5679 17.3196 16.6198 17.2267 16.6552C17.1802 16.673 17.1427 16.6866 17.1158 16.6962L17.0835 16.7075L17.0736 16.7109L17.0703 16.712L17.0691 16.7124L17.0685 16.7126C17.0683 16.7127 17.0681 16.7127 16.848 16.0525L17.0681 16.7127C16.6751 16.8437 16.2504 16.6313 16.1194 16.2384C15.9885 15.8458 16.2004 15.4215 16.5927 15.2901C16.5928 15.29 16.5929 15.29 16.593 15.2899C16.593 15.2899 16.593 15.2899 16.593 15.2899L16.5931 15.2899L16.5934 15.2898C16.5936 15.2898 16.5937 15.2897 16.8309 16.0012L16.5937 15.2897L16.5955 15.2891L16.6133 15.2828C16.6303 15.2768 16.6573 15.267 16.6927 15.2535C16.7638 15.2265 16.8682 15.1847 16.9947 15.1285C17.2499 15.0151 17.5845 14.8472 17.9138 14.6277C18.6179 14.1583 19.0787 13.6046 19.0787 13.0035L19.0787 13.0023C19.0795 12.4715 18.8924 11.9575 18.5505 11.5514C18.2087 11.1453 17.7341 10.8733 17.2109 10.7836ZM16.1196 20.0012C16.1196 19.587 16.4554 19.2512 16.8696 19.2512H16.8829C17.2971 19.2512 17.6329 19.587 17.6329 20.0012C17.6329 20.4154 17.2971 20.7512 16.8829 20.7512H16.8696C16.4554 20.7512 16.1196 20.4154 16.1196 20.0012Z" fill="#FD6F8E"/>
</svg>
