<svg width="20" height="12" viewBox="0 0 20 12" fill="none" xmlns="http://www.w3.org/2000/svg">
<path d="M18.302 2.32322C18.1575 2.12854 18.0017 1.94181 17.8307 1.76302C17.8307 1.76302 17.8269 1.75905 17.8231 1.75508C15.5845 -0.585026 11.9549 -0.585026 9.71637 1.75508L10.2599 2.32322C10.9782 3.07412 12.0271 3.34826 13.0077 3.07014C13.1711 3.02247 13.3422 2.99068 13.5094 2.97479L15.0106 2.13251C16.1318 1.50081 17.3822 1.65973 18.302 2.32322Z" fill="#FFA502"/>
<path d="M15.0108 9.8759L13.502 9.02568C13.3386 9.00979 13.1751 8.978 13.0155 8.9343C12.0349 8.66016 10.9936 8.9343 10.2753 9.6852L9.72797 10.2573C11.9703 12.5855 15.5923 12.5815 17.8309 10.2414C17.8575 10.2136 17.8841 10.1858 17.9107 10.158C18.0513 10.007 18.1805 9.84809 18.3022 9.6852C17.3824 10.3447 16.1358 10.4997 15.0146 9.87193L15.0108 9.8759Z" fill="#FFA502"/>
<path d="M18.8418 3.19342C18.6898 2.89148 18.5112 2.60145 18.3059 2.32334C17.3824 1.65984 16.1358 1.50092 15.0146 2.13263L13.5133 2.97491C13.8896 2.93915 14.2735 2.98286 14.6383 3.09807C15.0868 3.24507 15.5087 3.50332 15.8583 3.88473C16.4018 4.46876 16.6717 5.22761 16.6755 5.99042C16.6907 5.99042 16.6907 5.99042 16.6755 5.99042C16.6755 6.75722 16.4056 7.52401 15.8621 8.11201C15.5125 8.48945 15.0944 8.75167 14.6459 8.89867C14.2773 9.02183 13.8858 9.06156 13.5057 9.0258L15.0146 9.87603C16.1358 10.5038 17.3786 10.3488 18.3021 9.6893C18.5036 9.41913 18.6784 9.13308 18.8304 8.83907C19.7274 7.083 19.735 4.95347 18.8456 3.19342H18.8418Z" fill="#FFC40C"/>
<path d="M16.8161 5.9903C16.8427 5.9903 16.8731 5.9903 16.8997 5.98633C16.8731 5.98633 16.8427 5.9903 16.8161 5.9903Z" fill="#FFA502"/>
<path d="M5.11768 0.0148926C6.38328 0.0148926 7.40945 1.08761 7.40945 2.41062V11.9935C6.14384 11.9935 5.11768 10.9208 5.11768 9.5978V0.0148926Z" fill="#FFA502"/>
<path d="M14.5888 5.156C14.1404 4.68718 13.4144 4.68718 12.9698 5.156C12.8139 5.31889 12.6201 5.43411 12.4035 5.47384C12.2172 5.50562 12.031 5.52946 11.8448 5.53741C11.2177 5.56919 10.6096 5.31889 10.1687 4.85405L9.96347 4.63951C9.87226 4.54416 9.72784 4.54416 9.64042 4.63951L8.57625 5.75195L8.50023 5.83141C8.40902 5.92676 8.40902 6.07774 8.50023 6.16912L8.57625 6.24858L9.64042 7.36102C9.73164 7.45637 9.87606 7.45637 9.96347 7.36102L10.1687 7.14648C10.5526 6.7452 11.0733 6.5108 11.6205 6.50682C11.936 6.50682 12.2552 6.53861 12.5669 6.60615C12.7227 6.63793 12.8633 6.72534 12.9774 6.84453C13.4258 7.31334 14.1518 7.31334 14.5964 6.84453C15.0449 6.37571 15.0449 5.61687 14.5964 5.15203L14.5888 5.156Z" fill="#FFA502"/>
<path d="M3.36567 0.769745C1.65159 1.82657 0.5 3.77334 0.5 6.0022C0.5 8.23106 1.65159 10.1818 3.36567 11.2386V0.769745Z" fill="#FFA502"/>
</svg>
