<svg width="111" height="127" viewBox="0 0 111 127" fill="none" xmlns="http://www.w3.org/2000/svg">
<g filter="url(#filter0_dddd_2_1717)">
<circle cx="55.5" cy="44" r="39" stroke="#CDD1D9" stroke-width="2"/>
<path d="M72.104 36.6464C71.8151 36.2571 71.5035 35.8836 71.1614 35.526C71.1614 35.526 71.1538 35.5181 71.1462 35.5102C66.6691 30.8299 59.4099 30.8299 54.9328 35.5102L56.0197 36.6464C57.4564 38.1482 59.5543 38.6965 61.5154 38.1403C61.8423 38.0449 62.1844 37.9814 62.5188 37.9496L65.5213 36.265C67.7637 35.0016 70.2645 35.3195 72.104 36.6464Z" fill="#FFA502"/>
<path d="M65.5216 51.7518L62.5039 50.0514C62.1771 50.0196 61.8502 49.956 61.531 49.8686C59.5699 49.3204 57.4871 49.8686 56.0505 51.3704L54.9559 52.5147C59.4406 57.171 66.6846 57.1631 71.1618 52.4829C71.215 52.4273 71.2682 52.3716 71.3214 52.316C71.6026 52.0141 71.8611 51.6962 72.1043 51.3704C70.2648 52.6895 67.7716 52.9994 65.5292 51.7439L65.5216 51.7518Z" fill="#FFA502"/>
<path d="M73.1836 38.3868C72.8796 37.7829 72.5223 37.2029 72.1118 36.6466C70.2647 35.3197 67.7715 35.0018 65.5292 36.2652L62.5267 37.9498C63.2792 37.8783 64.0469 37.9657 64.7766 38.1961C65.6736 38.4901 66.5173 39.0066 67.2166 39.7694C68.3036 40.9375 68.8433 42.4552 68.8509 43.9808C68.8813 43.9808 68.8813 43.9808 68.8509 43.9808C68.8509 45.5144 68.3112 47.048 67.2242 48.224C66.5249 48.9789 65.6888 49.5033 64.7918 49.7973C64.0545 50.0436 63.2716 50.1231 62.5115 50.0516L65.5292 51.752C67.7715 53.0075 70.2571 52.6976 72.1042 51.3786C72.5071 50.8382 72.8568 50.2661 73.1608 49.6781C74.9547 46.166 74.9699 41.9069 73.1912 38.3868H73.1836Z" fill="#FFC40C"/>
<path d="M69.1321 43.9806C69.1853 43.9806 69.2462 43.9806 69.2994 43.9727C69.2462 43.9727 69.1853 43.9806 69.1321 43.9806Z" fill="#FFA502"/>
<path d="M45.7354 32.0298C48.2666 32.0298 50.3189 34.1752 50.3189 36.8212V55.987C47.7877 55.987 45.7354 53.8416 45.7354 51.1956V32.0298Z" fill="#FFA502"/>
<path d="M64.6777 42.312C63.7807 41.3744 62.3289 41.3744 61.4395 42.312C61.1279 42.6378 60.7402 42.8682 60.3069 42.9477C59.9345 43.0112 59.562 43.0589 59.1896 43.0748C57.9354 43.1384 56.7192 42.6378 55.8374 41.7081L55.4269 41.279C55.2445 41.0883 54.9557 41.0883 54.7808 41.279L52.6525 43.5039L52.5005 43.6628C52.318 43.8535 52.318 44.1555 52.5005 44.3382L52.6525 44.4971L54.7808 46.722C54.9633 46.9127 55.2521 46.9127 55.4269 46.722L55.8374 46.2929C56.6051 45.4904 57.6465 45.0216 58.7411 45.0136C59.372 45.0136 60.0105 45.0772 60.6338 45.2123C60.9454 45.2759 61.2267 45.4507 61.4547 45.6891C62.3517 46.6267 63.8035 46.6267 64.6929 45.6891C65.5898 44.7514 65.5898 43.2337 64.6929 42.304L64.6777 42.312Z" fill="#FFA502"/>
<path d="M42.2313 33.5395C38.8032 35.6532 36.5 39.5467 36.5 44.0044C36.5 48.4621 38.8032 52.3636 42.2313 54.4773V33.5395Z" fill="#FFA502"/>
</g>
<defs>
<filter id="filter0_dddd_2_1717" x="0.5" y="0" width="110" height="127" filterUnits="userSpaceOnUse" color-interpolation-filters="sRGB">
<feFlood flood-opacity="0" result="BackgroundImageFix"/>
<feColorMatrix in="SourceAlpha" type="matrix" values="0 0 0 0 0 0 0 0 0 0 0 0 0 0 0 0 0 0 127 0" result="hardAlpha"/>
<feOffset dy="2"/>
<feGaussianBlur stdDeviation="2.5"/>
<feColorMatrix type="matrix" values="0 0 0 0 0.192157 0 0 0 0 0.262745 0 0 0 0 0.384314 0 0 0 0.1 0"/>
<feBlend mode="normal" in2="BackgroundImageFix" result="effect1_dropShadow_2_1717"/>
<feColorMatrix in="SourceAlpha" type="matrix" values="0 0 0 0 0 0 0 0 0 0 0 0 0 0 0 0 0 0 127 0" result="hardAlpha"/>
<feOffset dy="6"/>
<feGaussianBlur stdDeviation="5"/>
<feColorMatrix type="matrix" values="0 0 0 0 0.192157 0 0 0 0 0.262745 0 0 0 0 0.384314 0 0 0 0.09 0"/>
<feBlend mode="normal" in2="effect1_dropShadow_2_1717" result="effect2_dropShadow_2_1717"/>
<feColorMatrix in="SourceAlpha" type="matrix" values="0 0 0 0 0 0 0 0 0 0 0 0 0 0 0 0 0 0 127 0" result="hardAlpha"/>
<feOffset dy="11"/>
<feGaussianBlur stdDeviation="6.5"/>
<feColorMatrix type="matrix" values="0 0 0 0 0.192157 0 0 0 0 0.262745 0 0 0 0 0.384314 0 0 0 0.05 0"/>
<feBlend mode="normal" in2="effect2_dropShadow_2_1717" result="effect3_dropShadow_2_1717"/>
<feColorMatrix in="SourceAlpha" type="matrix" values="0 0 0 0 0 0 0 0 0 0 0 0 0 0 0 0 0 0 127 0" result="hardAlpha"/>
<feOffset dy="28"/>
<feGaussianBlur stdDeviation="7.5"/>
<feColorMatrix type="matrix" values="0 0 0 0 0.192157 0 0 0 0 0.262745 0 0 0 0 0.384314 0 0 0 0.01 0"/>
<feBlend mode="normal" in2="effect3_dropShadow_2_1717" result="effect4_dropShadow_2_1717"/>
<feBlend mode="normal" in="SourceGraphic" in2="effect4_dropShadow_2_1717" result="shape"/>
</filter>
</defs>
</svg>
